<?xml version="1.0" encoding="utf-8" standalone="no"?>
<!DOCTYPE svg PUBLIC "-//W3C//DTD SVG 1.1//EN"
  "http://www.w3.org/Graphics/SVG/1.1/DTD/svg11.dtd">
<svg xmlns:xlink="http://www.w3.org/1999/xlink" width="460.8pt" height="345.6pt" viewBox="0 0 460.8 345.6" xmlns="http://www.w3.org/2000/svg" version="1.1">
 <metadata>
  <rdf:RDF xmlns:dc="http://purl.org/dc/elements/1.1/" xmlns:cc="http://creativecommons.org/ns#" xmlns:rdf="http://www.w3.org/1999/02/22-rdf-syntax-ns#">
   <cc:Work>
    <dc:type rdf:resource="http://purl.org/dc/dcmitype/StillImage"/>
    <dc:date>2023-07-22T11:58:02.924303</dc:date>
    <dc:format>image/svg+xml</dc:format>
    <dc:creator>
     <cc:Agent>
      <dc:title>Matplotlib v3.7.2, https://matplotlib.org/</dc:title>
     </cc:Agent>
    </dc:creator>
   </cc:Work>
  </rdf:RDF>
 </metadata>
 <defs>
  <style type="text/css">*{stroke-linejoin: round; stroke-linecap: butt}</style>
 </defs>
 <g id="figure_1">
  <g id="patch_1">
   <path d="M 0 345.6 
L 460.8 345.6 
L 460.8 0 
L 0 0 
z
" style="fill: #ffffff"/>
  </g>
  <g id="axes_1">
   <g id="patch_2">
    <path d="M 57.6 307.584 
L 414.72 307.584 
L 414.72 41.472 
L 57.6 41.472 
z
" style="fill: #ffffff"/>
   </g>
   <g id="matplotlib.axis_1">
    <g id="xtick_1">
     <g id="line2d_1">
      <defs>
       <path id="mcc69b35e17" d="M 0 0 
L 0 3.5 
" style="stroke: #000000; stroke-width: 0.8"/>
      </defs>
      <g>
       <use xlink:href="#mcc69b35e17" x="73.832727" y="307.584" style="stroke: #000000; stroke-width: 0.8"/>
      </g>
     </g>
     <g id="text_1">
      <!-- 0 -->
      <g transform="translate(70.651477 322.182437) scale(0.1 -0.1)">
       <defs>
        <path id="DejaVuSans-30" d="M 2034 4250 
Q 1547 4250 1301 3770 
Q 1056 3291 1056 2328 
Q 1056 1369 1301 889 
Q 1547 409 2034 409 
Q 2525 409 2770 889 
Q 3016 1369 3016 2328 
Q 3016 3291 2770 3770 
Q 2525 4250 2034 4250 
z
M 2034 4750 
Q 2819 4750 3233 4129 
Q 3647 3509 3647 2328 
Q 3647 1150 3233 529 
Q 2819 -91 2034 -91 
Q 1250 -91 836 529 
Q 422 1150 422 2328 
Q 422 3509 836 4129 
Q 1250 4750 2034 4750 
z
" transform="scale(0.015625)"/>
       </defs>
       <use xlink:href="#DejaVuSans-30"/>
      </g>
     </g>
    </g>
    <g id="xtick_2">
     <g id="line2d_2">
      <g>
       <use xlink:href="#mcc69b35e17" x="128.122785" y="307.584" style="stroke: #000000; stroke-width: 0.8"/>
      </g>
     </g>
     <g id="text_2">
      <!-- 50 -->
      <g transform="translate(121.760285 322.182437) scale(0.1 -0.1)">
       <defs>
        <path id="DejaVuSans-35" d="M 691 4666 
L 3169 4666 
L 3169 4134 
L 1269 4134 
L 1269 2991 
Q 1406 3038 1543 3061 
Q 1681 3084 1819 3084 
Q 2600 3084 3056 2656 
Q 3513 2228 3513 1497 
Q 3513 744 3044 326 
Q 2575 -91 1722 -91 
Q 1428 -91 1123 -41 
Q 819 9 494 109 
L 494 744 
Q 775 591 1075 516 
Q 1375 441 1709 441 
Q 2250 441 2565 725 
Q 2881 1009 2881 1497 
Q 2881 1984 2565 2268 
Q 2250 2553 1709 2553 
Q 1456 2553 1204 2497 
Q 953 2441 691 2322 
L 691 4666 
z
" transform="scale(0.015625)"/>
       </defs>
       <use xlink:href="#DejaVuSans-35"/>
       <use xlink:href="#DejaVuSans-30" x="63.623047"/>
      </g>
     </g>
    </g>
    <g id="xtick_3">
     <g id="line2d_3">
      <g>
       <use xlink:href="#mcc69b35e17" x="182.412843" y="307.584" style="stroke: #000000; stroke-width: 0.8"/>
      </g>
     </g>
     <g id="text_3">
      <!-- 100 -->
      <g transform="translate(172.869093 322.182437) scale(0.1 -0.1)">
       <defs>
        <path id="DejaVuSans-31" d="M 794 531 
L 1825 531 
L 1825 4091 
L 703 3866 
L 703 4441 
L 1819 4666 
L 2450 4666 
L 2450 531 
L 3481 531 
L 3481 0 
L 794 0 
L 794 531 
z
" transform="scale(0.015625)"/>
       </defs>
       <use xlink:href="#DejaVuSans-31"/>
       <use xlink:href="#DejaVuSans-30" x="63.623047"/>
       <use xlink:href="#DejaVuSans-30" x="127.246094"/>
      </g>
     </g>
    </g>
    <g id="xtick_4">
     <g id="line2d_4">
      <g>
       <use xlink:href="#mcc69b35e17" x="236.702901" y="307.584" style="stroke: #000000; stroke-width: 0.8"/>
      </g>
     </g>
     <g id="text_4">
      <!-- 150 -->
      <g transform="translate(227.159151 322.182437) scale(0.1 -0.1)">
       <use xlink:href="#DejaVuSans-31"/>
       <use xlink:href="#DejaVuSans-35" x="63.623047"/>
       <use xlink:href="#DejaVuSans-30" x="127.246094"/>
      </g>
     </g>
    </g>
    <g id="xtick_5">
     <g id="line2d_5">
      <g>
       <use xlink:href="#mcc69b35e17" x="290.992958" y="307.584" style="stroke: #000000; stroke-width: 0.8"/>
      </g>
     </g>
     <g id="text_5">
      <!-- 200 -->
      <g transform="translate(281.449208 322.182437) scale(0.1 -0.1)">
       <defs>
        <path id="DejaVuSans-32" d="M 1228 531 
L 3431 531 
L 3431 0 
L 469 0 
L 469 531 
Q 828 903 1448 1529 
Q 2069 2156 2228 2338 
Q 2531 2678 2651 2914 
Q 2772 3150 2772 3378 
Q 2772 3750 2511 3984 
Q 2250 4219 1831 4219 
Q 1534 4219 1204 4116 
Q 875 4013 500 3803 
L 500 4441 
Q 881 4594 1212 4672 
Q 1544 4750 1819 4750 
Q 2544 4750 2975 4387 
Q 3406 4025 3406 3419 
Q 3406 3131 3298 2873 
Q 3191 2616 2906 2266 
Q 2828 2175 2409 1742 
Q 1991 1309 1228 531 
z
" transform="scale(0.015625)"/>
       </defs>
       <use xlink:href="#DejaVuSans-32"/>
       <use xlink:href="#DejaVuSans-30" x="63.623047"/>
       <use xlink:href="#DejaVuSans-30" x="127.246094"/>
      </g>
     </g>
    </g>
    <g id="xtick_6">
     <g id="line2d_6">
      <g>
       <use xlink:href="#mcc69b35e17" x="345.283016" y="307.584" style="stroke: #000000; stroke-width: 0.8"/>
      </g>
     </g>
     <g id="text_6">
      <!-- 250 -->
      <g transform="translate(335.739266 322.182437) scale(0.1 -0.1)">
       <use xlink:href="#DejaVuSans-32"/>
       <use xlink:href="#DejaVuSans-35" x="63.623047"/>
       <use xlink:href="#DejaVuSans-30" x="127.246094"/>
      </g>
     </g>
    </g>
    <g id="xtick_7">
     <g id="line2d_7">
      <g>
       <use xlink:href="#mcc69b35e17" x="399.573074" y="307.584" style="stroke: #000000; stroke-width: 0.8"/>
      </g>
     </g>
     <g id="text_7">
      <!-- 300 -->
      <g transform="translate(390.029324 322.182437) scale(0.1 -0.1)">
       <defs>
        <path id="DejaVuSans-33" d="M 2597 2516 
Q 3050 2419 3304 2112 
Q 3559 1806 3559 1356 
Q 3559 666 3084 287 
Q 2609 -91 1734 -91 
Q 1441 -91 1130 -33 
Q 819 25 488 141 
L 488 750 
Q 750 597 1062 519 
Q 1375 441 1716 441 
Q 2309 441 2620 675 
Q 2931 909 2931 1356 
Q 2931 1769 2642 2001 
Q 2353 2234 1838 2234 
L 1294 2234 
L 1294 2753 
L 1863 2753 
Q 2328 2753 2575 2939 
Q 2822 3125 2822 3475 
Q 2822 3834 2567 4026 
Q 2313 4219 1838 4219 
Q 1578 4219 1281 4162 
Q 984 4106 628 3988 
L 628 4550 
Q 988 4650 1302 4700 
Q 1616 4750 1894 4750 
Q 2613 4750 3031 4423 
Q 3450 4097 3450 3541 
Q 3450 3153 3228 2886 
Q 3006 2619 2597 2516 
z
" transform="scale(0.015625)"/>
       </defs>
       <use xlink:href="#DejaVuSans-33"/>
       <use xlink:href="#DejaVuSans-30" x="63.623047"/>
       <use xlink:href="#DejaVuSans-30" x="127.246094"/>
      </g>
     </g>
    </g>
    <g id="text_8">
     <!-- Episode -->
     <g transform="translate(216.5225 335.860562) scale(0.1 -0.1)">
      <defs>
       <path id="DejaVuSans-45" d="M 628 4666 
L 3578 4666 
L 3578 4134 
L 1259 4134 
L 1259 2753 
L 3481 2753 
L 3481 2222 
L 1259 2222 
L 1259 531 
L 3634 531 
L 3634 0 
L 628 0 
L 628 4666 
z
" transform="scale(0.015625)"/>
       <path id="DejaVuSans-70" d="M 1159 525 
L 1159 -1331 
L 581 -1331 
L 581 3500 
L 1159 3500 
L 1159 2969 
Q 1341 3281 1617 3432 
Q 1894 3584 2278 3584 
Q 2916 3584 3314 3078 
Q 3713 2572 3713 1747 
Q 3713 922 3314 415 
Q 2916 -91 2278 -91 
Q 1894 -91 1617 61 
Q 1341 213 1159 525 
z
M 3116 1747 
Q 3116 2381 2855 2742 
Q 2594 3103 2138 3103 
Q 1681 3103 1420 2742 
Q 1159 2381 1159 1747 
Q 1159 1113 1420 752 
Q 1681 391 2138 391 
Q 2594 391 2855 752 
Q 3116 1113 3116 1747 
z
" transform="scale(0.015625)"/>
       <path id="DejaVuSans-69" d="M 603 3500 
L 1178 3500 
L 1178 0 
L 603 0 
L 603 3500 
z
M 603 4863 
L 1178 4863 
L 1178 4134 
L 603 4134 
L 603 4863 
z
" transform="scale(0.015625)"/>
       <path id="DejaVuSans-73" d="M 2834 3397 
L 2834 2853 
Q 2591 2978 2328 3040 
Q 2066 3103 1784 3103 
Q 1356 3103 1142 2972 
Q 928 2841 928 2578 
Q 928 2378 1081 2264 
Q 1234 2150 1697 2047 
L 1894 2003 
Q 2506 1872 2764 1633 
Q 3022 1394 3022 966 
Q 3022 478 2636 193 
Q 2250 -91 1575 -91 
Q 1294 -91 989 -36 
Q 684 19 347 128 
L 347 722 
Q 666 556 975 473 
Q 1284 391 1588 391 
Q 1994 391 2212 530 
Q 2431 669 2431 922 
Q 2431 1156 2273 1281 
Q 2116 1406 1581 1522 
L 1381 1569 
Q 847 1681 609 1914 
Q 372 2147 372 2553 
Q 372 3047 722 3315 
Q 1072 3584 1716 3584 
Q 2034 3584 2315 3537 
Q 2597 3491 2834 3397 
z
" transform="scale(0.015625)"/>
       <path id="DejaVuSans-6f" d="M 1959 3097 
Q 1497 3097 1228 2736 
Q 959 2375 959 1747 
Q 959 1119 1226 758 
Q 1494 397 1959 397 
Q 2419 397 2687 759 
Q 2956 1122 2956 1747 
Q 2956 2369 2687 2733 
Q 2419 3097 1959 3097 
z
M 1959 3584 
Q 2709 3584 3137 3096 
Q 3566 2609 3566 1747 
Q 3566 888 3137 398 
Q 2709 -91 1959 -91 
Q 1206 -91 779 398 
Q 353 888 353 1747 
Q 353 2609 779 3096 
Q 1206 3584 1959 3584 
z
" transform="scale(0.015625)"/>
       <path id="DejaVuSans-64" d="M 2906 2969 
L 2906 4863 
L 3481 4863 
L 3481 0 
L 2906 0 
L 2906 525 
Q 2725 213 2448 61 
Q 2172 -91 1784 -91 
Q 1150 -91 751 415 
Q 353 922 353 1747 
Q 353 2572 751 3078 
Q 1150 3584 1784 3584 
Q 2172 3584 2448 3432 
Q 2725 3281 2906 2969 
z
M 947 1747 
Q 947 1113 1208 752 
Q 1469 391 1925 391 
Q 2381 391 2643 752 
Q 2906 1113 2906 1747 
Q 2906 2381 2643 2742 
Q 2381 3103 1925 3103 
Q 1469 3103 1208 2742 
Q 947 2381 947 1747 
z
" transform="scale(0.015625)"/>
       <path id="DejaVuSans-65" d="M 3597 1894 
L 3597 1613 
L 953 1613 
Q 991 1019 1311 708 
Q 1631 397 2203 397 
Q 2534 397 2845 478 
Q 3156 559 3463 722 
L 3463 178 
Q 3153 47 2828 -22 
Q 2503 -91 2169 -91 
Q 1331 -91 842 396 
Q 353 884 353 1716 
Q 353 2575 817 3079 
Q 1281 3584 2069 3584 
Q 2775 3584 3186 3129 
Q 3597 2675 3597 1894 
z
M 3022 2063 
Q 3016 2534 2758 2815 
Q 2500 3097 2075 3097 
Q 1594 3097 1305 2825 
Q 1016 2553 972 2059 
L 3022 2063 
z
" transform="scale(0.015625)"/>
      </defs>
      <use xlink:href="#DejaVuSans-45"/>
      <use xlink:href="#DejaVuSans-70" x="63.183594"/>
      <use xlink:href="#DejaVuSans-69" x="126.660156"/>
      <use xlink:href="#DejaVuSans-73" x="154.443359"/>
      <use xlink:href="#DejaVuSans-6f" x="206.542969"/>
      <use xlink:href="#DejaVuSans-64" x="267.724609"/>
      <use xlink:href="#DejaVuSans-65" x="331.201172"/>
     </g>
    </g>
   </g>
   <g id="matplotlib.axis_2">
    <g id="ytick_1">
     <g id="line2d_8">
      <defs>
       <path id="md27290dc39" d="M 0 0 
L -3.5 0 
" style="stroke: #000000; stroke-width: 0.8"/>
      </defs>
      <g>
       <use xlink:href="#md27290dc39" x="57.6" y="295.488" style="stroke: #000000; stroke-width: 0.8"/>
      </g>
     </g>
     <g id="text_9">
      <!-- 0.00 -->
      <g transform="translate(28.334375 299.287219) scale(0.1 -0.1)">
       <defs>
        <path id="DejaVuSans-2e" d="M 684 794 
L 1344 794 
L 1344 0 
L 684 0 
L 684 794 
z
" transform="scale(0.015625)"/>
       </defs>
       <use xlink:href="#DejaVuSans-30"/>
       <use xlink:href="#DejaVuSans-2e" x="63.623047"/>
       <use xlink:href="#DejaVuSans-30" x="95.410156"/>
       <use xlink:href="#DejaVuSans-30" x="159.033203"/>
      </g>
     </g>
    </g>
    <g id="ytick_2">
     <g id="line2d_9">
      <g>
       <use xlink:href="#md27290dc39" x="57.6" y="249.273334" style="stroke: #000000; stroke-width: 0.8"/>
      </g>
     </g>
     <g id="text_10">
      <!-- 0.01 -->
      <g transform="translate(28.334375 253.072553) scale(0.1 -0.1)">
       <use xlink:href="#DejaVuSans-30"/>
       <use xlink:href="#DejaVuSans-2e" x="63.623047"/>
       <use xlink:href="#DejaVuSans-30" x="95.410156"/>
       <use xlink:href="#DejaVuSans-31" x="159.033203"/>
      </g>
     </g>
    </g>
    <g id="ytick_3">
     <g id="line2d_10">
      <g>
       <use xlink:href="#md27290dc39" x="57.6" y="203.058669" style="stroke: #000000; stroke-width: 0.8"/>
      </g>
     </g>
     <g id="text_11">
      <!-- 0.02 -->
      <g transform="translate(28.334375 206.857887) scale(0.1 -0.1)">
       <use xlink:href="#DejaVuSans-30"/>
       <use xlink:href="#DejaVuSans-2e" x="63.623047"/>
       <use xlink:href="#DejaVuSans-30" x="95.410156"/>
       <use xlink:href="#DejaVuSans-32" x="159.033203"/>
      </g>
     </g>
    </g>
    <g id="ytick_4">
     <g id="line2d_11">
      <g>
       <use xlink:href="#md27290dc39" x="57.6" y="156.844003" style="stroke: #000000; stroke-width: 0.8"/>
      </g>
     </g>
     <g id="text_12">
      <!-- 0.03 -->
      <g transform="translate(28.334375 160.643222) scale(0.1 -0.1)">
       <use xlink:href="#DejaVuSans-30"/>
       <use xlink:href="#DejaVuSans-2e" x="63.623047"/>
       <use xlink:href="#DejaVuSans-30" x="95.410156"/>
       <use xlink:href="#DejaVuSans-33" x="159.033203"/>
      </g>
     </g>
    </g>
    <g id="ytick_5">
     <g id="line2d_12">
      <g>
       <use xlink:href="#md27290dc39" x="57.6" y="110.629337" style="stroke: #000000; stroke-width: 0.8"/>
      </g>
     </g>
     <g id="text_13">
      <!-- 0.04 -->
      <g transform="translate(28.334375 114.428556) scale(0.1 -0.1)">
       <defs>
        <path id="DejaVuSans-34" d="M 2419 4116 
L 825 1625 
L 2419 1625 
L 2419 4116 
z
M 2253 4666 
L 3047 4666 
L 3047 1625 
L 3713 1625 
L 3713 1100 
L 3047 1100 
L 3047 0 
L 2419 0 
L 2419 1100 
L 313 1100 
L 313 1709 
L 2253 4666 
z
" transform="scale(0.015625)"/>
       </defs>
       <use xlink:href="#DejaVuSans-30"/>
       <use xlink:href="#DejaVuSans-2e" x="63.623047"/>
       <use xlink:href="#DejaVuSans-30" x="95.410156"/>
       <use xlink:href="#DejaVuSans-34" x="159.033203"/>
      </g>
     </g>
    </g>
    <g id="ytick_6">
     <g id="line2d_13">
      <g>
       <use xlink:href="#md27290dc39" x="57.6" y="64.414671" style="stroke: #000000; stroke-width: 0.8"/>
      </g>
     </g>
     <g id="text_14">
      <!-- 0.05 -->
      <g transform="translate(28.334375 68.21389) scale(0.1 -0.1)">
       <use xlink:href="#DejaVuSans-30"/>
       <use xlink:href="#DejaVuSans-2e" x="63.623047"/>
       <use xlink:href="#DejaVuSans-30" x="95.410156"/>
       <use xlink:href="#DejaVuSans-35" x="159.033203"/>
      </g>
     </g>
    </g>
    <g id="text_15">
     <!-- Loss -->
     <g transform="translate(22.254688 185.495187) rotate(-90) scale(0.1 -0.1)">
      <defs>
       <path id="DejaVuSans-4c" d="M 628 4666 
L 1259 4666 
L 1259 531 
L 3531 531 
L 3531 0 
L 628 0 
L 628 4666 
z
" transform="scale(0.015625)"/>
      </defs>
      <use xlink:href="#DejaVuSans-4c"/>
      <use xlink:href="#DejaVuSans-6f" x="53.962891"/>
      <use xlink:href="#DejaVuSans-73" x="115.144531"/>
      <use xlink:href="#DejaVuSans-73" x="167.244141"/>
     </g>
    </g>
   </g>
   <g id="line2d_14">
    <path d="M 73.832727 295.488 
L 398.487273 295.488 
L 398.487273 295.488 
" clip-path="url(#p6ff8fa468b)" style="fill: none; stroke: #008000; stroke-width: 1.5; stroke-linecap: square"/>
   </g>
   <g id="line2d_15">
    <path d="M 73.832727 295.488 
L 85.77654 295.488 
L 86.862341 111.131696 
L 87.948142 147.76491 
L 89.033943 90.963449 
L 90.119745 172.804889 
L 91.205546 203.591765 
L 92.291347 197.28186 
L 93.377148 208.992192 
L 94.462949 170.93933 
L 95.54875 142.16603 
L 96.634552 186.57158 
L 97.720353 193.512695 
L 98.806154 191.164528 
L 99.891955 170.34399 
L 100.977756 131.992589 
L 102.063557 197.896138 
L 103.149358 186.137281 
L 104.23516 181.663685 
L 105.320961 186.28739 
L 106.406762 208.675662 
L 107.492563 198.846392 
L 108.578364 225.808042 
L 109.664165 187.409549 
L 110.749967 214.672222 
L 111.835768 206.212964 
L 112.921569 226.006873 
L 114.00737 218.706286 
L 115.093171 254.183791 
L 116.178972 202.975602 
L 117.264773 188.758498 
L 118.350575 221.535174 
L 119.436376 246.187033 
L 120.522177 236.671749 
L 121.607978 260.653394 
L 122.693779 263.521317 
L 123.77958 257.742505 
L 124.865382 270.089014 
L 125.951183 262.003153 
L 127.036984 177.072837 
L 128.122785 213.787037 
L 129.208586 217.090449 
L 130.294387 239.313436 
L 131.380189 245.340417 
L 132.46599 253.468454 
L 133.551791 204.775963 
L 134.637592 252.716923 
L 135.723393 237.038603 
L 136.809194 229.961135 
L 137.894995 251.023076 
L 138.980797 258.106987 
L 140.066598 239.294856 
L 141.152399 260.8573 
L 142.2382 246.148425 
L 143.324001 235.85586 
L 144.409802 239.298251 
L 145.495604 205.802631 
L 146.581405 256.234425 
L 148.753007 213.531357 
L 149.838808 225.313525 
L 150.924609 221.288284 
L 152.01041 242.178432 
L 153.096212 252.231992 
L 154.182013 270.863375 
L 155.267814 265.540991 
L 156.353615 278.199187 
L 157.439416 256.908164 
L 158.525217 277.414864 
L 159.611019 94.787707 
L 160.69682 233.100653 
L 161.782621 160.312833 
L 162.868422 256.93605 
L 163.954223 265.098231 
L 165.040024 122.614902 
L 166.125825 225.057979 
L 167.211627 138.323196 
L 168.297428 187.531311 
L 169.383229 223.087629 
L 170.46903 228.76511 
L 171.554831 217.89483 
L 172.640632 229.025338 
L 173.726434 231.382169 
L 174.812235 233.117021 
L 175.898036 214.805261 
L 176.983837 223.600175 
L 178.069638 240.193783 
L 179.155439 221.84734 
L 180.24124 198.592486 
L 181.327042 198.845479 
L 182.412843 222.481047 
L 183.498644 210.452953 
L 184.584445 213.916968 
L 186.756047 223.158439 
L 187.841849 226.415842 
L 188.92765 226.872844 
L 190.013451 229.987209 
L 191.099252 208.355998 
L 192.185053 228.259338 
L 193.270854 209.15307 
L 194.356656 229.87455 
L 195.442457 228.570049 
L 196.528258 226.56255 
L 197.614059 214.566281 
L 198.69986 226.509193 
L 199.785661 226.092971 
L 200.871462 230.328453 
L 201.957264 227.842656 
L 203.043065 228.198547 
L 204.128866 223.544541 
L 205.214667 230.306731 
L 206.300468 232.446662 
L 207.386269 218.411026 
L 208.472071 227.167385 
L 209.557872 233.473554 
L 210.643673 215.657872 
L 211.729474 228.580534 
L 212.815275 205.590492 
L 213.901076 196.768565 
L 214.986877 212.598191 
L 216.072679 233.589927 
L 217.15848 257.291489 
L 218.244281 235.099728 
L 219.330082 233.551169 
L 220.415883 226.078131 
L 221.501684 236.094465 
L 222.587486 236.430631 
L 223.673287 220.06386 
L 224.759088 236.082332 
L 225.844889 231.467024 
L 226.93069 218.918812 
L 228.016491 240.48869 
L 229.102292 239.254845 
L 230.188094 236.179105 
L 231.273895 245.0427 
L 232.359696 245.634316 
L 233.445497 255.373089 
L 234.531298 246.599944 
L 235.617099 249.104108 
L 236.702901 260.965842 
L 237.788702 248.965744 
L 238.874503 228.822324 
L 239.960304 168.620742 
L 241.046105 242.910766 
L 242.131906 248.226605 
L 243.217708 232.148544 
L 244.303509 207.518546 
L 245.38931 222.829014 
L 246.475111 261.610285 
L 247.560912 254.157971 
L 248.646713 238.959753 
L 249.732514 242.78238 
L 250.818316 250.066546 
L 251.904117 251.145428 
L 252.989918 268.228818 
L 254.075719 270.435236 
L 255.16152 225.84593 
L 256.247321 249.09392 
L 257.333123 258.501275 
L 258.418924 259.136195 
L 259.504725 260.522195 
L 260.590526 253.438807 
L 261.676327 237.701568 
L 262.762128 255.805395 
L 263.847929 249.395989 
L 264.933731 252.430737 
L 266.019532 243.134337 
L 267.105333 249.302155 
L 268.191134 252.812177 
L 269.276935 255.036166 
L 270.362736 245.837538 
L 271.448538 253.289327 
L 272.534339 243.890438 
L 273.62014 257.312799 
L 274.705941 237.576922 
L 275.791742 240.318163 
L 276.877543 249.022619 
L 277.963344 53.568 
L 279.049146 246.322809 
L 280.134947 257.689018 
L 281.220748 216.369852 
L 282.306549 245.552849 
L 283.39235 158.420253 
L 284.478151 230.367793 
L 285.563953 236.328413 
L 286.649754 205.405821 
L 287.735555 254.237003 
L 288.821356 268.560961 
L 289.907157 206.782144 
L 290.992958 214.389943 
L 292.07876 231.824094 
L 293.164561 210.306769 
L 294.250362 258.562565 
L 295.336163 155.306762 
L 296.421964 232.760386 
L 297.507765 230.813686 
L 298.593566 243.025969 
L 299.679368 240.419201 
L 300.765169 241.450746 
L 301.85097 265.707486 
L 302.936771 236.912864 
L 304.022572 248.787879 
L 305.108373 215.672575 
L 307.279976 249.249818 
L 308.365777 213.756753 
L 309.451578 260.236661 
L 310.537379 190.174272 
L 311.62318 159.534751 
L 312.708981 210.673769 
L 313.794783 267.717492 
L 314.880584 247.000366 
L 315.966385 231.617042 
L 317.052186 249.976165 
L 318.137987 175.653129 
L 320.30959 246.688075 
L 321.395391 255.705614 
L 322.481192 235.896589 
L 323.566993 237.0949 
L 324.652794 260.656093 
L 325.738595 237.455022 
L 326.824396 258.242569 
L 327.910198 239.410226 
L 328.995999 229.97762 
L 330.0818 250.75411 
L 331.167601 245.660042 
L 332.253402 277.449444 
L 333.339203 259.373676 
L 334.425005 268.760602 
L 335.510806 264.466541 
L 336.596607 261.280051 
L 337.682408 269.835947 
L 338.768209 246.525841 
L 339.85401 239.348179 
L 340.939811 259.72363 
L 342.025613 259.778399 
L 343.111414 231.384136 
L 344.197215 252.146711 
L 345.283016 209.394563 
L 346.368817 239.05016 
L 347.454618 261.13439 
L 348.54042 276.773119 
L 349.626221 264.863689 
L 350.712022 250.865516 
L 351.797823 249.454326 
L 352.883624 216.552913 
L 353.969425 260.543242 
L 355.055227 229.337875 
L 356.141028 253.94767 
L 357.226829 245.557648 
L 358.31263 255.716219 
L 359.398431 248.753769 
L 360.484232 269.116116 
L 361.570033 168.469333 
L 362.655835 223.937959 
L 363.741636 168.092941 
L 364.827437 233.335109 
L 365.913238 237.139082 
L 366.999039 235.33548 
L 368.08484 242.078848 
L 369.170642 255.141612 
L 370.256443 232.187599 
L 371.342244 269.736024 
L 372.428045 270.29426 
L 373.513846 250.414548 
L 374.599647 271.249909 
L 375.685448 259.060753 
L 376.77125 278.223948 
L 377.857051 279.372224 
L 378.942852 252.204704 
L 380.028653 237.580047 
L 381.114454 255.023452 
L 382.200255 280.343434 
L 383.286057 280.538632 
L 384.371858 276.171233 
L 385.457659 276.753321 
L 386.54346 279.140587 
L 387.629261 184.649379 
L 388.715062 237.847416 
L 389.800863 261.516951 
L 390.886665 248.895614 
L 391.972466 257.91459 
L 393.058267 249.327752 
L 394.144068 266.45049 
L 395.229869 247.443195 
L 396.31567 273.596446 
L 397.401472 272.278691 
L 398.487273 273.063337 
L 398.487273 273.063337 
" clip-path="url(#p6ff8fa468b)" style="fill: none; stroke: #ff0000; stroke-width: 1.5; stroke-linecap: square"/>
   </g>
   <g id="line2d_16">
    <path d="M 73.832727 295.488 
L 85.77654 295.488 
L 86.862341 287.980687 
L 87.948142 288.400125 
L 89.033943 282.079294 
L 90.119745 291.847507 
L 91.205546 293.235199 
L 92.291347 290.810974 
L 93.377148 292.428388 
L 94.462949 292.395438 
L 95.54875 291.609864 
L 96.634552 291.365157 
L 97.720353 293.266006 
L 98.806154 292.254953 
L 100.977756 288.145782 
L 102.063557 292.271864 
L 103.149358 291.570905 
L 104.23516 291.85558 
L 106.406762 291.073702 
L 107.492563 292.486007 
L 108.578364 289.610971 
L 109.664165 292.524349 
L 110.749967 292.46189 
L 111.835768 292.836075 
L 112.921569 292.923694 
L 114.00737 292.154697 
L 115.093171 293.840058 
L 116.178972 292.99066 
L 117.264773 292.990571 
L 118.350575 292.025819 
L 119.436376 293.772488 
L 120.522177 293.251503 
L 121.607978 294.123809 
L 122.693779 293.698095 
L 123.77958 293.857453 
L 124.865382 294.398345 
L 125.951183 293.869413 
L 127.036984 293.786878 
L 128.122785 293.458954 
L 129.208586 289.522398 
L 130.294387 294.04879 
L 132.46599 294.074953 
L 133.551791 293.861456 
L 134.637592 293.780095 
L 135.723393 290.901652 
L 136.809194 294.155627 
L 137.894995 294.014016 
L 138.980797 294.308445 
L 140.066598 292.286388 
L 141.152399 294.598576 
L 142.2382 294.468664 
L 143.324001 294.147877 
L 144.409802 294.680829 
L 145.495604 292.97778 
L 146.581405 294.515117 
L 147.667206 294.332683 
L 148.753007 293.715804 
L 149.838808 294.653145 
L 150.924609 294.709963 
L 152.01041 294.462718 
L 154.182013 294.836163 
L 156.353615 294.971913 
L 157.439416 294.423672 
L 158.525217 294.949537 
L 159.611019 294.370086 
L 160.69682 294.695409 
L 161.782621 294.218165 
L 162.868422 294.767348 
L 163.954223 294.841826 
L 165.040024 293.639291 
L 166.125825 294.524032 
L 167.211627 290.739016 
L 168.297428 293.285074 
L 169.383229 292.054023 
L 170.46903 294.176345 
L 171.554831 292.663494 
L 172.640632 294.2846 
L 173.726434 293.224925 
L 174.812235 294.543955 
L 175.898036 291.825524 
L 176.983837 291.275584 
L 178.069638 294.537637 
L 179.155439 292.964472 
L 180.24124 291.693809 
L 181.327042 293.422051 
L 182.412843 293.919579 
L 183.498644 291.422594 
L 184.584445 293.141573 
L 185.670246 293.68471 
L 186.756047 293.02065 
L 187.841849 293.000977 
L 188.92765 293.874959 
L 190.013451 293.536541 
L 192.185053 294.211513 
L 193.270854 292.423353 
L 195.442457 294.158282 
L 196.528258 293.523488 
L 197.614059 290.841805 
L 199.785661 294.038727 
L 200.871462 292.610865 
L 201.957264 294.115097 
L 203.043065 294.425536 
L 204.128866 293.896689 
L 205.214667 294.321154 
L 206.300468 293.719774 
L 207.386269 292.905081 
L 208.472071 293.52507 
L 209.557872 293.743433 
L 210.643673 292.481487 
L 211.729474 293.70599 
L 212.815275 294.219641 
L 213.901076 292.222889 
L 214.986877 292.414487 
L 216.072679 293.364089 
L 217.15848 294.613081 
L 218.244281 293.95372 
L 219.330082 292.704092 
L 220.415883 294.071608 
L 221.501684 293.569567 
L 223.673287 293.821855 
L 224.759088 294.411038 
L 225.844889 294.405834 
L 226.93069 293.384673 
L 228.016491 293.847681 
L 229.102292 293.293526 
L 230.188094 294.480984 
L 231.273895 293.556002 
L 232.359696 293.785632 
L 233.445497 294.582331 
L 234.531298 294.52237 
L 235.617099 294.610383 
L 236.702901 294.208131 
L 237.788702 294.399473 
L 238.874503 294.399669 
L 239.960304 294.101991 
L 241.046105 294.41865 
L 242.131906 294.406066 
L 243.217708 293.425352 
L 244.303509 291.056052 
L 245.38931 293.093726 
L 246.475111 294.056327 
L 247.560912 294.605128 
L 248.646713 292.07324 
L 249.732514 294.413542 
L 250.818316 294.839732 
L 251.904117 294.072152 
L 252.989918 294.518397 
L 254.075719 294.515955 
L 255.16152 294.804755 
L 256.247321 294.217196 
L 257.333123 294.167041 
L 258.418924 293.14422 
L 260.590526 294.722925 
L 261.676327 293.164972 
L 262.762128 294.36781 
L 263.847929 293.936661 
L 264.933731 294.149152 
L 266.019532 293.73616 
L 267.105333 294.270202 
L 268.191134 294.578923 
L 269.276935 294.599562 
L 270.362736 292.906922 
L 271.448538 293.763544 
L 272.534339 294.312046 
L 273.62014 294.562313 
L 274.705941 293.756717 
L 275.791742 294.291543 
L 276.877543 294.557772 
L 277.963344 293.668108 
L 279.049146 294.273126 
L 280.134947 294.52087 
L 281.220748 292.51138 
L 282.306549 294.176025 
L 283.39235 293.258695 
L 284.478151 294.264528 
L 285.563953 293.375291 
L 286.649754 293.188365 
L 287.735555 293.726586 
L 288.821356 294.395977 
L 289.907157 292.97097 
L 290.992958 293.749577 
L 292.07876 293.4696 
L 293.164561 292.468992 
L 294.250362 293.676258 
L 295.336163 293.644097 
L 296.421964 291.973113 
L 297.507765 292.945645 
L 298.593566 290.875652 
L 299.679368 292.904162 
L 300.765169 292.610127 
L 301.85097 293.941969 
L 302.936771 292.910187 
L 304.022572 292.6309 
L 305.108373 293.597131 
L 306.194175 292.402734 
L 307.279976 291.650529 
L 308.365777 291.151304 
L 309.451578 294.123088 
L 311.62318 291.304078 
L 312.708981 293.353856 
L 313.794783 294.252473 
L 314.880584 294.135384 
L 315.966385 292.605803 
L 317.052186 294.587247 
L 318.137987 291.971139 
L 319.223788 293.444519 
L 320.30959 293.729038 
L 321.395391 294.152454 
L 322.481192 293.830034 
L 323.566993 293.966464 
L 324.652794 294.65993 
L 325.738595 293.541628 
L 326.824396 294.764731 
L 327.910198 293.159623 
L 328.995999 293.956682 
L 330.0818 294.107986 
L 331.167601 291.364136 
L 332.253402 294.413849 
L 333.339203 293.2126 
L 334.425005 294.675855 
L 335.510806 294.035857 
L 336.596607 294.815525 
L 337.682408 294.358514 
L 338.768209 291.982148 
L 339.85401 293.127033 
L 340.939811 293.911147 
L 342.025613 294.43294 
L 343.111414 294.075142 
L 344.197215 293.29948 
L 345.283016 294.66963 
L 346.368817 293.966808 
L 347.454618 294.73583 
L 348.54042 294.578284 
L 349.626221 293.5395 
L 351.797823 294.847296 
L 352.883624 294.315954 
L 353.969425 292.154214 
L 355.055227 292.951339 
L 356.141028 294.496549 
L 357.226829 293.699573 
L 358.31263 293.452482 
L 359.398431 291.777125 
L 360.484232 294.831789 
L 361.570033 293.982891 
L 362.655835 294.113211 
L 363.741636 293.189075 
L 364.827437 294.237819 
L 365.913238 293.273128 
L 366.999039 293.283299 
L 368.08484 294.232091 
L 369.170642 294.497724 
L 371.342244 294.355268 
L 372.428045 294.559604 
L 373.513846 293.522566 
L 374.599647 294.445705 
L 375.685448 290.336708 
L 376.77125 294.553582 
L 377.857051 294.524796 
L 378.942852 293.470357 
L 380.028653 293.148012 
L 381.114454 293.864862 
L 382.200255 294.716495 
L 383.286057 294.619131 
L 384.371858 294.824076 
L 385.457659 294.767157 
L 386.54346 294.922833 
L 387.629261 293.69553 
L 388.715062 294.580279 
L 389.800863 294.778117 
L 391.972466 294.908235 
L 393.058267 294.491999 
L 394.144068 294.777414 
L 395.229869 293.404741 
L 396.31567 294.923597 
L 397.401472 294.828681 
L 398.487273 294.899905 
L 398.487273 294.899905 
" clip-path="url(#p6ff8fa468b)" style="fill: none; stroke: #0000ff; stroke-width: 1.5; stroke-linecap: square"/>
   </g>
   <g id="patch_3">
    <path d="M 57.6 307.584 
L 57.6 41.472 
" style="fill: none; stroke: #000000; stroke-width: 0.8; stroke-linejoin: miter; stroke-linecap: square"/>
   </g>
   <g id="patch_4">
    <path d="M 414.72 307.584 
L 414.72 41.472 
" style="fill: none; stroke: #000000; stroke-width: 0.8; stroke-linejoin: miter; stroke-linecap: square"/>
   </g>
   <g id="patch_5">
    <path d="M 57.6 307.584 
L 414.72 307.584 
" style="fill: none; stroke: #000000; stroke-width: 0.8; stroke-linejoin: miter; stroke-linecap: square"/>
   </g>
   <g id="patch_6">
    <path d="M 57.6 41.472 
L 414.72 41.472 
" style="fill: none; stroke: #000000; stroke-width: 0.8; stroke-linejoin: miter; stroke-linecap: square"/>
   </g>
   <g id="text_16">
    <!-- Loss -->
    <g transform="translate(222.999375 35.472) scale(0.12 -0.12)">
     <use xlink:href="#DejaVuSans-4c"/>
     <use xlink:href="#DejaVuSans-6f" x="53.962891"/>
     <use xlink:href="#DejaVuSans-73" x="115.144531"/>
     <use xlink:href="#DejaVuSans-73" x="167.244141"/>
    </g>
   </g>
   <g id="legend_1">
    <g id="patch_7">
     <path d="M 64.6 93.506375 
L 124.959375 93.506375 
Q 126.959375 93.506375 126.959375 91.506375 
L 126.959375 48.472 
Q 126.959375 46.472 124.959375 46.472 
L 64.6 46.472 
Q 62.6 46.472 62.6 48.472 
L 62.6 91.506375 
Q 62.6 93.506375 64.6 93.506375 
z
" style="fill: #ffffff; opacity: 0.8; stroke: #cccccc; stroke-linejoin: miter"/>
    </g>
    <g id="line2d_17">
     <path d="M 66.6 54.570438 
L 76.6 54.570438 
L 86.6 54.570438 
" style="fill: none; stroke: #008000; stroke-width: 1.5; stroke-linecap: square"/>
    </g>
    <g id="text_17">
     <!-- min -->
     <g transform="translate(94.6 58.070438) scale(0.1 -0.1)">
      <defs>
       <path id="DejaVuSans-6d" d="M 3328 2828 
Q 3544 3216 3844 3400 
Q 4144 3584 4550 3584 
Q 5097 3584 5394 3201 
Q 5691 2819 5691 2113 
L 5691 0 
L 5113 0 
L 5113 2094 
Q 5113 2597 4934 2840 
Q 4756 3084 4391 3084 
Q 3944 3084 3684 2787 
Q 3425 2491 3425 1978 
L 3425 0 
L 2847 0 
L 2847 2094 
Q 2847 2600 2669 2842 
Q 2491 3084 2119 3084 
Q 1678 3084 1418 2786 
Q 1159 2488 1159 1978 
L 1159 0 
L 581 0 
L 581 3500 
L 1159 3500 
L 1159 2956 
Q 1356 3278 1631 3431 
Q 1906 3584 2284 3584 
Q 2666 3584 2933 3390 
Q 3200 3197 3328 2828 
z
" transform="scale(0.015625)"/>
       <path id="DejaVuSans-6e" d="M 3513 2113 
L 3513 0 
L 2938 0 
L 2938 2094 
Q 2938 2591 2744 2837 
Q 2550 3084 2163 3084 
Q 1697 3084 1428 2787 
Q 1159 2491 1159 1978 
L 1159 0 
L 581 0 
L 581 3500 
L 1159 3500 
L 1159 2956 
Q 1366 3272 1645 3428 
Q 1925 3584 2291 3584 
Q 2894 3584 3203 3211 
Q 3513 2838 3513 2113 
z
" transform="scale(0.015625)"/>
      </defs>
      <use xlink:href="#DejaVuSans-6d"/>
      <use xlink:href="#DejaVuSans-69" x="97.412109"/>
      <use xlink:href="#DejaVuSans-6e" x="125.195312"/>
     </g>
    </g>
    <g id="line2d_18">
     <path d="M 66.6 69.248563 
L 76.6 69.248563 
L 86.6 69.248563 
" style="fill: none; stroke: #ff0000; stroke-width: 1.5; stroke-linecap: square"/>
    </g>
    <g id="text_18">
     <!-- max -->
     <g transform="translate(94.6 72.748563) scale(0.1 -0.1)">
      <defs>
       <path id="DejaVuSans-61" d="M 2194 1759 
Q 1497 1759 1228 1600 
Q 959 1441 959 1056 
Q 959 750 1161 570 
Q 1363 391 1709 391 
Q 2188 391 2477 730 
Q 2766 1069 2766 1631 
L 2766 1759 
L 2194 1759 
z
M 3341 1997 
L 3341 0 
L 2766 0 
L 2766 531 
Q 2569 213 2275 61 
Q 1981 -91 1556 -91 
Q 1019 -91 701 211 
Q 384 513 384 1019 
Q 384 1609 779 1909 
Q 1175 2209 1959 2209 
L 2766 2209 
L 2766 2266 
Q 2766 2663 2505 2880 
Q 2244 3097 1772 3097 
Q 1472 3097 1187 3025 
Q 903 2953 641 2809 
L 641 3341 
Q 956 3463 1253 3523 
Q 1550 3584 1831 3584 
Q 2591 3584 2966 3190 
Q 3341 2797 3341 1997 
z
" transform="scale(0.015625)"/>
       <path id="DejaVuSans-78" d="M 3513 3500 
L 2247 1797 
L 3578 0 
L 2900 0 
L 1881 1375 
L 863 0 
L 184 0 
L 1544 1831 
L 300 3500 
L 978 3500 
L 1906 2253 
L 2834 3500 
L 3513 3500 
z
" transform="scale(0.015625)"/>
      </defs>
      <use xlink:href="#DejaVuSans-6d"/>
      <use xlink:href="#DejaVuSans-61" x="97.412109"/>
      <use xlink:href="#DejaVuSans-78" x="158.691406"/>
     </g>
    </g>
    <g id="line2d_19">
     <path d="M 66.6 83.926688 
L 76.6 83.926688 
L 86.6 83.926688 
" style="fill: none; stroke: #0000ff; stroke-width: 1.5; stroke-linecap: square"/>
    </g>
    <g id="text_19">
     <!-- mean -->
     <g transform="translate(94.6 87.426688) scale(0.1 -0.1)">
      <use xlink:href="#DejaVuSans-6d"/>
      <use xlink:href="#DejaVuSans-65" x="97.412109"/>
      <use xlink:href="#DejaVuSans-61" x="158.935547"/>
      <use xlink:href="#DejaVuSans-6e" x="220.214844"/>
     </g>
    </g>
   </g>
  </g>
 </g>
 <defs>
  <clipPath id="p6ff8fa468b">
   <rect x="57.6" y="41.472" width="357.12" height="266.112"/>
  </clipPath>
 </defs>
</svg>
