<?xml version="1.0" encoding="utf-8" standalone="no"?>
<!DOCTYPE svg PUBLIC "-//W3C//DTD SVG 1.1//EN"
  "http://www.w3.org/Graphics/SVG/1.1/DTD/svg11.dtd">
<svg xmlns:xlink="http://www.w3.org/1999/xlink" width="460.8pt" height="345.6pt" viewBox="0 0 460.8 345.6" xmlns="http://www.w3.org/2000/svg" version="1.1">
 <metadata>
  <rdf:RDF xmlns:dc="http://purl.org/dc/elements/1.1/" xmlns:cc="http://creativecommons.org/ns#" xmlns:rdf="http://www.w3.org/1999/02/22-rdf-syntax-ns#">
   <cc:Work>
    <dc:type rdf:resource="http://purl.org/dc/dcmitype/StillImage"/>
    <dc:date>2023-07-22T11:58:56.920997</dc:date>
    <dc:format>image/svg+xml</dc:format>
    <dc:creator>
     <cc:Agent>
      <dc:title>Matplotlib v3.7.2, https://matplotlib.org/</dc:title>
     </cc:Agent>
    </dc:creator>
   </cc:Work>
  </rdf:RDF>
 </metadata>
 <defs>
  <style type="text/css">*{stroke-linejoin: round; stroke-linecap: butt}</style>
 </defs>
 <g id="figure_1">
  <g id="patch_1">
   <path d="M 0 345.6 
L 460.8 345.6 
L 460.8 0 
L 0 0 
z
" style="fill: #ffffff"/>
  </g>
  <g id="axes_1">
   <g id="patch_2">
    <path d="M 57.6 307.584 
L 414.72 307.584 
L 414.72 41.472 
L 57.6 41.472 
z
" style="fill: #ffffff"/>
   </g>
   <g id="matplotlib.axis_1">
    <g id="xtick_1">
     <g id="line2d_1">
      <defs>
       <path id="m6e83f8185d" d="M 0 0 
L 0 3.5 
" style="stroke: #000000; stroke-width: 0.8"/>
      </defs>
      <g>
       <use xlink:href="#m6e83f8185d" x="73.832727" y="307.584" style="stroke: #000000; stroke-width: 0.8"/>
      </g>
     </g>
     <g id="text_1">
      <!-- 0 -->
      <g transform="translate(70.651477 322.182437) scale(0.1 -0.1)">
       <defs>
        <path id="DejaVuSans-30" d="M 2034 4250 
Q 1547 4250 1301 3770 
Q 1056 3291 1056 2328 
Q 1056 1369 1301 889 
Q 1547 409 2034 409 
Q 2525 409 2770 889 
Q 3016 1369 3016 2328 
Q 3016 3291 2770 3770 
Q 2525 4250 2034 4250 
z
M 2034 4750 
Q 2819 4750 3233 4129 
Q 3647 3509 3647 2328 
Q 3647 1150 3233 529 
Q 2819 -91 2034 -91 
Q 1250 -91 836 529 
Q 422 1150 422 2328 
Q 422 3509 836 4129 
Q 1250 4750 2034 4750 
z
" transform="scale(0.015625)"/>
       </defs>
       <use xlink:href="#DejaVuSans-30"/>
      </g>
     </g>
    </g>
    <g id="xtick_2">
     <g id="line2d_2">
      <g>
       <use xlink:href="#m6e83f8185d" x="128.122785" y="307.584" style="stroke: #000000; stroke-width: 0.8"/>
      </g>
     </g>
     <g id="text_2">
      <!-- 50 -->
      <g transform="translate(121.760285 322.182437) scale(0.1 -0.1)">
       <defs>
        <path id="DejaVuSans-35" d="M 691 4666 
L 3169 4666 
L 3169 4134 
L 1269 4134 
L 1269 2991 
Q 1406 3038 1543 3061 
Q 1681 3084 1819 3084 
Q 2600 3084 3056 2656 
Q 3513 2228 3513 1497 
Q 3513 744 3044 326 
Q 2575 -91 1722 -91 
Q 1428 -91 1123 -41 
Q 819 9 494 109 
L 494 744 
Q 775 591 1075 516 
Q 1375 441 1709 441 
Q 2250 441 2565 725 
Q 2881 1009 2881 1497 
Q 2881 1984 2565 2268 
Q 2250 2553 1709 2553 
Q 1456 2553 1204 2497 
Q 953 2441 691 2322 
L 691 4666 
z
" transform="scale(0.015625)"/>
       </defs>
       <use xlink:href="#DejaVuSans-35"/>
       <use xlink:href="#DejaVuSans-30" x="63.623047"/>
      </g>
     </g>
    </g>
    <g id="xtick_3">
     <g id="line2d_3">
      <g>
       <use xlink:href="#m6e83f8185d" x="182.412843" y="307.584" style="stroke: #000000; stroke-width: 0.8"/>
      </g>
     </g>
     <g id="text_3">
      <!-- 100 -->
      <g transform="translate(172.869093 322.182437) scale(0.1 -0.1)">
       <defs>
        <path id="DejaVuSans-31" d="M 794 531 
L 1825 531 
L 1825 4091 
L 703 3866 
L 703 4441 
L 1819 4666 
L 2450 4666 
L 2450 531 
L 3481 531 
L 3481 0 
L 794 0 
L 794 531 
z
" transform="scale(0.015625)"/>
       </defs>
       <use xlink:href="#DejaVuSans-31"/>
       <use xlink:href="#DejaVuSans-30" x="63.623047"/>
       <use xlink:href="#DejaVuSans-30" x="127.246094"/>
      </g>
     </g>
    </g>
    <g id="xtick_4">
     <g id="line2d_4">
      <g>
       <use xlink:href="#m6e83f8185d" x="236.702901" y="307.584" style="stroke: #000000; stroke-width: 0.8"/>
      </g>
     </g>
     <g id="text_4">
      <!-- 150 -->
      <g transform="translate(227.159151 322.182437) scale(0.1 -0.1)">
       <use xlink:href="#DejaVuSans-31"/>
       <use xlink:href="#DejaVuSans-35" x="63.623047"/>
       <use xlink:href="#DejaVuSans-30" x="127.246094"/>
      </g>
     </g>
    </g>
    <g id="xtick_5">
     <g id="line2d_5">
      <g>
       <use xlink:href="#m6e83f8185d" x="290.992958" y="307.584" style="stroke: #000000; stroke-width: 0.8"/>
      </g>
     </g>
     <g id="text_5">
      <!-- 200 -->
      <g transform="translate(281.449208 322.182437) scale(0.1 -0.1)">
       <defs>
        <path id="DejaVuSans-32" d="M 1228 531 
L 3431 531 
L 3431 0 
L 469 0 
L 469 531 
Q 828 903 1448 1529 
Q 2069 2156 2228 2338 
Q 2531 2678 2651 2914 
Q 2772 3150 2772 3378 
Q 2772 3750 2511 3984 
Q 2250 4219 1831 4219 
Q 1534 4219 1204 4116 
Q 875 4013 500 3803 
L 500 4441 
Q 881 4594 1212 4672 
Q 1544 4750 1819 4750 
Q 2544 4750 2975 4387 
Q 3406 4025 3406 3419 
Q 3406 3131 3298 2873 
Q 3191 2616 2906 2266 
Q 2828 2175 2409 1742 
Q 1991 1309 1228 531 
z
" transform="scale(0.015625)"/>
       </defs>
       <use xlink:href="#DejaVuSans-32"/>
       <use xlink:href="#DejaVuSans-30" x="63.623047"/>
       <use xlink:href="#DejaVuSans-30" x="127.246094"/>
      </g>
     </g>
    </g>
    <g id="xtick_6">
     <g id="line2d_6">
      <g>
       <use xlink:href="#m6e83f8185d" x="345.283016" y="307.584" style="stroke: #000000; stroke-width: 0.8"/>
      </g>
     </g>
     <g id="text_6">
      <!-- 250 -->
      <g transform="translate(335.739266 322.182437) scale(0.1 -0.1)">
       <use xlink:href="#DejaVuSans-32"/>
       <use xlink:href="#DejaVuSans-35" x="63.623047"/>
       <use xlink:href="#DejaVuSans-30" x="127.246094"/>
      </g>
     </g>
    </g>
    <g id="xtick_7">
     <g id="line2d_7">
      <g>
       <use xlink:href="#m6e83f8185d" x="399.573074" y="307.584" style="stroke: #000000; stroke-width: 0.8"/>
      </g>
     </g>
     <g id="text_7">
      <!-- 300 -->
      <g transform="translate(390.029324 322.182437) scale(0.1 -0.1)">
       <defs>
        <path id="DejaVuSans-33" d="M 2597 2516 
Q 3050 2419 3304 2112 
Q 3559 1806 3559 1356 
Q 3559 666 3084 287 
Q 2609 -91 1734 -91 
Q 1441 -91 1130 -33 
Q 819 25 488 141 
L 488 750 
Q 750 597 1062 519 
Q 1375 441 1716 441 
Q 2309 441 2620 675 
Q 2931 909 2931 1356 
Q 2931 1769 2642 2001 
Q 2353 2234 1838 2234 
L 1294 2234 
L 1294 2753 
L 1863 2753 
Q 2328 2753 2575 2939 
Q 2822 3125 2822 3475 
Q 2822 3834 2567 4026 
Q 2313 4219 1838 4219 
Q 1578 4219 1281 4162 
Q 984 4106 628 3988 
L 628 4550 
Q 988 4650 1302 4700 
Q 1616 4750 1894 4750 
Q 2613 4750 3031 4423 
Q 3450 4097 3450 3541 
Q 3450 3153 3228 2886 
Q 3006 2619 2597 2516 
z
" transform="scale(0.015625)"/>
       </defs>
       <use xlink:href="#DejaVuSans-33"/>
       <use xlink:href="#DejaVuSans-30" x="63.623047"/>
       <use xlink:href="#DejaVuSans-30" x="127.246094"/>
      </g>
     </g>
    </g>
    <g id="text_8">
     <!-- Episode -->
     <g transform="translate(216.5225 335.860562) scale(0.1 -0.1)">
      <defs>
       <path id="DejaVuSans-45" d="M 628 4666 
L 3578 4666 
L 3578 4134 
L 1259 4134 
L 1259 2753 
L 3481 2753 
L 3481 2222 
L 1259 2222 
L 1259 531 
L 3634 531 
L 3634 0 
L 628 0 
L 628 4666 
z
" transform="scale(0.015625)"/>
       <path id="DejaVuSans-70" d="M 1159 525 
L 1159 -1331 
L 581 -1331 
L 581 3500 
L 1159 3500 
L 1159 2969 
Q 1341 3281 1617 3432 
Q 1894 3584 2278 3584 
Q 2916 3584 3314 3078 
Q 3713 2572 3713 1747 
Q 3713 922 3314 415 
Q 2916 -91 2278 -91 
Q 1894 -91 1617 61 
Q 1341 213 1159 525 
z
M 3116 1747 
Q 3116 2381 2855 2742 
Q 2594 3103 2138 3103 
Q 1681 3103 1420 2742 
Q 1159 2381 1159 1747 
Q 1159 1113 1420 752 
Q 1681 391 2138 391 
Q 2594 391 2855 752 
Q 3116 1113 3116 1747 
z
" transform="scale(0.015625)"/>
       <path id="DejaVuSans-69" d="M 603 3500 
L 1178 3500 
L 1178 0 
L 603 0 
L 603 3500 
z
M 603 4863 
L 1178 4863 
L 1178 4134 
L 603 4134 
L 603 4863 
z
" transform="scale(0.015625)"/>
       <path id="DejaVuSans-73" d="M 2834 3397 
L 2834 2853 
Q 2591 2978 2328 3040 
Q 2066 3103 1784 3103 
Q 1356 3103 1142 2972 
Q 928 2841 928 2578 
Q 928 2378 1081 2264 
Q 1234 2150 1697 2047 
L 1894 2003 
Q 2506 1872 2764 1633 
Q 3022 1394 3022 966 
Q 3022 478 2636 193 
Q 2250 -91 1575 -91 
Q 1294 -91 989 -36 
Q 684 19 347 128 
L 347 722 
Q 666 556 975 473 
Q 1284 391 1588 391 
Q 1994 391 2212 530 
Q 2431 669 2431 922 
Q 2431 1156 2273 1281 
Q 2116 1406 1581 1522 
L 1381 1569 
Q 847 1681 609 1914 
Q 372 2147 372 2553 
Q 372 3047 722 3315 
Q 1072 3584 1716 3584 
Q 2034 3584 2315 3537 
Q 2597 3491 2834 3397 
z
" transform="scale(0.015625)"/>
       <path id="DejaVuSans-6f" d="M 1959 3097 
Q 1497 3097 1228 2736 
Q 959 2375 959 1747 
Q 959 1119 1226 758 
Q 1494 397 1959 397 
Q 2419 397 2687 759 
Q 2956 1122 2956 1747 
Q 2956 2369 2687 2733 
Q 2419 3097 1959 3097 
z
M 1959 3584 
Q 2709 3584 3137 3096 
Q 3566 2609 3566 1747 
Q 3566 888 3137 398 
Q 2709 -91 1959 -91 
Q 1206 -91 779 398 
Q 353 888 353 1747 
Q 353 2609 779 3096 
Q 1206 3584 1959 3584 
z
" transform="scale(0.015625)"/>
       <path id="DejaVuSans-64" d="M 2906 2969 
L 2906 4863 
L 3481 4863 
L 3481 0 
L 2906 0 
L 2906 525 
Q 2725 213 2448 61 
Q 2172 -91 1784 -91 
Q 1150 -91 751 415 
Q 353 922 353 1747 
Q 353 2572 751 3078 
Q 1150 3584 1784 3584 
Q 2172 3584 2448 3432 
Q 2725 3281 2906 2969 
z
M 947 1747 
Q 947 1113 1208 752 
Q 1469 391 1925 391 
Q 2381 391 2643 752 
Q 2906 1113 2906 1747 
Q 2906 2381 2643 2742 
Q 2381 3103 1925 3103 
Q 1469 3103 1208 2742 
Q 947 2381 947 1747 
z
" transform="scale(0.015625)"/>
       <path id="DejaVuSans-65" d="M 3597 1894 
L 3597 1613 
L 953 1613 
Q 991 1019 1311 708 
Q 1631 397 2203 397 
Q 2534 397 2845 478 
Q 3156 559 3463 722 
L 3463 178 
Q 3153 47 2828 -22 
Q 2503 -91 2169 -91 
Q 1331 -91 842 396 
Q 353 884 353 1716 
Q 353 2575 817 3079 
Q 1281 3584 2069 3584 
Q 2775 3584 3186 3129 
Q 3597 2675 3597 1894 
z
M 3022 2063 
Q 3016 2534 2758 2815 
Q 2500 3097 2075 3097 
Q 1594 3097 1305 2825 
Q 1016 2553 972 2059 
L 3022 2063 
z
" transform="scale(0.015625)"/>
      </defs>
      <use xlink:href="#DejaVuSans-45"/>
      <use xlink:href="#DejaVuSans-70" x="63.183594"/>
      <use xlink:href="#DejaVuSans-69" x="126.660156"/>
      <use xlink:href="#DejaVuSans-73" x="154.443359"/>
      <use xlink:href="#DejaVuSans-6f" x="206.542969"/>
      <use xlink:href="#DejaVuSans-64" x="267.724609"/>
      <use xlink:href="#DejaVuSans-65" x="331.201172"/>
     </g>
    </g>
   </g>
   <g id="matplotlib.axis_2">
    <g id="ytick_1">
     <g id="line2d_8">
      <defs>
       <path id="m3cbfe28937" d="M 0 0 
L -3.5 0 
" style="stroke: #000000; stroke-width: 0.8"/>
      </defs>
      <g>
       <use xlink:href="#m3cbfe28937" x="57.6" y="295.488" style="stroke: #000000; stroke-width: 0.8"/>
      </g>
     </g>
     <g id="text_9">
      <!-- 0.0 -->
      <g transform="translate(34.696875 299.287219) scale(0.1 -0.1)">
       <defs>
        <path id="DejaVuSans-2e" d="M 684 794 
L 1344 794 
L 1344 0 
L 684 0 
L 684 794 
z
" transform="scale(0.015625)"/>
       </defs>
       <use xlink:href="#DejaVuSans-30"/>
       <use xlink:href="#DejaVuSans-2e" x="63.623047"/>
       <use xlink:href="#DejaVuSans-30" x="95.410156"/>
      </g>
     </g>
    </g>
    <g id="ytick_2">
     <g id="line2d_9">
      <g>
       <use xlink:href="#m3cbfe28937" x="57.6" y="239.019935" style="stroke: #000000; stroke-width: 0.8"/>
      </g>
     </g>
     <g id="text_10">
      <!-- 0.1 -->
      <g transform="translate(34.696875 242.819154) scale(0.1 -0.1)">
       <use xlink:href="#DejaVuSans-30"/>
       <use xlink:href="#DejaVuSans-2e" x="63.623047"/>
       <use xlink:href="#DejaVuSans-31" x="95.410156"/>
      </g>
     </g>
    </g>
    <g id="ytick_3">
     <g id="line2d_10">
      <g>
       <use xlink:href="#m3cbfe28937" x="57.6" y="182.55187" style="stroke: #000000; stroke-width: 0.8"/>
      </g>
     </g>
     <g id="text_11">
      <!-- 0.2 -->
      <g transform="translate(34.696875 186.351089) scale(0.1 -0.1)">
       <use xlink:href="#DejaVuSans-30"/>
       <use xlink:href="#DejaVuSans-2e" x="63.623047"/>
       <use xlink:href="#DejaVuSans-32" x="95.410156"/>
      </g>
     </g>
    </g>
    <g id="ytick_4">
     <g id="line2d_11">
      <g>
       <use xlink:href="#m3cbfe28937" x="57.6" y="126.083805" style="stroke: #000000; stroke-width: 0.8"/>
      </g>
     </g>
     <g id="text_12">
      <!-- 0.3 -->
      <g transform="translate(34.696875 129.883024) scale(0.1 -0.1)">
       <use xlink:href="#DejaVuSans-30"/>
       <use xlink:href="#DejaVuSans-2e" x="63.623047"/>
       <use xlink:href="#DejaVuSans-33" x="95.410156"/>
      </g>
     </g>
    </g>
    <g id="ytick_5">
     <g id="line2d_12">
      <g>
       <use xlink:href="#m3cbfe28937" x="57.6" y="69.61574" style="stroke: #000000; stroke-width: 0.8"/>
      </g>
     </g>
     <g id="text_13">
      <!-- 0.4 -->
      <g transform="translate(34.696875 73.414959) scale(0.1 -0.1)">
       <defs>
        <path id="DejaVuSans-34" d="M 2419 4116 
L 825 1625 
L 2419 1625 
L 2419 4116 
z
M 2253 4666 
L 3047 4666 
L 3047 1625 
L 3713 1625 
L 3713 1100 
L 3047 1100 
L 3047 0 
L 2419 0 
L 2419 1100 
L 313 1100 
L 313 1709 
L 2253 4666 
z
" transform="scale(0.015625)"/>
       </defs>
       <use xlink:href="#DejaVuSans-30"/>
       <use xlink:href="#DejaVuSans-2e" x="63.623047"/>
       <use xlink:href="#DejaVuSans-34" x="95.410156"/>
      </g>
     </g>
    </g>
    <g id="text_14">
     <!-- Loss -->
     <g transform="translate(28.617188 185.495187) rotate(-90) scale(0.1 -0.1)">
      <defs>
       <path id="DejaVuSans-4c" d="M 628 4666 
L 1259 4666 
L 1259 531 
L 3531 531 
L 3531 0 
L 628 0 
L 628 4666 
z
" transform="scale(0.015625)"/>
      </defs>
      <use xlink:href="#DejaVuSans-4c"/>
      <use xlink:href="#DejaVuSans-6f" x="53.962891"/>
      <use xlink:href="#DejaVuSans-73" x="115.144531"/>
      <use xlink:href="#DejaVuSans-73" x="167.244141"/>
     </g>
    </g>
   </g>
   <g id="line2d_13">
    <path d="M 73.832727 295.488 
L 207.386269 295.488 
L 208.472071 295.104608 
L 209.557872 295.488 
L 277.963344 295.488 
L 279.049146 295.239029 
L 280.134947 295.488 
L 281.220748 295.488 
L 282.306549 295.266427 
L 283.39235 295.488 
L 288.821356 295.488 
L 289.907157 295.228637 
L 290.992958 295.488 
L 310.537379 295.488 
L 311.62318 295.238257 
L 312.708981 295.488 
L 315.966385 295.488 
L 317.052186 295.1882 
L 318.137987 295.488 
L 319.223788 295.158618 
L 320.30959 295.488 
L 328.995999 295.488 
L 330.0818 295.2833 
L 331.167601 295.488 
L 334.425005 295.488 
L 335.510806 295.291394 
L 336.596607 295.488 
L 340.939811 295.488 
L 342.025613 295.281664 
L 343.111414 295.488 
L 345.283016 295.488 
L 346.368817 295.283365 
L 347.454618 295.488 
L 350.712022 295.488 
L 351.797823 295.32679 
L 352.883624 295.488 
L 353.969425 295.488 
L 355.055227 295.330016 
L 356.141028 295.488 
L 357.226829 295.336372 
L 358.31263 295.488 
L 362.655835 295.488 
L 363.741636 295.368641 
L 364.827437 295.488 
L 375.685448 295.488 
L 376.77125 295.35198 
L 377.857051 295.488 
L 398.487273 295.488 
L 398.487273 295.488 
" clip-path="url(#p7d2cccfcab)" style="fill: none; stroke: #008000; stroke-width: 1.5; stroke-linecap: square"/>
   </g>
   <g id="line2d_14">
    <path d="M 73.832727 295.488 
L 104.23516 295.488 
L 105.320961 53.568 
L 106.406762 273.79298 
L 107.492563 288.168243 
L 108.578364 291.822206 
L 109.664165 292.667741 
L 110.749967 292.359321 
L 111.835768 293.262727 
L 112.921569 293.68532 
L 114.00737 293.445637 
L 115.093171 294.166988 
L 116.178972 281.439077 
L 117.264773 289.243272 
L 118.350575 294.200394 
L 119.436376 293.921593 
L 120.522177 293.453578 
L 121.607978 293.11665 
L 122.693779 294.074918 
L 123.77958 294.224284 
L 124.865382 294.203607 
L 125.951183 290.529145 
L 127.036984 293.9359 
L 128.122785 294.286198 
L 129.208586 294.172295 
L 131.380189 294.32297 
L 132.46599 294.221611 
L 133.551791 293.80354 
L 134.637592 294.606143 
L 136.809194 294.52193 
L 137.894995 294.154011 
L 138.980797 294.380963 
L 140.066598 283.989313 
L 141.152399 293.47175 
L 142.2382 293.316494 
L 143.324001 294.266587 
L 144.409802 292.089832 
L 145.495604 290.184562 
L 146.581405 286.527207 
L 147.667206 293.29989 
L 148.753007 293.684244 
L 149.838808 292.084125 
L 150.924609 275.447428 
L 152.01041 286.529719 
L 153.096212 286.998514 
L 154.182013 292.874701 
L 155.267814 292.500778 
L 156.353615 292.255067 
L 157.439416 290.883024 
L 158.525217 286.235686 
L 159.611019 285.871366 
L 160.69682 288.151744 
L 161.782621 288.778287 
L 162.868422 291.885276 
L 163.954223 291.024084 
L 165.040024 287.359708 
L 166.125825 292.430255 
L 167.211627 282.278076 
L 168.297428 288.183315 
L 169.383229 283.916815 
L 170.46903 288.121915 
L 171.554831 287.018129 
L 172.640632 282.851323 
L 173.726434 287.527314 
L 174.812235 285.445238 
L 175.898036 273.487473 
L 176.983837 287.608279 
L 178.069638 285.710766 
L 179.155439 284.88289 
L 180.24124 281.698382 
L 181.327042 283.921636 
L 182.412843 283.391566 
L 183.498644 280.616775 
L 184.584445 284.328175 
L 185.670246 281.970632 
L 186.756047 283.999414 
L 187.841849 285.242136 
L 188.92765 285.500093 
L 190.013451 288.507327 
L 191.099252 284.183453 
L 192.185053 288.881283 
L 193.270854 279.276845 
L 194.356656 284.270871 
L 195.442457 285.570242 
L 196.528258 280.361777 
L 197.614059 281.243265 
L 198.69986 283.574548 
L 199.785661 286.890752 
L 200.871462 280.08168 
L 201.957264 286.429348 
L 203.043065 280.426259 
L 204.128866 285.02371 
L 205.214667 286.402106 
L 206.300468 282.646971 
L 207.386269 281.262603 
L 208.472071 282.751911 
L 209.557872 281.719566 
L 210.643673 284.014097 
L 211.729474 279.343989 
L 212.815275 283.609111 
L 213.901076 276.38983 
L 214.986877 283.253085 
L 216.072679 284.199729 
L 217.15848 278.574754 
L 218.244281 287.143566 
L 219.330082 283.978357 
L 220.415883 280.070241 
L 221.501684 279.833221 
L 222.587486 284.294455 
L 223.673287 285.352765 
L 224.759088 284.056639 
L 225.844889 285.386217 
L 226.93069 280.714369 
L 228.016491 283.851545 
L 229.102292 282.013253 
L 230.188094 281.533534 
L 231.273895 288.208808 
L 232.359696 276.117388 
L 233.445497 285.119066 
L 234.531298 285.876787 
L 235.617099 280.795783 
L 236.702901 280.16641 
L 237.788702 276.178717 
L 238.874503 276.653747 
L 239.960304 284.673297 
L 241.046105 280.073121 
L 242.131906 281.866519 
L 243.217708 283.424283 
L 244.303509 283.027752 
L 245.38931 283.869276 
L 246.475111 280.212671 
L 247.560912 273.183174 
L 248.646713 281.114713 
L 249.732514 278.759181 
L 250.818316 281.883602 
L 251.904117 283.710474 
L 252.989918 276.794684 
L 254.075719 277.492829 
L 255.16152 280.91659 
L 256.247321 280.285254 
L 257.333123 283.657649 
L 258.418924 274.656384 
L 259.504725 276.667057 
L 260.590526 277.270685 
L 261.676327 283.684107 
L 262.762128 283.280746 
L 263.847929 278.084613 
L 264.933731 278.010462 
L 266.019532 282.440121 
L 267.105333 278.771548 
L 268.191134 282.597449 
L 269.276935 283.390028 
L 270.362736 282.708962 
L 271.448538 284.017452 
L 272.534339 277.453675 
L 273.62014 283.548559 
L 274.705941 284.613887 
L 275.791742 271.507477 
L 276.877543 284.938029 
L 277.963344 281.04049 
L 279.049146 277.775822 
L 280.134947 284.300355 
L 281.220748 283.714703 
L 282.306549 284.938397 
L 283.39235 279.692675 
L 284.478151 261.899741 
L 285.563953 281.809602 
L 286.649754 265.35578 
L 287.735555 283.621994 
L 288.821356 278.774146 
L 289.907157 277.317292 
L 290.992958 279.283463 
L 292.07876 279.919441 
L 293.164561 284.037853 
L 294.250362 282.332804 
L 295.336163 282.553025 
L 296.421964 283.541864 
L 297.507765 282.136935 
L 298.593566 275.663368 
L 299.679368 275.558005 
L 300.765169 281.179292 
L 301.85097 281.650958 
L 302.936771 280.067327 
L 304.022572 281.337631 
L 305.108373 278.850085 
L 306.194175 275.422176 
L 307.279976 284.604667 
L 308.365777 282.259848 
L 309.451578 281.754099 
L 310.537379 281.786165 
L 311.62318 280.228288 
L 312.708981 282.303341 
L 313.794783 279.786229 
L 314.880584 274.271831 
L 315.966385 277.472054 
L 317.052186 272.17964 
L 318.137987 277.954288 
L 319.223788 282.867496 
L 320.30959 283.270609 
L 321.395391 282.068533 
L 322.481192 285.728891 
L 323.566993 275.47635 
L 324.652794 280.453773 
L 325.738595 280.86883 
L 326.824396 282.152018 
L 327.910198 277.3956 
L 328.995999 280.80636 
L 330.0818 281.660506 
L 331.167601 285.315052 
L 332.253402 281.04123 
L 333.339203 286.23563 
L 334.425005 284.035116 
L 335.510806 279.995437 
L 336.596607 281.887795 
L 337.682408 286.497081 
L 338.768209 282.060795 
L 339.85401 280.86719 
L 340.939811 277.551908 
L 342.025613 284.851429 
L 343.111414 286.295644 
L 344.197215 281.474637 
L 345.283016 283.393868 
L 346.368817 284.980249 
L 347.454618 283.105325 
L 348.54042 287.187468 
L 349.626221 283.915412 
L 350.712022 272.066329 
L 351.797823 275.782781 
L 352.883624 282.090103 
L 353.969425 280.827806 
L 355.055227 285.588508 
L 356.141028 285.82148 
L 357.226829 284.84485 
L 358.31263 281.349715 
L 359.398431 283.602776 
L 360.484232 288.594424 
L 361.570033 288.548847 
L 362.655835 290.549489 
L 363.741636 289.949739 
L 364.827437 285.971886 
L 365.913238 290.158543 
L 366.999039 278.304172 
L 368.08484 284.441975 
L 369.170642 286.423307 
L 370.256443 281.725714 
L 371.342244 287.732869 
L 372.428045 278.629988 
L 373.513846 288.826927 
L 374.599647 269.018237 
L 375.685448 284.996536 
L 376.77125 284.120713 
L 378.942852 289.062563 
L 380.028653 289.521163 
L 381.114454 290.993317 
L 382.200255 290.258414 
L 383.286057 282.989011 
L 384.371858 287.509497 
L 385.457659 287.096272 
L 386.54346 287.869096 
L 387.629261 279.254779 
L 388.715062 283.919105 
L 389.800863 282.329064 
L 390.886665 287.798008 
L 391.972466 287.688502 
L 393.058267 288.863864 
L 394.144068 284.895385 
L 395.229869 288.434878 
L 396.31567 289.491205 
L 397.401472 287.082788 
L 398.487273 290.167567 
L 398.487273 290.167567 
" clip-path="url(#p7d2cccfcab)" style="fill: none; stroke: #ff0000; stroke-width: 1.5; stroke-linecap: square"/>
   </g>
   <g id="line2d_15">
    <path d="M 73.832727 295.488 
L 104.23516 295.488 
L 105.320961 289.82342 
L 106.406762 293.23736 
L 107.492563 294.618897 
L 108.578364 294.968785 
L 112.921569 295.169097 
L 115.093171 295.232549 
L 116.178972 294.911617 
L 117.264773 295.16817 
L 119.436376 295.260067 
L 124.865382 295.238941 
L 125.951183 295.122042 
L 128.122785 295.249399 
L 136.809194 295.312583 
L 138.980797 295.320531 
L 140.066598 295.073093 
L 141.152399 295.247986 
L 144.409802 295.270973 
L 145.495604 295.085977 
L 146.581405 294.775821 
L 147.667206 295.204585 
L 149.838808 295.241786 
L 150.924609 294.884677 
L 153.096212 295.105928 
L 155.267814 295.191233 
L 158.525217 295.034638 
L 159.611019 294.863339 
L 160.69682 294.851641 
L 161.782621 294.339403 
L 162.868422 295.113235 
L 163.954223 295.004237 
L 166.125825 295.224921 
L 167.211627 294.673461 
L 168.297428 295.031422 
L 169.383229 294.404032 
L 170.46903 294.964754 
L 171.554831 294.983914 
L 172.640632 294.501291 
L 173.726434 294.848444 
L 174.812235 294.463121 
L 175.898036 295.003148 
L 176.983837 294.262472 
L 178.069638 294.846179 
L 179.155439 294.703826 
L 180.24124 293.825258 
L 181.327042 294.85345 
L 182.412843 294.689317 
L 183.498644 294.234153 
L 184.584445 294.817348 
L 185.670246 294.198544 
L 186.756047 294.038334 
L 187.841849 294.678615 
L 188.92765 294.274037 
L 190.013451 294.75712 
L 191.099252 294.72297 
L 192.185053 294.910076 
L 194.356656 294.44522 
L 195.442457 294.757134 
L 196.528258 293.898587 
L 197.614059 293.964398 
L 198.69986 294.588537 
L 199.785661 294.855693 
L 200.871462 294.831799 
L 201.957264 294.364091 
L 203.043065 294.711543 
L 205.214667 294.911605 
L 206.300468 293.841801 
L 207.386269 294.305616 
L 208.472071 293.218745 
L 209.557872 294.607564 
L 210.643673 294.685894 
L 212.815275 293.896355 
L 213.901076 294.553041 
L 214.986877 293.418834 
L 216.072679 294.508533 
L 218.244281 294.89675 
L 219.330082 294.358977 
L 221.501684 294.013932 
L 222.587486 294.712625 
L 224.759088 294.958201 
L 225.844889 294.713927 
L 226.93069 294.699537 
L 228.016491 293.856124 
L 229.102292 293.951832 
L 230.188094 294.167892 
L 231.273895 294.912354 
L 232.359696 293.96293 
L 233.445497 294.865556 
L 234.531298 294.931631 
L 235.617099 294.875886 
L 236.702901 294.266687 
L 237.788702 294.363073 
L 238.874503 294.20292 
L 239.960304 294.864868 
L 241.046105 294.749984 
L 242.131906 294.328206 
L 243.217708 294.893566 
L 244.303509 294.454819 
L 245.38931 294.889899 
L 246.475111 294.205965 
L 247.560912 294.753736 
L 248.646713 294.203857 
L 249.732514 294.417274 
L 250.818316 294.147831 
L 251.904117 294.721559 
L 252.989918 294.785331 
L 254.075719 293.992031 
L 255.16152 294.907603 
L 257.333123 294.929689 
L 258.418924 294.455415 
L 259.504725 294.745514 
L 262.762128 294.742919 
L 263.847929 293.679648 
L 264.933731 293.946853 
L 266.019532 294.473224 
L 267.105333 294.724302 
L 268.191134 294.368206 
L 269.276935 294.559475 
L 270.362736 294.28268 
L 271.448538 294.446602 
L 272.534339 294.376883 
L 273.62014 294.970518 
L 274.705941 294.403576 
L 275.791742 294.729085 
L 276.877543 294.66235 
L 277.963344 294.863824 
L 279.049146 293.775807 
L 280.134947 294.825522 
L 281.220748 294.936042 
L 282.306549 294.008047 
L 283.39235 294.416704 
L 284.478151 294.154227 
L 285.563953 293.650739 
L 286.649754 294.209225 
L 287.735555 294.633323 
L 288.821356 294.826122 
L 289.907157 293.308965 
L 290.992958 293.571606 
L 292.07876 294.084561 
L 293.164561 294.847458 
L 294.250362 294.748906 
L 295.336163 294.364294 
L 296.421964 294.75966 
L 297.507765 294.053886 
L 299.679368 293.654709 
L 300.765169 293.938363 
L 302.936771 294.91779 
L 304.022572 294.621557 
L 305.108373 294.509488 
L 306.194175 294.642962 
L 307.279976 295.100929 
L 308.365777 294.363655 
L 309.451578 294.714293 
L 310.537379 294.734822 
L 311.62318 294.093151 
L 312.708981 294.993196 
L 313.794783 294.802032 
L 314.880584 294.442127 
L 315.966385 294.485516 
L 317.052186 293.018761 
L 318.137987 294.265727 
L 319.223788 293.352257 
L 320.30959 294.423638 
L 321.395391 294.392751 
L 323.566993 295.039174 
L 324.652794 294.453477 
L 325.738595 294.499832 
L 326.824396 294.072286 
L 327.910198 294.356763 
L 328.995999 293.946766 
L 330.0818 294.059272 
L 331.167601 295.054077 
L 332.253402 294.783064 
L 333.339203 295.0211 
L 334.425005 294.885529 
L 335.510806 293.934457 
L 336.596607 294.786148 
L 337.682408 295.108442 
L 338.768209 294.230233 
L 339.85401 294.316246 
L 340.939811 293.978012 
L 342.025613 294.161196 
L 343.111414 294.829276 
L 344.197215 294.760861 
L 345.283016 294.573192 
L 346.368817 294.242276 
L 347.454618 294.821237 
L 348.54042 295.09236 
L 349.626221 294.934455 
L 350.712022 294.339237 
L 351.797823 294.406972 
L 352.883624 294.302788 
L 353.969425 293.955083 
L 356.141028 294.968619 
L 357.226829 294.60476 
L 358.31263 294.743388 
L 359.398431 294.34887 
L 360.484232 294.844084 
L 361.570033 295.063046 
L 362.655835 294.839319 
L 363.741636 294.875916 
L 364.827437 295.075012 
L 368.08484 294.982715 
L 369.170642 295.105954 
L 370.256443 294.863958 
L 371.342244 295.105338 
L 372.428045 295.079856 
L 373.513846 294.772323 
L 374.599647 294.801503 
L 375.685448 295.043021 
L 376.77125 294.838614 
L 377.857051 295.174344 
L 380.028653 295.305918 
L 383.286057 295.164535 
L 385.457659 295.036943 
L 386.54346 295.259152 
L 388.715062 295.04147 
L 389.800863 294.857315 
L 390.886665 295.096381 
L 391.972466 295.147988 
L 393.058267 294.999792 
L 394.144068 295.306116 
L 397.401472 294.968711 
L 398.487273 295.317406 
L 398.487273 295.317406 
" clip-path="url(#p7d2cccfcab)" style="fill: none; stroke: #0000ff; stroke-width: 1.5; stroke-linecap: square"/>
   </g>
   <g id="patch_3">
    <path d="M 57.6 307.584 
L 57.6 41.472 
" style="fill: none; stroke: #000000; stroke-width: 0.8; stroke-linejoin: miter; stroke-linecap: square"/>
   </g>
   <g id="patch_4">
    <path d="M 414.72 307.584 
L 414.72 41.472 
" style="fill: none; stroke: #000000; stroke-width: 0.8; stroke-linejoin: miter; stroke-linecap: square"/>
   </g>
   <g id="patch_5">
    <path d="M 57.6 307.584 
L 414.72 307.584 
" style="fill: none; stroke: #000000; stroke-width: 0.8; stroke-linejoin: miter; stroke-linecap: square"/>
   </g>
   <g id="patch_6">
    <path d="M 57.6 41.472 
L 414.72 41.472 
" style="fill: none; stroke: #000000; stroke-width: 0.8; stroke-linejoin: miter; stroke-linecap: square"/>
   </g>
   <g id="text_15">
    <!-- Loss -->
    <g transform="translate(222.999375 35.472) scale(0.12 -0.12)">
     <use xlink:href="#DejaVuSans-4c"/>
     <use xlink:href="#DejaVuSans-6f" x="53.962891"/>
     <use xlink:href="#DejaVuSans-73" x="115.144531"/>
     <use xlink:href="#DejaVuSans-73" x="167.244141"/>
    </g>
   </g>
   <g id="legend_1">
    <g id="patch_7">
     <path d="M 64.6 93.506375 
L 124.959375 93.506375 
Q 126.959375 93.506375 126.959375 91.506375 
L 126.959375 48.472 
Q 126.959375 46.472 124.959375 46.472 
L 64.6 46.472 
Q 62.6 46.472 62.6 48.472 
L 62.6 91.506375 
Q 62.6 93.506375 64.6 93.506375 
z
" style="fill: #ffffff; opacity: 0.8; stroke: #cccccc; stroke-linejoin: miter"/>
    </g>
    <g id="line2d_16">
     <path d="M 66.6 54.570438 
L 76.6 54.570438 
L 86.6 54.570438 
" style="fill: none; stroke: #008000; stroke-width: 1.5; stroke-linecap: square"/>
    </g>
    <g id="text_16">
     <!-- min -->
     <g transform="translate(94.6 58.070438) scale(0.1 -0.1)">
      <defs>
       <path id="DejaVuSans-6d" d="M 3328 2828 
Q 3544 3216 3844 3400 
Q 4144 3584 4550 3584 
Q 5097 3584 5394 3201 
Q 5691 2819 5691 2113 
L 5691 0 
L 5113 0 
L 5113 2094 
Q 5113 2597 4934 2840 
Q 4756 3084 4391 3084 
Q 3944 3084 3684 2787 
Q 3425 2491 3425 1978 
L 3425 0 
L 2847 0 
L 2847 2094 
Q 2847 2600 2669 2842 
Q 2491 3084 2119 3084 
Q 1678 3084 1418 2786 
Q 1159 2488 1159 1978 
L 1159 0 
L 581 0 
L 581 3500 
L 1159 3500 
L 1159 2956 
Q 1356 3278 1631 3431 
Q 1906 3584 2284 3584 
Q 2666 3584 2933 3390 
Q 3200 3197 3328 2828 
z
" transform="scale(0.015625)"/>
       <path id="DejaVuSans-6e" d="M 3513 2113 
L 3513 0 
L 2938 0 
L 2938 2094 
Q 2938 2591 2744 2837 
Q 2550 3084 2163 3084 
Q 1697 3084 1428 2787 
Q 1159 2491 1159 1978 
L 1159 0 
L 581 0 
L 581 3500 
L 1159 3500 
L 1159 2956 
Q 1366 3272 1645 3428 
Q 1925 3584 2291 3584 
Q 2894 3584 3203 3211 
Q 3513 2838 3513 2113 
z
" transform="scale(0.015625)"/>
      </defs>
      <use xlink:href="#DejaVuSans-6d"/>
      <use xlink:href="#DejaVuSans-69" x="97.412109"/>
      <use xlink:href="#DejaVuSans-6e" x="125.195312"/>
     </g>
    </g>
    <g id="line2d_17">
     <path d="M 66.6 69.248563 
L 76.6 69.248563 
L 86.6 69.248563 
" style="fill: none; stroke: #ff0000; stroke-width: 1.5; stroke-linecap: square"/>
    </g>
    <g id="text_17">
     <!-- max -->
     <g transform="translate(94.6 72.748563) scale(0.1 -0.1)">
      <defs>
       <path id="DejaVuSans-61" d="M 2194 1759 
Q 1497 1759 1228 1600 
Q 959 1441 959 1056 
Q 959 750 1161 570 
Q 1363 391 1709 391 
Q 2188 391 2477 730 
Q 2766 1069 2766 1631 
L 2766 1759 
L 2194 1759 
z
M 3341 1997 
L 3341 0 
L 2766 0 
L 2766 531 
Q 2569 213 2275 61 
Q 1981 -91 1556 -91 
Q 1019 -91 701 211 
Q 384 513 384 1019 
Q 384 1609 779 1909 
Q 1175 2209 1959 2209 
L 2766 2209 
L 2766 2266 
Q 2766 2663 2505 2880 
Q 2244 3097 1772 3097 
Q 1472 3097 1187 3025 
Q 903 2953 641 2809 
L 641 3341 
Q 956 3463 1253 3523 
Q 1550 3584 1831 3584 
Q 2591 3584 2966 3190 
Q 3341 2797 3341 1997 
z
" transform="scale(0.015625)"/>
       <path id="DejaVuSans-78" d="M 3513 3500 
L 2247 1797 
L 3578 0 
L 2900 0 
L 1881 1375 
L 863 0 
L 184 0 
L 1544 1831 
L 300 3500 
L 978 3500 
L 1906 2253 
L 2834 3500 
L 3513 3500 
z
" transform="scale(0.015625)"/>
      </defs>
      <use xlink:href="#DejaVuSans-6d"/>
      <use xlink:href="#DejaVuSans-61" x="97.412109"/>
      <use xlink:href="#DejaVuSans-78" x="158.691406"/>
     </g>
    </g>
    <g id="line2d_18">
     <path d="M 66.6 83.926688 
L 76.6 83.926688 
L 86.6 83.926688 
" style="fill: none; stroke: #0000ff; stroke-width: 1.5; stroke-linecap: square"/>
    </g>
    <g id="text_18">
     <!-- mean -->
     <g transform="translate(94.6 87.426688) scale(0.1 -0.1)">
      <use xlink:href="#DejaVuSans-6d"/>
      <use xlink:href="#DejaVuSans-65" x="97.412109"/>
      <use xlink:href="#DejaVuSans-61" x="158.935547"/>
      <use xlink:href="#DejaVuSans-6e" x="220.214844"/>
     </g>
    </g>
   </g>
  </g>
 </g>
 <defs>
  <clipPath id="p7d2cccfcab">
   <rect x="57.6" y="41.472" width="357.12" height="266.112"/>
  </clipPath>
 </defs>
</svg>
