<?xml version="1.0" encoding="utf-8" standalone="no"?>
<!DOCTYPE svg PUBLIC "-//W3C//DTD SVG 1.1//EN"
  "http://www.w3.org/Graphics/SVG/1.1/DTD/svg11.dtd">
<svg xmlns:xlink="http://www.w3.org/1999/xlink" width="460.8pt" height="345.6pt" viewBox="0 0 460.8 345.6" xmlns="http://www.w3.org/2000/svg" version="1.1">
 <metadata>
  <rdf:RDF xmlns:dc="http://purl.org/dc/elements/1.1/" xmlns:cc="http://creativecommons.org/ns#" xmlns:rdf="http://www.w3.org/1999/02/22-rdf-syntax-ns#">
   <cc:Work>
    <dc:type rdf:resource="http://purl.org/dc/dcmitype/StillImage"/>
    <dc:date>2023-07-21T18:15:15.207236</dc:date>
    <dc:format>image/svg+xml</dc:format>
    <dc:creator>
     <cc:Agent>
      <dc:title>Matplotlib v3.7.2, https://matplotlib.org/</dc:title>
     </cc:Agent>
    </dc:creator>
   </cc:Work>
  </rdf:RDF>
 </metadata>
 <defs>
  <style type="text/css">*{stroke-linejoin: round; stroke-linecap: butt}</style>
 </defs>
 <g id="figure_1">
  <g id="patch_1">
   <path d="M 0 345.6 
L 460.8 345.6 
L 460.8 0 
L 0 0 
z
" style="fill: #ffffff"/>
  </g>
  <g id="axes_1">
   <g id="patch_2">
    <path d="M 57.6 307.584 
L 414.72 307.584 
L 414.72 41.472 
L 57.6 41.472 
z
" style="fill: #ffffff"/>
   </g>
   <g id="matplotlib.axis_1">
    <g id="xtick_1">
     <g id="line2d_1">
      <defs>
       <path id="mea996f775b" d="M 0 0 
L 0 3.5 
" style="stroke: #000000; stroke-width: 0.8"/>
      </defs>
      <g>
       <use xlink:href="#mea996f775b" x="73.832727" y="307.584" style="stroke: #000000; stroke-width: 0.8"/>
      </g>
     </g>
     <g id="text_1">
      <!-- 0 -->
      <g transform="translate(70.651477 322.182437) scale(0.1 -0.1)">
       <defs>
        <path id="DejaVuSans-30" d="M 2034 4250 
Q 1547 4250 1301 3770 
Q 1056 3291 1056 2328 
Q 1056 1369 1301 889 
Q 1547 409 2034 409 
Q 2525 409 2770 889 
Q 3016 1369 3016 2328 
Q 3016 3291 2770 3770 
Q 2525 4250 2034 4250 
z
M 2034 4750 
Q 2819 4750 3233 4129 
Q 3647 3509 3647 2328 
Q 3647 1150 3233 529 
Q 2819 -91 2034 -91 
Q 1250 -91 836 529 
Q 422 1150 422 2328 
Q 422 3509 836 4129 
Q 1250 4750 2034 4750 
z
" transform="scale(0.015625)"/>
       </defs>
       <use xlink:href="#DejaVuSans-30"/>
      </g>
     </g>
    </g>
    <g id="xtick_2">
     <g id="line2d_2">
      <g>
       <use xlink:href="#mea996f775b" x="138.828632" y="307.584" style="stroke: #000000; stroke-width: 0.8"/>
      </g>
     </g>
     <g id="text_2">
      <!-- 200 -->
      <g transform="translate(129.284882 322.182437) scale(0.1 -0.1)">
       <defs>
        <path id="DejaVuSans-32" d="M 1228 531 
L 3431 531 
L 3431 0 
L 469 0 
L 469 531 
Q 828 903 1448 1529 
Q 2069 2156 2228 2338 
Q 2531 2678 2651 2914 
Q 2772 3150 2772 3378 
Q 2772 3750 2511 3984 
Q 2250 4219 1831 4219 
Q 1534 4219 1204 4116 
Q 875 4013 500 3803 
L 500 4441 
Q 881 4594 1212 4672 
Q 1544 4750 1819 4750 
Q 2544 4750 2975 4387 
Q 3406 4025 3406 3419 
Q 3406 3131 3298 2873 
Q 3191 2616 2906 2266 
Q 2828 2175 2409 1742 
Q 1991 1309 1228 531 
z
" transform="scale(0.015625)"/>
       </defs>
       <use xlink:href="#DejaVuSans-32"/>
       <use xlink:href="#DejaVuSans-30" x="63.623047"/>
       <use xlink:href="#DejaVuSans-30" x="127.246094"/>
      </g>
     </g>
    </g>
    <g id="xtick_3">
     <g id="line2d_3">
      <g>
       <use xlink:href="#mea996f775b" x="203.824537" y="307.584" style="stroke: #000000; stroke-width: 0.8"/>
      </g>
     </g>
     <g id="text_3">
      <!-- 400 -->
      <g transform="translate(194.280787 322.182437) scale(0.1 -0.1)">
       <defs>
        <path id="DejaVuSans-34" d="M 2419 4116 
L 825 1625 
L 2419 1625 
L 2419 4116 
z
M 2253 4666 
L 3047 4666 
L 3047 1625 
L 3713 1625 
L 3713 1100 
L 3047 1100 
L 3047 0 
L 2419 0 
L 2419 1100 
L 313 1100 
L 313 1709 
L 2253 4666 
z
" transform="scale(0.015625)"/>
       </defs>
       <use xlink:href="#DejaVuSans-34"/>
       <use xlink:href="#DejaVuSans-30" x="63.623047"/>
       <use xlink:href="#DejaVuSans-30" x="127.246094"/>
      </g>
     </g>
    </g>
    <g id="xtick_4">
     <g id="line2d_4">
      <g>
       <use xlink:href="#mea996f775b" x="268.820442" y="307.584" style="stroke: #000000; stroke-width: 0.8"/>
      </g>
     </g>
     <g id="text_4">
      <!-- 600 -->
      <g transform="translate(259.276692 322.182437) scale(0.1 -0.1)">
       <defs>
        <path id="DejaVuSans-36" d="M 2113 2584 
Q 1688 2584 1439 2293 
Q 1191 2003 1191 1497 
Q 1191 994 1439 701 
Q 1688 409 2113 409 
Q 2538 409 2786 701 
Q 3034 994 3034 1497 
Q 3034 2003 2786 2293 
Q 2538 2584 2113 2584 
z
M 3366 4563 
L 3366 3988 
Q 3128 4100 2886 4159 
Q 2644 4219 2406 4219 
Q 1781 4219 1451 3797 
Q 1122 3375 1075 2522 
Q 1259 2794 1537 2939 
Q 1816 3084 2150 3084 
Q 2853 3084 3261 2657 
Q 3669 2231 3669 1497 
Q 3669 778 3244 343 
Q 2819 -91 2113 -91 
Q 1303 -91 875 529 
Q 447 1150 447 2328 
Q 447 3434 972 4092 
Q 1497 4750 2381 4750 
Q 2619 4750 2861 4703 
Q 3103 4656 3366 4563 
z
" transform="scale(0.015625)"/>
       </defs>
       <use xlink:href="#DejaVuSans-36"/>
       <use xlink:href="#DejaVuSans-30" x="63.623047"/>
       <use xlink:href="#DejaVuSans-30" x="127.246094"/>
      </g>
     </g>
    </g>
    <g id="xtick_5">
     <g id="line2d_5">
      <g>
       <use xlink:href="#mea996f775b" x="333.816347" y="307.584" style="stroke: #000000; stroke-width: 0.8"/>
      </g>
     </g>
     <g id="text_5">
      <!-- 800 -->
      <g transform="translate(324.272597 322.182437) scale(0.1 -0.1)">
       <defs>
        <path id="DejaVuSans-38" d="M 2034 2216 
Q 1584 2216 1326 1975 
Q 1069 1734 1069 1313 
Q 1069 891 1326 650 
Q 1584 409 2034 409 
Q 2484 409 2743 651 
Q 3003 894 3003 1313 
Q 3003 1734 2745 1975 
Q 2488 2216 2034 2216 
z
M 1403 2484 
Q 997 2584 770 2862 
Q 544 3141 544 3541 
Q 544 4100 942 4425 
Q 1341 4750 2034 4750 
Q 2731 4750 3128 4425 
Q 3525 4100 3525 3541 
Q 3525 3141 3298 2862 
Q 3072 2584 2669 2484 
Q 3125 2378 3379 2068 
Q 3634 1759 3634 1313 
Q 3634 634 3220 271 
Q 2806 -91 2034 -91 
Q 1263 -91 848 271 
Q 434 634 434 1313 
Q 434 1759 690 2068 
Q 947 2378 1403 2484 
z
M 1172 3481 
Q 1172 3119 1398 2916 
Q 1625 2713 2034 2713 
Q 2441 2713 2670 2916 
Q 2900 3119 2900 3481 
Q 2900 3844 2670 4047 
Q 2441 4250 2034 4250 
Q 1625 4250 1398 4047 
Q 1172 3844 1172 3481 
z
" transform="scale(0.015625)"/>
       </defs>
       <use xlink:href="#DejaVuSans-38"/>
       <use xlink:href="#DejaVuSans-30" x="63.623047"/>
       <use xlink:href="#DejaVuSans-30" x="127.246094"/>
      </g>
     </g>
    </g>
    <g id="xtick_6">
     <g id="line2d_6">
      <g>
       <use xlink:href="#mea996f775b" x="398.812252" y="307.584" style="stroke: #000000; stroke-width: 0.8"/>
      </g>
     </g>
     <g id="text_6">
      <!-- 1000 -->
      <g transform="translate(386.087252 322.182437) scale(0.1 -0.1)">
       <defs>
        <path id="DejaVuSans-31" d="M 794 531 
L 1825 531 
L 1825 4091 
L 703 3866 
L 703 4441 
L 1819 4666 
L 2450 4666 
L 2450 531 
L 3481 531 
L 3481 0 
L 794 0 
L 794 531 
z
" transform="scale(0.015625)"/>
       </defs>
       <use xlink:href="#DejaVuSans-31"/>
       <use xlink:href="#DejaVuSans-30" x="63.623047"/>
       <use xlink:href="#DejaVuSans-30" x="127.246094"/>
       <use xlink:href="#DejaVuSans-30" x="190.869141"/>
      </g>
     </g>
    </g>
    <g id="text_7">
     <!-- Episode -->
     <g transform="translate(216.5225 335.860562) scale(0.1 -0.1)">
      <defs>
       <path id="DejaVuSans-45" d="M 628 4666 
L 3578 4666 
L 3578 4134 
L 1259 4134 
L 1259 2753 
L 3481 2753 
L 3481 2222 
L 1259 2222 
L 1259 531 
L 3634 531 
L 3634 0 
L 628 0 
L 628 4666 
z
" transform="scale(0.015625)"/>
       <path id="DejaVuSans-70" d="M 1159 525 
L 1159 -1331 
L 581 -1331 
L 581 3500 
L 1159 3500 
L 1159 2969 
Q 1341 3281 1617 3432 
Q 1894 3584 2278 3584 
Q 2916 3584 3314 3078 
Q 3713 2572 3713 1747 
Q 3713 922 3314 415 
Q 2916 -91 2278 -91 
Q 1894 -91 1617 61 
Q 1341 213 1159 525 
z
M 3116 1747 
Q 3116 2381 2855 2742 
Q 2594 3103 2138 3103 
Q 1681 3103 1420 2742 
Q 1159 2381 1159 1747 
Q 1159 1113 1420 752 
Q 1681 391 2138 391 
Q 2594 391 2855 752 
Q 3116 1113 3116 1747 
z
" transform="scale(0.015625)"/>
       <path id="DejaVuSans-69" d="M 603 3500 
L 1178 3500 
L 1178 0 
L 603 0 
L 603 3500 
z
M 603 4863 
L 1178 4863 
L 1178 4134 
L 603 4134 
L 603 4863 
z
" transform="scale(0.015625)"/>
       <path id="DejaVuSans-73" d="M 2834 3397 
L 2834 2853 
Q 2591 2978 2328 3040 
Q 2066 3103 1784 3103 
Q 1356 3103 1142 2972 
Q 928 2841 928 2578 
Q 928 2378 1081 2264 
Q 1234 2150 1697 2047 
L 1894 2003 
Q 2506 1872 2764 1633 
Q 3022 1394 3022 966 
Q 3022 478 2636 193 
Q 2250 -91 1575 -91 
Q 1294 -91 989 -36 
Q 684 19 347 128 
L 347 722 
Q 666 556 975 473 
Q 1284 391 1588 391 
Q 1994 391 2212 530 
Q 2431 669 2431 922 
Q 2431 1156 2273 1281 
Q 2116 1406 1581 1522 
L 1381 1569 
Q 847 1681 609 1914 
Q 372 2147 372 2553 
Q 372 3047 722 3315 
Q 1072 3584 1716 3584 
Q 2034 3584 2315 3537 
Q 2597 3491 2834 3397 
z
" transform="scale(0.015625)"/>
       <path id="DejaVuSans-6f" d="M 1959 3097 
Q 1497 3097 1228 2736 
Q 959 2375 959 1747 
Q 959 1119 1226 758 
Q 1494 397 1959 397 
Q 2419 397 2687 759 
Q 2956 1122 2956 1747 
Q 2956 2369 2687 2733 
Q 2419 3097 1959 3097 
z
M 1959 3584 
Q 2709 3584 3137 3096 
Q 3566 2609 3566 1747 
Q 3566 888 3137 398 
Q 2709 -91 1959 -91 
Q 1206 -91 779 398 
Q 353 888 353 1747 
Q 353 2609 779 3096 
Q 1206 3584 1959 3584 
z
" transform="scale(0.015625)"/>
       <path id="DejaVuSans-64" d="M 2906 2969 
L 2906 4863 
L 3481 4863 
L 3481 0 
L 2906 0 
L 2906 525 
Q 2725 213 2448 61 
Q 2172 -91 1784 -91 
Q 1150 -91 751 415 
Q 353 922 353 1747 
Q 353 2572 751 3078 
Q 1150 3584 1784 3584 
Q 2172 3584 2448 3432 
Q 2725 3281 2906 2969 
z
M 947 1747 
Q 947 1113 1208 752 
Q 1469 391 1925 391 
Q 2381 391 2643 752 
Q 2906 1113 2906 1747 
Q 2906 2381 2643 2742 
Q 2381 3103 1925 3103 
Q 1469 3103 1208 2742 
Q 947 2381 947 1747 
z
" transform="scale(0.015625)"/>
       <path id="DejaVuSans-65" d="M 3597 1894 
L 3597 1613 
L 953 1613 
Q 991 1019 1311 708 
Q 1631 397 2203 397 
Q 2534 397 2845 478 
Q 3156 559 3463 722 
L 3463 178 
Q 3153 47 2828 -22 
Q 2503 -91 2169 -91 
Q 1331 -91 842 396 
Q 353 884 353 1716 
Q 353 2575 817 3079 
Q 1281 3584 2069 3584 
Q 2775 3584 3186 3129 
Q 3597 2675 3597 1894 
z
M 3022 2063 
Q 3016 2534 2758 2815 
Q 2500 3097 2075 3097 
Q 1594 3097 1305 2825 
Q 1016 2553 972 2059 
L 3022 2063 
z
" transform="scale(0.015625)"/>
      </defs>
      <use xlink:href="#DejaVuSans-45"/>
      <use xlink:href="#DejaVuSans-70" x="63.183594"/>
      <use xlink:href="#DejaVuSans-69" x="126.660156"/>
      <use xlink:href="#DejaVuSans-73" x="154.443359"/>
      <use xlink:href="#DejaVuSans-6f" x="206.542969"/>
      <use xlink:href="#DejaVuSans-64" x="267.724609"/>
      <use xlink:href="#DejaVuSans-65" x="331.201172"/>
     </g>
    </g>
   </g>
   <g id="matplotlib.axis_2">
    <g id="ytick_1">
     <g id="line2d_7">
      <defs>
       <path id="m408ca2a9c7" d="M 0 0 
L -3.5 0 
" style="stroke: #000000; stroke-width: 0.8"/>
      </defs>
      <g>
       <use xlink:href="#m408ca2a9c7" x="57.6" y="295.488" style="stroke: #000000; stroke-width: 0.8"/>
      </g>
     </g>
     <g id="text_8">
      <!-- 0 -->
      <g transform="translate(44.2375 299.287219) scale(0.1 -0.1)">
       <use xlink:href="#DejaVuSans-30"/>
      </g>
     </g>
    </g>
    <g id="ytick_2">
     <g id="line2d_8">
      <g>
       <use xlink:href="#m408ca2a9c7" x="57.6" y="248.890623" style="stroke: #000000; stroke-width: 0.8"/>
      </g>
     </g>
     <g id="text_9">
      <!-- 2 -->
      <g transform="translate(44.2375 252.689842) scale(0.1 -0.1)">
       <use xlink:href="#DejaVuSans-32"/>
      </g>
     </g>
    </g>
    <g id="ytick_3">
     <g id="line2d_9">
      <g>
       <use xlink:href="#m408ca2a9c7" x="57.6" y="202.293246" style="stroke: #000000; stroke-width: 0.8"/>
      </g>
     </g>
     <g id="text_10">
      <!-- 4 -->
      <g transform="translate(44.2375 206.092465) scale(0.1 -0.1)">
       <use xlink:href="#DejaVuSans-34"/>
      </g>
     </g>
    </g>
    <g id="ytick_4">
     <g id="line2d_10">
      <g>
       <use xlink:href="#m408ca2a9c7" x="57.6" y="155.69587" style="stroke: #000000; stroke-width: 0.8"/>
      </g>
     </g>
     <g id="text_11">
      <!-- 6 -->
      <g transform="translate(44.2375 159.495088) scale(0.1 -0.1)">
       <use xlink:href="#DejaVuSans-36"/>
      </g>
     </g>
    </g>
    <g id="ytick_5">
     <g id="line2d_11">
      <g>
       <use xlink:href="#m408ca2a9c7" x="57.6" y="109.098493" style="stroke: #000000; stroke-width: 0.8"/>
      </g>
     </g>
     <g id="text_12">
      <!-- 8 -->
      <g transform="translate(44.2375 112.897712) scale(0.1 -0.1)">
       <use xlink:href="#DejaVuSans-38"/>
      </g>
     </g>
    </g>
    <g id="ytick_6">
     <g id="line2d_12">
      <g>
       <use xlink:href="#m408ca2a9c7" x="57.6" y="62.501116" style="stroke: #000000; stroke-width: 0.8"/>
      </g>
     </g>
     <g id="text_13">
      <!-- 10 -->
      <g transform="translate(37.875 66.300335) scale(0.1 -0.1)">
       <use xlink:href="#DejaVuSans-31"/>
       <use xlink:href="#DejaVuSans-30" x="63.623047"/>
      </g>
     </g>
    </g>
    <g id="text_14">
     <!-- Loss -->
     <g transform="translate(31.795313 185.495187) rotate(-90) scale(0.1 -0.1)">
      <defs>
       <path id="DejaVuSans-4c" d="M 628 4666 
L 1259 4666 
L 1259 531 
L 3531 531 
L 3531 0 
L 628 0 
L 628 4666 
z
" transform="scale(0.015625)"/>
      </defs>
      <use xlink:href="#DejaVuSans-4c"/>
      <use xlink:href="#DejaVuSans-6f" x="53.962891"/>
      <use xlink:href="#DejaVuSans-73" x="115.144531"/>
      <use xlink:href="#DejaVuSans-73" x="167.244141"/>
     </g>
    </g>
   </g>
   <g id="line2d_13">
    <path d="M 73.832727 295.488 
L 98.206192 295.488 
L 98.531171 295.058824 
L 98.856151 295.132603 
L 99.18113 295.488 
L 99.50611 295.488 
L 99.831089 295.184064 
L 100.156069 295.488 
L 100.806028 295.488 
L 101.131007 295.263884 
L 102.105946 295.315277 
L 102.430925 295.488 
L 102.755905 295.19391 
L 103.730844 295.488 
L 104.055823 295.149527 
L 104.380803 295.488 
L 104.705782 295.246086 
L 105.355741 295.165239 
L 105.680721 295.488 
L 106.0057 295.115696 
L 107.305618 294.876393 
L 107.630598 294.912945 
L 107.955577 295.488 
L 108.280557 294.911474 
L 108.605536 294.686299 
L 108.930516 295.488 
L 109.255495 295.488 
L 109.580475 295.02503 
L 109.905455 295.488 
L 110.230434 294.988938 
L 110.555414 294.761187 
L 111.205373 294.849042 
L 111.855332 295.042056 
L 112.180311 294.981615 
L 112.505291 295.488 
L 113.15525 294.661501 
L 113.480229 294.628154 
L 113.805209 295.488 
L 114.130188 294.720373 
L 114.455168 294.57085 
L 114.780147 294.873187 
L 115.105127 295.488 
L 115.755086 295.488 
L 116.080066 294.651241 
L 116.405045 295.488 
L 116.730025 295.488 
L 117.055004 293.957205 
L 117.379984 294.238327 
L 117.704963 294.10957 
L 118.354922 293.345826 
L 118.679902 295.488 
L 119.004881 293.56367 
L 119.65484 292.680511 
L 120.304799 292.396336 
L 120.629779 295.488 
L 120.954758 291.909078 
L 121.279738 293.021508 
L 121.604717 291.833551 
L 121.929697 295.488 
L 122.254676 290.364449 
L 122.579656 290.333504 
L 122.904636 289.548967 
L 123.229615 290.792217 
L 123.554595 291.005351 
L 123.879574 295.488 
L 124.204554 295.488 
L 124.529533 291.321449 
L 125.179492 286.512747 
L 125.829451 288.318954 
L 126.154431 295.488 
L 126.47941 295.488 
L 126.80439 285.778575 
L 127.129369 295.488 
L 127.454349 295.488 
L 127.779328 286.84568 
L 128.104308 295.488 
L 129.729206 295.488 
L 130.054185 283.904145 
L 130.379165 285.548177 
L 130.704144 295.488 
L 131.029124 281.399487 
L 131.354103 295.488 
L 131.679083 295.488 
L 132.004062 279.188199 
L 132.329042 295.488 
L 132.654021 295.488 
L 132.979001 278.82437 
L 133.30398 282.924843 
L 133.62896 284.735674 
L 133.953939 283.734343 
L 134.278919 295.488 
L 135.253857 295.488 
L 135.578837 280.926389 
L 135.903817 295.488 
L 136.228796 295.488 
L 136.553776 281.007548 
L 136.878755 282.305703 
L 137.203735 295.488 
L 137.528714 276.905965 
L 137.853694 281.395941 
L 138.178673 295.488 
L 138.503653 281.823649 
L 138.828632 295.488 
L 139.153612 295.488 
L 139.478591 277.411674 
L 139.803571 295.488 
L 140.778509 295.488 
L 141.103489 277.697883 
L 141.428468 276.696513 
L 141.753448 274.00457 
L 142.078428 279.186316 
L 142.403407 277.046717 
L 142.728387 295.488 
L 144.028305 295.488 
L 144.353284 281.28989 
L 144.678264 295.488 
L 145.328223 295.488 
L 145.653202 276.106603 
L 145.978182 295.488 
L 146.303161 280.903414 
L 146.628141 279.42726 
L 146.95312 295.488 
L 147.2781 295.488 
L 147.603079 280.628283 
L 147.928059 295.488 
L 148.253038 280.020245 
L 148.578018 277.42633 
L 148.902998 295.488 
L 149.227977 278.058921 
L 149.552957 279.327056 
L 149.877936 295.488 
L 150.527895 295.488 
L 150.852875 284.908485 
L 151.177854 295.488 
L 151.827813 295.488 
L 152.152793 281.670127 
L 152.477772 282.668688 
L 152.802752 295.488 
L 153.127731 295.488 
L 153.452711 282.923185 
L 153.77769 284.576739 
L 154.10267 295.488 
L 154.427649 284.260875 
L 154.752629 295.488 
L 155.077609 286.027485 
L 155.402588 285.071718 
L 155.727568 295.488 
L 156.377527 295.488 
L 156.702506 286.41865 
L 157.027486 295.488 
L 157.352465 282.106751 
L 157.677445 282.230375 
L 158.002424 295.488 
L 158.652383 295.488 
L 158.977363 285.362325 
L 159.302342 287.145954 
L 159.627322 286.055438 
L 159.952301 295.488 
L 160.60226 295.488 
L 160.92724 285.458869 
L 161.252219 295.488 
L 161.577199 285.772196 
L 161.902179 295.488 
L 162.227158 295.488 
L 162.552138 286.91631 
L 162.877117 288.389137 
L 163.202097 287.708326 
L 163.527076 295.488 
L 163.852056 287.448894 
L 164.177035 295.488 
L 164.502015 288.101354 
L 164.826994 287.456875 
L 165.151974 295.488 
L 166.126912 295.488 
L 166.451892 288.853092 
L 166.776871 295.488 
L 167.101851 288.234961 
L 167.42683 295.488 
L 167.75181 288.589429 
L 168.07679 288.488229 
L 168.401769 289.476313 
L 168.726749 289.889819 
L 169.051728 295.488 
L 171.326585 295.488 
L 171.651564 288.923187 
L 171.976544 295.488 
L 172.626503 295.488 
L 172.951482 289.860269 
L 173.276462 288.953286 
L 173.601441 288.602282 
L 173.926421 287.590771 
L 174.2514 295.488 
L 175.551319 295.488 
L 175.876298 288.418043 
L 176.201278 295.488 
L 176.526257 295.488 
L 176.851237 289.344283 
L 177.176216 295.488 
L 179.776052 295.488 
L 180.101032 289.458495 
L 180.426011 295.488 
L 183.675807 295.488 
L 184.000786 287.423623 
L 184.325766 289.861027 
L 184.650745 288.226904 
L 184.975725 288.857593 
L 185.300704 290.103838 
L 185.625684 288.894226 
L 185.950663 295.488 
L 186.275643 288.57982 
L 186.600622 290.035587 
L 186.925602 295.488 
L 187.250581 289.499664 
L 187.575561 290.5479 
L 187.900541 289.183261 
L 188.22552 290.885515 
L 188.5505 295.488 
L 189.200459 295.488 
L 189.525438 290.677821 
L 189.850418 290.908617 
L 190.175397 295.488 
L 191.150336 295.488 
L 191.475315 290.49609 
L 191.800295 295.488 
L 192.450254 295.488 
L 192.775233 290.079138 
L 193.100213 291.67511 
L 193.425192 295.488 
L 193.750172 290.824222 
L 194.075152 295.488 
L 194.400131 291.359947 
L 194.725111 291.2031 
L 195.37507 291.191322 
L 195.700049 295.488 
L 196.025029 295.488 
L 196.350008 291.724102 
L 196.674988 295.488 
L 196.999967 290.159527 
L 197.324947 295.488 
L 197.649926 290.802944 
L 197.974906 290.96491 
L 198.299885 295.488 
L 198.949844 295.488 
L 199.274824 291.212112 
L 199.924783 290.811247 
L 200.249762 291.40833 
L 200.574742 295.488 
L 201.87466 295.488 
L 202.19964 291.95494 
L 202.524619 295.488 
L 202.849599 295.488 
L 203.174578 292.22334 
L 203.499558 295.488 
L 204.474496 295.488 
L 204.799476 291.237862 
L 205.124455 295.488 
L 205.774414 295.488 
L 206.099394 291.122975 
L 206.424373 295.488 
L 207.074333 295.488 
L 207.399312 290.616984 
L 207.724292 291.713815 
L 208.049271 295.488 
L 208.374251 291.958298 
L 208.69923 291.830381 
L 209.02421 295.488 
L 209.674169 295.488 
L 209.999148 291.75433 
L 210.324128 295.488 
L 210.649107 295.488 
L 210.974087 292.255966 
L 211.299066 291.443368 
L 211.624046 295.488 
L 211.949025 295.488 
L 212.274005 291.039702 
L 212.598984 292.80915 
L 212.923964 292.645148 
L 213.248943 295.488 
L 218.448616 295.488 
L 218.773595 292.98001 
L 219.098575 292.620645 
L 219.423554 295.488 
L 220.398493 295.488 
L 220.723473 291.783793 
L 221.048452 295.488 
L 221.373432 292.174688 
L 221.698411 295.488 
L 222.023391 292.426823 
L 222.34837 295.488 
L 222.67335 292.164004 
L 222.998329 295.488 
L 223.323309 291.818124 
L 223.648288 292.63221 
L 223.973268 293.025889 
L 224.298247 295.488 
L 224.623227 292.061164 
L 224.948206 292.730064 
L 225.273186 295.488 
L 228.198002 295.488 
L 228.522981 293.486193 
L 228.847961 295.488 
L 229.17294 292.639174 
L 229.49792 295.488 
L 235.99751 295.488 
L 236.32249 292.616131 
L 236.647469 295.488 
L 238.597346 295.488 
L 238.922326 292.611925 
L 239.247305 295.488 
L 239.897265 295.488 
L 240.222244 292.610926 
L 240.547224 295.488 
L 241.522162 295.488 
L 241.847142 293.483535 
L 242.172121 295.488 
L 242.497101 295.488 
L 242.82208 292.197221 
L 243.14706 295.488 
L 243.472039 292.28344 
L 243.797019 292.576733 
L 244.121998 295.488 
L 249.321671 295.488 
L 249.64665 291.891398 
L 249.97163 295.488 
L 250.296609 295.488 
L 250.621589 292.487667 
L 250.946568 295.488 
L 252.246486 295.488 
L 252.571466 292.387134 
L 252.896446 295.488 
L 253.221425 295.488 
L 253.546405 292.528647 
L 253.871384 295.488 
L 255.821261 295.488 
L 256.146241 291.724795 
L 256.47122 295.488 
L 257.771138 295.488 
L 258.096118 291.558696 
L 258.421097 295.488 
L 266.545586 295.488 
L 266.870565 290.339171 
L 267.195545 295.488 
L 271.095299 295.488 
L 271.420278 291.090521 
L 271.745258 295.488 
L 272.070238 295.488 
L 272.395217 291.005866 
L 272.720197 295.488 
L 276.294971 295.488 
L 276.619951 291.162384 
L 276.94493 291.740247 
L 277.26991 295.488 
L 278.569828 295.488 
L 278.894808 290.21271 
L 279.219787 295.488 
L 281.494644 295.488 
L 281.819623 291.188503 
L 282.144603 291.382904 
L 282.469582 295.488 
L 293.193907 295.488 
L 293.518886 291.339786 
L 293.843866 295.488 
L 294.168845 292.306675 
L 294.493825 295.488 
L 297.74362 295.488 
L 298.0686 292.511419 
L 298.393579 291.223721 
L 298.718559 292.943986 
L 299.043538 295.488 
L 301.318395 295.488 
L 301.643374 291.779909 
L 301.968354 295.488 
L 302.293333 291.34168 
L 302.618313 295.488 
L 302.943292 295.488 
L 303.268272 291.856774 
L 303.593251 295.488 
L 304.24321 295.488 
L 304.56819 292.927466 
L 304.89317 292.529262 
L 305.218149 295.488 
L 306.843047 295.488 
L 307.168026 291.835547 
L 307.493006 295.488 
L 307.817985 295.488 
L 308.142965 292.528012 
L 308.467944 295.488 
L 311.067781 295.488 
L 311.39276 293.169439 
L 311.71774 291.992909 
L 312.042719 295.488 
L 313.667617 295.488 
L 313.992596 291.847313 
L 314.317576 295.488 
L 324.716921 295.488 
L 325.0419 292.783411 
L 325.36688 295.488 
L 329.266634 295.488 
L 329.591613 291.851201 
L 329.916593 295.488 
L 334.141327 295.488 
L 334.466306 292.984355 
L 334.791286 295.488 
L 335.116265 295.488 
L 335.441245 292.197471 
L 335.766224 295.488 
L 339.01602 295.488 
L 339.340999 292.978683 
L 339.665979 295.488 
L 341.615856 295.488 
L 341.940835 293.02671 
L 342.265815 295.488 
L 345.190631 295.488 
L 345.51561 293.01119 
L 345.84059 295.488 
L 348.115446 295.488 
L 348.440426 293.500589 
L 348.765405 295.488 
L 349.415364 295.488 
L 349.740344 293.306163 
L 350.065324 295.488 
L 352.990139 295.488 
L 353.315119 293.511439 
L 353.640098 295.488 
L 360.464668 295.488 
L 360.789648 293.201879 
L 361.114627 295.488 
L 361.764586 295.488 
L 362.089566 293.251556 
L 362.414545 295.488 
L 363.714464 295.488 
L 364.039443 293.397662 
L 364.364423 295.488 
L 368.264177 295.488 
L 368.589156 293.816401 
L 368.914136 295.488 
L 378.338542 295.488 
L 378.663522 293.740115 
L 378.988501 295.488 
L 379.313481 293.483683 
L 379.63846 295.488 
L 381.913317 295.488 
L 382.238296 293.45852 
L 382.563276 295.488 
L 387.112989 295.488 
L 387.437969 293.462184 
L 387.762948 295.488 
L 388.087928 293.149577 
L 388.412907 295.488 
L 388.737887 293.510045 
L 389.062867 295.488 
L 389.712826 295.488 
L 390.037805 293.136584 
L 390.362785 295.488 
L 398.487273 295.488 
L 398.487273 295.488 
" clip-path="url(#p67718f8fdf)" style="fill: none; stroke: #008000; stroke-width: 1.5; stroke-linecap: square"/>
   </g>
   <g id="line2d_14">
    <path d="M 73.832727 295.488 
L 97.556233 295.488 
L 97.881212 250.9251 
L 98.206192 239.624739 
L 98.856151 274.419602 
L 99.18113 282.711865 
L 99.50611 272.313693 
L 99.831089 251.852178 
L 100.156069 261.241224 
L 100.481048 251.80279 
L 100.806028 261.204468 
L 101.131007 253.79948 
L 101.455987 262.399575 
L 101.780966 263.421241 
L 102.105946 262.385335 
L 102.430925 251.890642 
L 102.755905 263.19632 
L 103.080885 261.819269 
L 103.405864 251.130501 
L 103.730844 281.682153 
L 104.055823 252.620232 
L 104.380803 268.017904 
L 104.705782 254.028992 
L 105.030762 275.656032 
L 105.355741 259.986744 
L 105.680721 272.638154 
L 106.0057 276.329356 
L 106.33068 264.665942 
L 106.655659 271.984388 
L 106.980639 274.637507 
L 107.305618 279.183969 
L 107.630598 269.798625 
L 107.955577 273.611513 
L 108.280557 275.793064 
L 108.605536 265.52557 
L 108.930516 267.83044 
L 109.255495 269.220911 
L 109.580475 266.248227 
L 109.905455 267.758485 
L 110.230434 271.720966 
L 110.555414 271.73046 
L 110.880393 270.631968 
L 111.205373 264.970233 
L 111.530352 275.970591 
L 111.855332 275.299169 
L 112.180311 280.736764 
L 112.505291 288.795331 
L 112.83027 271.098647 
L 113.15525 281.822093 
L 113.480229 270.191991 
L 113.805209 272.927042 
L 114.130188 280.071766 
L 114.455168 280.251473 
L 114.780147 275.883873 
L 115.105127 274.724006 
L 115.430106 279.894162 
L 115.755086 259.72723 
L 116.080066 274.243133 
L 116.405045 243.057769 
L 116.730025 247.164357 
L 117.055004 278.120059 
L 117.379984 271.597227 
L 117.704963 272.670484 
L 118.029943 271.576846 
L 118.354922 276.917797 
L 118.679902 273.913931 
L 119.004881 265.22557 
L 119.329861 263.379257 
L 119.97982 270.559283 
L 120.304799 250.190886 
L 120.629779 276.702583 
L 121.279738 260.050081 
L 121.604717 260.013169 
L 121.929697 244.281372 
L 122.254676 262.967977 
L 122.579656 272.383609 
L 122.904636 260.88539 
L 123.229615 269.207151 
L 123.554595 255.121996 
L 123.879574 261.541558 
L 124.204554 262.446939 
L 124.529533 262.898441 
L 124.854513 255.87784 
L 125.179492 261.437227 
L 125.504472 252.917457 
L 125.829451 253.373243 
L 126.154431 247.010721 
L 126.47941 207.747977 
L 126.80439 253.287868 
L 127.129369 245.869112 
L 127.454349 247.2141 
L 127.779328 218.40866 
L 128.104308 222.446107 
L 128.429287 229.833922 
L 128.754267 221.492696 
L 129.079247 184.460532 
L 129.404226 190.583754 
L 129.729206 214.547157 
L 130.054185 251.57017 
L 130.379165 250.765557 
L 130.704144 239.081586 
L 131.029124 248.722856 
L 131.354103 111.986388 
L 131.679083 142.798731 
L 132.004062 242.507895 
L 132.329042 207.024648 
L 132.654021 231.825299 
L 133.30398 241.316754 
L 133.953939 234.174568 
L 134.278919 245.777202 
L 134.928878 211.684604 
L 135.253857 219.429256 
L 135.578837 244.520386 
L 135.903817 63.907468 
L 136.553776 240.111054 
L 136.878755 243.86361 
L 137.203735 53.568 
L 137.528714 243.017907 
L 137.853694 249.372822 
L 138.178673 166.25221 
L 138.503653 255.390475 
L 138.828632 165.160384 
L 139.153612 143.510995 
L 139.478591 253.826557 
L 139.803571 225.896784 
L 140.12855 224.677497 
L 140.45353 213.224394 
L 140.778509 166.596266 
L 141.103489 248.737315 
L 141.428468 242.767478 
L 141.753448 252.642273 
L 142.078428 252.8243 
L 142.403407 249.726616 
L 142.728387 200.189606 
L 143.053366 205.851727 
L 143.378346 188.53944 
L 143.703325 151.187361 
L 144.028305 185.521862 
L 144.353284 245.2341 
L 144.678264 245.574411 
L 145.003243 240.684697 
L 145.328223 247.838337 
L 145.653202 249.507816 
L 145.978182 208.405715 
L 146.303161 247.145315 
L 146.628141 257.805097 
L 146.95312 252.330041 
L 147.2781 254.595214 
L 147.603079 248.092182 
L 147.928059 228.860997 
L 148.253038 252.613488 
L 148.578018 257.379736 
L 148.902998 244.295398 
L 149.227977 261.693219 
L 149.552957 221.819115 
L 149.877936 244.771704 
L 150.527895 218.302485 
L 150.852875 259.142117 
L 151.177854 243.412579 
L 151.502834 251.859738 
L 152.152793 253.908088 
L 152.477772 261.699865 
L 152.802752 220.170316 
L 153.452711 257.996939 
L 153.77769 260.075063 
L 154.10267 251.793311 
L 154.427649 252.667745 
L 154.752629 259.517782 
L 155.077609 269.79447 
L 155.402588 269.330566 
L 155.727568 266.541489 
L 156.052547 261.164848 
L 156.377527 252.089872 
L 156.702506 255.974328 
L 157.027486 211.054046 
L 157.352465 253.756774 
L 157.677445 262.377389 
L 158.002424 214.873837 
L 158.327404 243.434115 
L 158.652383 226.261726 
L 158.977363 263.026125 
L 159.302342 262.414357 
L 159.627322 262.867115 
L 159.952301 238.029811 
L 160.277281 264.749481 
L 160.60226 223.057667 
L 160.92724 270.759357 
L 161.252219 215.085321 
L 161.577199 264.182004 
L 161.902179 207.351306 
L 162.227158 254.005181 
L 162.552138 268.39813 
L 162.877117 262.886126 
L 163.202097 261.346469 
L 163.527076 243.376378 
L 163.852056 267.217016 
L 164.177035 258.613474 
L 164.502015 273.710791 
L 164.826994 261.308893 
L 165.151974 270.665494 
L 165.476953 272.304783 
L 165.801933 271.118288 
L 166.126912 268.569095 
L 166.451892 269.630955 
L 166.776871 238.721788 
L 167.101851 268.44573 
L 167.42683 240.741423 
L 167.75181 274.313824 
L 168.07679 268.157159 
L 168.401769 264.517738 
L 168.726749 273.239176 
L 169.051728 248.760951 
L 169.376708 198.4266 
L 169.701687 220.037772 
L 170.026667 227.143835 
L 170.351646 201.571295 
L 170.676626 225.503568 
L 171.001605 223.972088 
L 171.326585 250.883008 
L 171.651564 264.062991 
L 171.976544 253.559877 
L 172.301523 258.182102 
L 172.626503 257.240759 
L 172.951482 268.61305 
L 173.276462 265.864796 
L 173.601441 269.358543 
L 173.926421 267.487209 
L 174.2514 218.994007 
L 174.57638 250.185748 
L 174.90136 245.363489 
L 175.226339 249.525741 
L 175.551319 235.563173 
L 175.876298 262.255833 
L 176.201278 221.844529 
L 176.526257 271.893308 
L 176.851237 276.033662 
L 177.176216 247.471523 
L 177.501196 258.583006 
L 177.826175 244.43252 
L 178.151155 243.788336 
L 178.476134 245.860314 
L 178.801114 253.46822 
L 179.126093 251.729191 
L 179.776052 240.477701 
L 180.101032 272.888685 
L 180.426011 108.128396 
L 180.750991 205.144124 
L 181.075971 218.875189 
L 181.40095 243.953448 
L 181.72593 258.769084 
L 182.050909 257.371156 
L 182.700868 272.965259 
L 183.025848 281.510972 
L 183.350827 214.131733 
L 183.675807 265.62589 
L 184.325766 278.557114 
L 184.650745 268.25769 
L 184.975725 268.092281 
L 185.300704 264.754028 
L 185.625684 271.342104 
L 185.950663 261.687478 
L 186.275643 270.991621 
L 186.600622 256.654698 
L 186.925602 267.129708 
L 187.250581 273.21904 
L 187.575561 272.023919 
L 187.900541 272.641845 
L 188.22552 272.889444 
L 188.5505 264.94335 
L 188.875479 264.090643 
L 189.200459 211.927561 
L 189.525438 272.650906 
L 189.850418 274.544603 
L 190.175397 238.016613 
L 190.500377 271.091073 
L 190.825356 268.259748 
L 191.150336 258.256192 
L 191.475315 272.819833 
L 191.800295 240.399428 
L 192.125274 234.209547 
L 192.450254 224.971665 
L 192.775233 269.164615 
L 193.100213 271.485749 
L 193.425192 267.36535 
L 193.750172 273.239683 
L 194.075152 253.28463 
L 194.400131 269.501922 
L 194.725111 275.956202 
L 195.05009 276.707463 
L 195.37507 271.898871 
L 195.700049 261.928961 
L 196.025029 271.389481 
L 196.350008 272.111238 
L 196.674988 262.41331 
L 196.999967 277.511611 
L 197.324947 257.973837 
L 197.649926 276.055847 
L 197.974906 278.225754 
L 198.299885 274.243854 
L 198.624865 275.672999 
L 198.949844 280.140517 
L 199.274824 271.184199 
L 199.599803 282.268208 
L 199.924783 275.698185 
L 200.249762 275.418997 
L 200.574742 267.662239 
L 200.899722 281.645658 
L 201.224701 172.910253 
L 201.549681 212.288937 
L 201.87466 223.221829 
L 202.19964 276.596769 
L 202.524619 237.990971 
L 202.849599 273.016991 
L 203.174578 269.759661 
L 203.499558 273.91553 
L 203.824537 267.575017 
L 204.474496 282.308385 
L 204.799476 275.790185 
L 205.124455 275.714547 
L 205.449435 280.339093 
L 205.774414 280.553732 
L 206.099394 283.954188 
L 206.424373 241.263617 
L 206.749353 259.320886 
L 207.074333 255.08712 
L 207.399312 274.929409 
L 207.724292 272.786693 
L 208.049271 285.654193 
L 208.374251 275.541797 
L 208.69923 273.954566 
L 209.02421 197.097138 
L 209.349189 261.597687 
L 209.674169 269.209126 
L 209.999148 282.211121 
L 210.649107 271.391978 
L 210.974087 286.205975 
L 211.299066 286.60311 
L 211.624046 269.489048 
L 211.949025 261.707998 
L 212.274005 273.924926 
L 212.598984 277.117419 
L 212.923964 275.757921 
L 213.248943 282.056576 
L 213.573923 272.158691 
L 213.898903 281.130896 
L 214.223882 281.818906 
L 214.548862 280.430611 
L 214.873841 283.685292 
L 215.198821 285.416448 
L 215.5238 284.092515 
L 215.84878 279.295935 
L 216.173759 286.895648 
L 216.498739 231.919626 
L 216.823718 227.576757 
L 217.148698 193.611231 
L 217.473677 217.543205 
L 217.798657 224.352233 
L 218.123636 258.265602 
L 218.448616 278.303916 
L 218.773595 282.571039 
L 219.098575 272.916092 
L 219.423554 216.437092 
L 219.748534 221.057119 
L 220.073514 232.983783 
L 220.398493 234.495877 
L 220.723473 271.041359 
L 221.048452 281.359311 
L 221.373432 276.293743 
L 221.698411 276.434508 
L 222.023391 274.762455 
L 222.34837 257.865329 
L 222.67335 270.732391 
L 222.998329 274.102657 
L 223.323309 274.154243 
L 223.648288 273.268734 
L 223.973268 276.943497 
L 224.298247 275.403121 
L 224.623227 275.335293 
L 224.948206 276.065369 
L 225.273186 272.810115 
L 225.598165 273.640801 
L 225.923145 282.568535 
L 226.248124 279.957214 
L 226.573104 273.57102 
L 226.898084 274.199529 
L 227.223063 277.323749 
L 227.548043 274.595793 
L 227.873022 270.69056 
L 228.198002 270.117381 
L 228.522981 278.903136 
L 228.847961 250.123431 
L 229.17294 272.050385 
L 229.49792 256.163712 
L 229.822899 271.762667 
L 230.147879 279.392281 
L 230.472858 249.842284 
L 230.797838 266.165807 
L 231.122817 270.525909 
L 231.447797 277.784612 
L 231.772776 276.70184 
L 232.097756 275.10187 
L 232.422735 286.716788 
L 232.747715 239.405567 
L 233.397674 277.767821 
L 233.722654 277.214889 
L 234.047633 283.01235 
L 234.372613 272.89314 
L 235.022572 280.908329 
L 235.347551 276.454143 
L 235.672531 281.219838 
L 235.99751 274.825564 
L 236.32249 282.718361 
L 236.647469 277.350818 
L 236.972449 282.095297 
L 237.297428 218.048434 
L 237.622408 248.332306 
L 237.947387 246.419164 
L 238.272367 258.329708 
L 238.597346 262.37159 
L 238.922326 277.633286 
L 239.572285 258.897129 
L 240.222244 276.777515 
L 240.547224 256.576531 
L 240.872203 210.14048 
L 241.197183 272.463004 
L 241.522162 276.717842 
L 241.847142 279.281382 
L 242.172121 265.811372 
L 242.497101 281.851753 
L 243.14706 272.934227 
L 243.472039 287.045251 
L 244.121998 275.154571 
L 244.446978 276.190813 
L 244.771957 286.414691 
L 245.096937 288.83663 
L 245.421916 287.893667 
L 246.071876 283.330235 
L 246.396855 255.277017 
L 246.721835 259.327968 
L 247.046814 249.81481 
L 247.371794 266.884217 
L 247.696773 267.769506 
L 248.021753 273.427829 
L 248.346732 272.726883 
L 248.671712 274.11938 
L 248.996691 288.575376 
L 249.321671 278.635548 
L 249.64665 277.666385 
L 249.97163 236.594712 
L 250.296609 239.297014 
L 250.621589 277.162363 
L 250.946568 267.202943 
L 251.596527 279.997178 
L 251.921507 259.115007 
L 252.246486 281.793902 
L 252.571466 281.505081 
L 252.896446 253.655515 
L 253.221425 251.333353 
L 253.546405 282.785018 
L 253.871384 278.288479 
L 254.196364 278.740161 
L 254.521343 262.863738 
L 255.171302 285.169289 
L 255.496282 273.302168 
L 255.821261 238.210904 
L 256.146241 279.993815 
L 256.47122 225.070935 
L 256.7962 199.824775 
L 257.121179 215.196129 
L 257.446159 260.427637 
L 257.771138 272.95894 
L 258.096118 278.27057 
L 258.421097 231.203179 
L 258.746077 258.366408 
L 259.071057 271.524886 
L 259.396036 225.102509 
L 260.045995 269.842261 
L 260.370975 269.807916 
L 260.695954 250.408483 
L 261.020934 258.959915 
L 261.345913 259.502982 
L 261.670893 260.468743 
L 261.995872 249.030119 
L 262.320852 252.617385 
L 262.645831 272.996266 
L 262.970811 269.611074 
L 263.29579 235.097483 
L 263.62077 258.587727 
L 263.945749 251.321549 
L 264.595708 275.3425 
L 264.920688 260.38687 
L 265.245667 269.209284 
L 265.570647 262.393945 
L 265.895627 233.370544 
L 266.220606 232.731393 
L 266.545586 249.135564 
L 266.870565 273.602887 
L 267.195545 257.790552 
L 267.520524 259.436182 
L 268.170483 281.648705 
L 268.495463 280.361605 
L 268.820442 285.467765 
L 269.145422 285.472975 
L 269.470401 281.447267 
L 269.795381 274.968363 
L 270.12036 279.709118 
L 270.44534 279.046112 
L 270.770319 279.965591 
L 271.095299 279.727863 
L 271.420278 268.359338 
L 271.745258 267.142475 
L 272.070238 271.749552 
L 272.395217 274.153193 
L 272.720197 264.018303 
L 273.045176 283.785135 
L 273.370156 283.16527 
L 273.695135 276.234799 
L 274.020115 274.939052 
L 274.345094 278.015493 
L 274.670074 283.858189 
L 274.995053 269.884728 
L 275.320033 273.970252 
L 275.645012 274.94634 
L 275.969992 277.803455 
L 276.294971 274.927526 
L 276.619951 260.824747 
L 276.94493 268.930206 
L 277.26991 247.688978 
L 277.594889 235.457698 
L 277.919869 242.833981 
L 278.244848 262.970629 
L 278.569828 264.236158 
L 278.894808 275.232479 
L 279.219787 277.858554 
L 279.544767 260.275738 
L 279.869746 261.435866 
L 280.194726 274.466171 
L 280.519705 249.455012 
L 280.844685 271.038382 
L 281.169664 262.75899 
L 281.494644 281.192413 
L 282.144603 278.410519 
L 282.794562 209.593673 
L 283.119541 282.670616 
L 283.444521 248.692365 
L 283.7695 231.372079 
L 284.09448 254.023043 
L 284.419459 258.379035 
L 285.069419 271.310525 
L 285.719378 279.225905 
L 286.044357 274.941738 
L 286.369337 278.353926 
L 286.694316 277.958998 
L 287.019296 284.170734 
L 287.344275 284.857508 
L 287.669255 283.966815 
L 287.994234 276.712154 
L 288.319214 279.723483 
L 288.969173 280.905292 
L 289.294152 283.546716 
L 289.619132 269.721179 
L 289.944111 272.261669 
L 290.269091 279.276699 
L 290.59407 279.918294 
L 290.91905 281.246573 
L 291.244029 271.933367 
L 291.569009 258.737622 
L 291.893989 279.446078 
L 292.218968 272.129836 
L 292.543948 269.309216 
L 292.868927 271.55561 
L 293.193907 264.770545 
L 293.518886 283.134606 
L 293.843866 250.2989 
L 294.168845 280.363842 
L 294.493825 260.984369 
L 294.818804 228.377565 
L 295.143784 236.860961 
L 295.468763 234.213091 
L 295.793743 252.853993 
L 296.768681 284.692072 
L 297.093661 280.438517 
L 297.41864 280.798271 
L 297.74362 283.279179 
L 298.0686 282.988106 
L 298.718559 284.078848 
L 299.043538 223.113021 
L 299.368518 259.819805 
L 299.693497 283.221284 
L 300.018477 274.641151 
L 300.343456 276.376463 
L 300.993415 284.466449 
L 301.318395 275.622442 
L 301.643374 281.782991 
L 301.968354 268.573397 
L 302.293333 283.461871 
L 302.618313 270.056981 
L 302.943292 264.172022 
L 303.268272 280.765402 
L 303.593251 256.564249 
L 303.918231 274.529774 
L 304.56819 285.870359 
L 304.89317 284.227041 
L 305.218149 260.139613 
L 305.543129 248.099103 
L 305.868108 241.858807 
L 306.193088 269.437205 
L 306.518067 253.663209 
L 306.843047 269.614771 
L 307.168026 274.333827 
L 307.493006 258.216394 
L 307.817985 257.699039 
L 308.142965 282.483333 
L 308.792924 289.704549 
L 309.117903 283.436571 
L 309.767862 289.351187 
L 310.417821 280.091766 
L 310.742801 260.999025 
L 311.39276 287.234791 
L 311.71774 284.144866 
L 312.042719 255.459041 
L 312.367699 270.892945 
L 312.692678 214.676163 
L 313.017658 255.192442 
L 313.342637 277.767002 
L 313.667617 285.892223 
L 313.992596 283.415599 
L 314.317576 274.276729 
L 314.642555 213.156125 
L 314.967535 279.494011 
L 315.292514 272.904557 
L 315.617494 274.224207 
L 315.942473 244.935455 
L 316.267453 279.030804 
L 316.592432 289.41035 
L 316.917412 259.185128 
L 317.242391 281.479893 
L 317.567371 287.402513 
L 317.892351 287.179648 
L 318.21733 285.200801 
L 318.54231 285.73939 
L 318.867289 291.009012 
L 319.192269 281.982309 
L 319.517248 288.036865 
L 319.842228 287.999887 
L 320.167207 285.596044 
L 320.492187 287.769686 
L 320.817166 288.876776 
L 321.142146 282.883107 
L 321.467125 285.632126 
L 321.792105 287.110802 
L 322.117084 289.764346 
L 322.442064 285.3477 
L 322.767043 286.718692 
L 323.092023 283.908873 
L 323.417002 286.569244 
L 324.066962 289.540842 
L 324.391941 287.590337 
L 324.716921 287.737749 
L 325.0419 284.132923 
L 325.36688 268.231507 
L 325.691859 260.233912 
L 326.016839 282.539411 
L 326.341818 289.773816 
L 326.666798 286.333829 
L 326.991777 286.546724 
L 327.316757 286.190688 
L 327.641736 290.459784 
L 327.966716 288.624748 
L 328.291695 288.247978 
L 328.616675 289.991759 
L 328.941654 282.333016 
L 329.266634 286.942696 
L 329.591613 284.656952 
L 329.916593 277.853199 
L 330.241572 259.954937 
L 330.566552 286.900711 
L 330.891532 258.523324 
L 331.216511 284.999021 
L 331.541491 264.240313 
L 331.86647 280.859676 
L 332.19145 272.349258 
L 332.516429 282.308142 
L 332.841409 263.919288 
L 333.166388 262.747411 
L 333.491368 272.700354 
L 333.816347 270.596575 
L 334.141327 263.262589 
L 334.466306 287.618432 
L 334.791286 240.962966 
L 335.116265 284.906229 
L 335.441245 284.095645 
L 335.766224 257.074922 
L 336.091204 285.091279 
L 336.416183 269.385945 
L 337.066143 286.122847 
L 337.391122 283.561208 
L 338.041081 288.806256 
L 338.366061 286.867786 
L 338.69104 287.520791 
L 339.01602 285.893454 
L 339.340999 286.390479 
L 339.665979 274.78741 
L 339.990958 272.032676 
L 340.315938 284.466726 
L 340.640917 289.022357 
L 341.290876 284.466551 
L 341.615856 291.639222 
L 341.940835 288.455818 
L 342.265815 267.45401 
L 342.590794 265.775115 
L 342.915774 280.054178 
L 343.240753 239.108683 
L 343.565733 253.455738 
L 343.890713 218.758276 
L 344.215692 253.288518 
L 344.540672 251.789256 
L 344.865651 240.505059 
L 345.190631 234.365561 
L 345.51561 286.563091 
L 345.84059 258.352846 
L 346.165569 245.740001 
L 346.490549 267.721973 
L 346.815528 261.766501 
L 347.140508 281.298783 
L 347.465487 274.131643 
L 347.790467 279.388751 
L 348.115446 279.654346 
L 348.440426 270.79661 
L 348.765405 274.902126 
L 349.090385 284.926821 
L 349.415364 285.532628 
L 349.740344 288.259743 
L 350.065324 258.880398 
L 350.390303 267.212042 
L 350.715283 265.558932 
L 351.040262 279.624662 
L 351.365242 281.227518 
L 351.690221 287.902079 
L 352.015201 281.284649 
L 352.34018 288.366767 
L 352.66516 290.619334 
L 352.990139 288.189692 
L 353.315119 272.660498 
L 353.640098 266.958035 
L 353.965078 273.442725 
L 354.290057 268.530649 
L 354.615037 280.941275 
L 354.940016 284.59433 
L 355.264996 286.423465 
L 355.589975 290.065652 
L 355.914955 289.664649 
L 356.239934 272.283563 
L 356.564914 289.937466 
L 356.889894 280.805548 
L 357.214873 289.180725 
L 357.539853 289.789886 
L 357.864832 266.66424 
L 358.189812 288.008565 
L 358.514791 288.649138 
L 358.839771 291.150459 
L 359.16475 290.805938 
L 359.48973 290.182337 
L 359.814709 288.082215 
L 360.139689 288.451505 
L 360.464668 291.162299 
L 360.789648 270.621755 
L 361.114627 271.895541 
L 361.764586 278.653664 
L 362.414545 264.817247 
L 363.064505 280.846216 
L 363.389484 281.530116 
L 363.714464 286.978845 
L 364.039443 290.013825 
L 364.364423 273.541462 
L 364.689402 272.656393 
L 365.014382 287.681021 
L 365.339361 269.752292 
L 365.664341 283.352745 
L 365.98932 284.362206 
L 366.3143 287.221034 
L 366.639279 271.796554 
L 367.289238 281.221368 
L 367.614218 285.061855 
L 367.939197 285.977228 
L 368.264177 287.499047 
L 368.589156 289.80637 
L 368.914136 285.814306 
L 369.239115 288.83198 
L 369.564095 285.588366 
L 369.889075 258.879365 
L 370.214054 268.617599 
L 370.539034 284.077399 
L 370.864013 272.780969 
L 371.188993 287.496494 
L 371.513972 287.791802 
L 371.838952 273.200562 
L 372.163931 289.002746 
L 372.488911 289.277569 
L 372.81389 288.797797 
L 373.13887 289.150769 
L 373.463849 288.059891 
L 373.788829 290.82084 
L 374.438788 288.35411 
L 374.763767 275.565205 
L 375.088747 256.905133 
L 375.413726 282.734359 
L 375.738706 257.285737 
L 376.388665 277.038014 
L 376.713645 280.503487 
L 377.038624 272.69001 
L 377.688583 286.049965 
L 378.013563 284.292363 
L 378.338542 283.842012 
L 378.663522 272.124509 
L 378.988501 265.173015 
L 379.313481 273.782762 
L 379.63846 279.001511 
L 379.96344 289.622519 
L 380.288419 285.817045 
L 380.938378 290.648689 
L 381.263358 287.600535 
L 381.588337 287.510783 
L 381.913317 279.643995 
L 382.238296 287.230403 
L 382.563276 273.057148 
L 382.888256 266.316962 
L 383.213235 246.004734 
L 383.538215 281.54116 
L 383.863194 276.058917 
L 384.188174 285.01101 
L 384.513153 289.172567 
L 384.838133 290.429366 
L 385.163112 288.351201 
L 385.488092 290.228101 
L 385.813071 285.4226 
L 386.138051 289.954452 
L 386.46303 290.43216 
L 386.78801 289.580683 
L 387.112989 289.734154 
L 387.437969 277.332587 
L 387.762948 273.029627 
L 388.087928 279.167423 
L 388.412907 280.277378 
L 388.737887 287.35711 
L 389.062867 255.554001 
L 389.387846 273.206014 
L 389.712826 283.508366 
L 390.037805 283.788497 
L 390.362785 265.332145 
L 390.687764 278.891671 
L 391.012744 284.372677 
L 391.337723 286.088852 
L 391.662703 277.342549 
L 391.987682 275.532295 
L 392.312662 277.517356 
L 392.637641 286.003599 
L 392.962621 275.462293 
L 393.2876 286.305942 
L 393.61258 289.304541 
L 393.937559 285.671682 
L 394.262539 287.931484 
L 394.587518 284.806862 
L 394.912498 289.527804 
L 395.237477 289.227358 
L 395.562457 290.457424 
L 395.887437 291.249397 
L 396.212416 288.852452 
L 396.537396 291.158575 
L 397.187355 290.719524 
L 397.837314 290.502082 
L 398.162293 292.661433 
L 398.487273 290.593223 
L 398.487273 290.593223 
" clip-path="url(#p67718f8fdf)" style="fill: none; stroke: #ff0000; stroke-width: 1.5; stroke-linecap: square"/>
   </g>
   <g id="line2d_15">
    <path d="M 73.832727 295.488 
L 97.556233 295.488 
L 97.881212 293.710239 
L 98.206192 282.769659 
L 98.531171 284.909369 
L 99.18113 292.809273 
L 99.50611 294.346952 
L 99.831089 284.27419 
L 100.156069 290.578266 
L 100.481048 285.798875 
L 100.806028 293.800224 
L 101.131007 286.710427 
L 101.455987 285.868271 
L 101.780966 287.785206 
L 102.105946 286.166651 
L 102.430925 291.691738 
L 102.755905 287.131575 
L 103.080885 284.587725 
L 103.405864 286.116486 
L 103.730844 295.005094 
L 104.055823 283.997261 
L 104.380803 290.687144 
L 104.705782 289.307552 
L 105.030762 289.104405 
L 105.355741 285.104523 
L 105.680721 293.410468 
L 106.33068 287.748184 
L 106.655659 287.705218 
L 106.980639 289.95003 
L 107.305618 290.488028 
L 107.630598 289.223368 
L 107.955577 294.04324 
L 108.280557 289.626217 
L 108.605536 287.120621 
L 108.930516 290.760126 
L 109.255495 286.840394 
L 109.580475 289.874626 
L 109.905455 290.197383 
L 110.230434 288.883058 
L 110.555414 290.245203 
L 110.880393 290.180398 
L 111.205373 288.832377 
L 111.530352 291.742145 
L 111.855332 291.055487 
L 112.180311 292.038966 
L 112.505291 295.278854 
L 112.83027 289.775633 
L 113.15525 292.451783 
L 113.480229 290.388659 
L 113.805209 294.006558 
L 114.130188 290.662653 
L 114.455168 291.387806 
L 115.105127 288.725633 
L 115.430106 294.873681 
L 115.755086 291.380653 
L 116.080066 289.292123 
L 116.730025 293.303084 
L 117.379984 285.230039 
L 117.704963 287.916663 
L 118.029943 287.079434 
L 118.354922 287.355926 
L 118.679902 290.503185 
L 119.004881 285.931727 
L 119.329861 285.389168 
L 119.65484 282.607455 
L 119.97982 284.471385 
L 120.304799 282.876395 
L 120.629779 294.360784 
L 120.954758 283.519236 
L 121.279738 283.149275 
L 121.604717 280.854032 
L 121.929697 287.313846 
L 122.254676 281.615048 
L 122.579656 282.394 
L 122.904636 279.512993 
L 123.229615 281.315547 
L 123.554595 281.518166 
L 123.879574 285.854628 
L 124.204554 283.508161 
L 124.854513 276.245334 
L 125.504472 275.547129 
L 125.829451 274.524772 
L 126.154431 278.285399 
L 126.47941 286.321077 
L 126.80439 275.550144 
L 127.129369 272.229883 
L 127.454349 281.945666 
L 127.779328 271.011349 
L 128.104308 273.457409 
L 128.429287 282.698533 
L 128.754267 281.550955 
L 129.079247 281.712073 
L 129.404226 292.209742 
L 130.054185 272.331568 
L 130.379165 273.371572 
L 130.704144 272.50502 
L 131.029124 271.321285 
L 131.679083 290.71646 
L 132.004062 261.251456 
L 132.329042 267.319094 
L 132.654021 292.818777 
L 132.979001 264.837825 
L 133.62896 271.613436 
L 133.953939 268.662741 
L 134.278919 293.030288 
L 134.603898 279.259947 
L 134.928878 283.447002 
L 135.253857 290.692656 
L 135.578837 265.623993 
L 136.228796 285.987131 
L 136.553776 265.80089 
L 136.878755 265.931273 
L 137.203735 272.500416 
L 137.528714 265.0353 
L 137.853694 266.931003 
L 138.178673 278.67061 
L 138.503653 267.304013 
L 138.828632 291.415262 
L 139.153612 271.612014 
L 139.478591 267.788889 
L 139.803571 285.471791 
L 140.12855 293.275172 
L 140.45353 285.612084 
L 140.778509 262.057275 
L 141.103489 265.140486 
L 141.753448 264.238997 
L 142.078428 264.72242 
L 142.403407 266.793382 
L 142.728387 264.888438 
L 143.053366 272.165784 
L 143.378346 269.259275 
L 143.703325 276.272919 
L 144.028305 278.479175 
L 144.353284 264.984084 
L 144.678264 291.404664 
L 145.003243 276.017085 
L 145.328223 288.460573 
L 145.653202 264.262227 
L 145.978182 291.583646 
L 146.303161 264.406031 
L 146.628141 267.698829 
L 147.2781 288.945568 
L 147.603079 268.102796 
L 147.928059 277.677835 
L 148.253038 269.368058 
L 148.578018 268.510524 
L 148.902998 284.172303 
L 149.227977 271.252804 
L 149.552957 270.334723 
L 149.877936 283.603197 
L 150.202916 272.577828 
L 150.527895 272.388057 
L 150.852875 272.613522 
L 151.177854 286.762948 
L 151.502834 277.600202 
L 151.827813 289.402736 
L 152.152793 273.227292 
L 152.477772 274.283218 
L 152.802752 289.121039 
L 153.127731 287.081188 
L 153.452711 272.677926 
L 153.77769 276.128703 
L 154.10267 291.280599 
L 154.427649 273.165425 
L 154.752629 282.950654 
L 155.077609 277.844367 
L 155.402588 277.519679 
L 155.727568 292.66388 
L 156.052547 285.705785 
L 156.377527 288.24671 
L 156.702506 276.175598 
L 157.027486 274.693547 
L 157.352465 274.819004 
L 157.677445 275.26985 
L 158.002424 284.168095 
L 158.327404 282.893566 
L 158.652383 279.751238 
L 158.977363 278.317099 
L 159.302342 278.560374 
L 159.627322 280.772751 
L 159.952301 280.571654 
L 160.277281 293.935987 
L 160.60226 279.268519 
L 160.92724 278.62015 
L 161.252219 281.616667 
L 161.577199 278.978818 
L 161.902179 278.791678 
L 162.227158 286.583174 
L 162.552138 280.704176 
L 162.877117 281.217089 
L 163.202097 280.461935 
L 163.527076 285.545668 
L 163.852056 280.226996 
L 164.177035 293.582027 
L 164.502015 282.258777 
L 164.826994 281.843947 
L 165.151974 291.670662 
L 165.801933 289.545776 
L 166.126912 292.774405 
L 166.451892 283.116116 
L 166.776871 291.134253 
L 167.101851 282.947607 
L 167.42683 293.275638 
L 167.75181 284.51828 
L 168.07679 282.328511 
L 168.401769 283.713044 
L 168.726749 283.908939 
L 169.051728 291.986618 
L 169.376708 282.543848 
L 169.701687 292.413957 
L 170.026667 293.352245 
L 170.351646 284.205972 
L 170.676626 289.692282 
L 171.001605 286.377164 
L 171.326585 285.985293 
L 171.651564 283.623356 
L 171.976544 293.888526 
L 172.301523 293.89858 
L 172.951482 283.765682 
L 173.601441 283.527815 
L 173.926421 282.478896 
L 174.2514 289.115402 
L 174.57638 284.683783 
L 174.90136 290.23032 
L 175.226339 291.023345 
L 175.551319 284.645927 
L 175.876298 281.677486 
L 176.201278 291.245917 
L 176.526257 293.221852 
L 176.851237 283.829857 
L 177.176216 293.987485 
L 177.501196 290.671801 
L 177.826175 285.683396 
L 178.151155 290.813135 
L 178.476134 293.100456 
L 178.801114 292.204605 
L 179.126093 282.860597 
L 179.451073 293.947945 
L 180.426011 277.564944 
L 180.750991 286.079628 
L 181.075971 286.663188 
L 181.40095 286.163102 
L 181.72593 293.229351 
L 182.050909 293.096101 
L 182.375889 292.634358 
L 182.700868 294.302903 
L 183.025848 294.3913 
L 183.350827 285.045555 
L 183.675807 288.624553 
L 184.000786 282.498303 
L 184.325766 284.208987 
L 184.650745 283.084195 
L 184.975725 283.578388 
L 185.300704 283.166778 
L 185.625684 284.739484 
L 185.950663 292.781638 
L 186.275643 283.495147 
L 186.600622 284.147727 
L 186.925602 286.966465 
L 187.250581 285.052697 
L 187.575561 285.631826 
L 187.900541 285.060688 
L 188.5505 288.349346 
L 188.875479 293.741072 
L 189.525438 285.949871 
L 189.850418 286.908219 
L 190.175397 288.728224 
L 190.500377 293.576887 
L 190.825356 291.563079 
L 191.150336 287.688246 
L 191.475315 286.039132 
L 191.800295 293.018726 
L 192.125274 292.451815 
L 192.450254 290.354754 
L 192.775233 284.276512 
L 193.100213 286.248595 
L 193.425192 293.587456 
L 193.750172 286.58618 
L 194.075152 289.786754 
L 194.400131 286.103981 
L 194.725111 287.620552 
L 195.05009 288.041125 
L 195.37507 287.648744 
L 195.700049 292.89388 
L 196.025029 292.38738 
L 196.350008 286.306842 
L 196.674988 289.026573 
L 196.999967 287.2589 
L 197.324947 293.100409 
L 197.649926 286.612443 
L 197.974906 287.680893 
L 198.299885 293.691251 
L 198.624865 292.237095 
L 198.949844 294.157511 
L 199.274824 286.472884 
L 199.599803 287.968262 
L 199.924783 286.463909 
L 200.249762 288.185275 
L 200.574742 292.985173 
L 200.899722 295.055427 
L 201.224701 283.735622 
L 201.549681 290.012495 
L 201.87466 293.229682 
L 202.19964 285.532368 
L 202.524619 291.677978 
L 202.849599 292.854399 
L 203.174578 287.035251 
L 203.499558 293.948732 
L 203.824537 291.145815 
L 204.149517 289.997967 
L 204.474496 292.417237 
L 204.799476 287.617171 
L 205.124455 292.016013 
L 205.449435 291.822188 
L 205.774414 293.271729 
L 206.099394 288.761558 
L 206.424373 292.604211 
L 206.749353 293.159635 
L 207.074333 288.526865 
L 207.399312 287.335915 
L 207.724292 288.745575 
L 208.049271 293.866202 
L 208.374251 288.197892 
L 209.349189 291.623216 
L 209.674169 293.455673 
L 209.999148 288.530231 
L 210.324128 293.117917 
L 210.974087 289.329178 
L 211.299066 289.548915 
L 211.624046 292.333562 
L 212.274005 287.754134 
L 212.598984 289.774117 
L 212.923964 288.961845 
L 213.248943 294.343617 
L 213.573923 292.616468 
L 213.898903 294.70923 
L 214.223882 295.060841 
L 214.548862 293.809152 
L 214.873841 294.021178 
L 215.198821 292.741181 
L 215.5238 293.96135 
L 215.84878 293.413041 
L 216.173759 294.977118 
L 216.498739 286.69122 
L 216.823718 291.766489 
L 217.148698 290.257893 
L 217.798657 289.170069 
L 218.123636 292.726377 
L 218.448616 290.615222 
L 218.773595 289.621135 
L 219.098575 289.753698 
L 219.423554 289.470051 
L 219.748534 288.611095 
L 220.073514 292.634534 
L 220.398493 290.600487 
L 220.723473 286.370864 
L 221.048452 294.534641 
L 221.373432 289.3805 
L 221.698411 292.387966 
L 222.023391 289.516609 
L 222.34837 289.371013 
L 222.67335 287.774689 
L 222.998329 294.342832 
L 223.323309 289.233454 
L 223.648288 289.662471 
L 223.973268 288.925204 
L 224.298247 293.642309 
L 224.623227 288.009121 
L 224.948206 288.516277 
L 225.273186 292.794266 
L 225.598165 294.265581 
L 225.923145 294.337925 
L 226.248124 293.372766 
L 226.573104 293.357653 
L 226.898084 292.63121 
L 227.223063 294.364186 
L 227.548043 293.28611 
L 227.873022 291.138588 
L 228.198002 293.565135 
L 228.522981 289.757423 
L 228.847961 287.946766 
L 229.17294 287.77713 
L 229.49792 291.672813 
L 229.822899 289.541245 
L 230.147879 294.468844 
L 230.472858 288.217672 
L 230.797838 293.494816 
L 231.122817 293.807681 
L 231.447797 294.684068 
L 231.772776 293.9594 
L 232.097756 290.253867 
L 232.422735 295.2139 
L 232.747715 292.455578 
L 233.072695 293.916412 
L 233.397674 291.347846 
L 233.722654 294.061102 
L 234.047633 294.722849 
L 234.372613 291.729622 
L 235.022572 294.839142 
L 235.347551 292.694768 
L 235.672531 293.861292 
L 235.99751 292.858687 
L 236.32249 288.912787 
L 236.647469 292.840068 
L 236.972449 293.682859 
L 237.297428 290.772502 
L 237.622408 291.481286 
L 237.947387 291.43291 
L 238.272367 292.748502 
L 238.597346 292.895458 
L 238.922326 288.325159 
L 239.247305 288.319437 
L 239.572285 292.926687 
L 239.897265 293.761291 
L 240.222244 287.77567 
L 240.547224 290.058566 
L 240.872203 290.473269 
L 241.197183 289.331212 
L 241.522162 293.607028 
L 241.847142 288.690989 
L 242.172121 293.70384 
L 242.497101 293.780764 
L 242.82208 288.677206 
L 243.14706 292.398937 
L 243.797019 288.560044 
L 244.121998 294.236591 
L 244.446978 291.939376 
L 244.771957 294.394064 
L 245.096937 294.155253 
L 245.421916 294.67293 
L 245.746896 294.862241 
L 246.071876 292.919528 
L 246.396855 293.151275 
L 246.721835 294.357999 
L 247.046814 291.415682 
L 247.371794 293.787392 
L 247.696773 291.688463 
L 248.021753 291.60531 
L 248.346732 292.85585 
L 248.671712 291.564667 
L 248.996691 294.916952 
L 249.321671 289.769762 
L 249.64665 287.621447 
L 249.97163 291.852262 
L 250.296609 292.24619 
L 250.621589 288.63506 
L 250.946568 291.799606 
L 251.271548 291.197028 
L 251.596527 295.003912 
L 251.921507 293.557283 
L 252.246486 293.65594 
L 252.571466 286.873701 
L 252.896446 287.66148 
L 253.221425 292.964357 
L 253.546405 287.546898 
L 253.871384 293.879114 
L 254.196364 294.393079 
L 254.521343 292.994799 
L 254.846323 294.161685 
L 255.171302 294.577689 
L 255.496282 288.868699 
L 255.821261 290.236574 
L 256.146241 287.38191 
L 256.47122 289.655098 
L 256.7962 289.243031 
L 257.121179 291.851402 
L 257.446159 289.170861 
L 257.771138 292.869402 
L 258.096118 287.780911 
L 258.421097 288.01137 
L 258.746077 294.32795 
L 259.071057 294.739153 
L 259.396036 290.00248 
L 259.721016 293.763625 
L 260.045995 293.45005 
L 260.695954 287.927354 
L 261.020934 293.151597 
L 261.345913 292.473992 
L 261.670893 293.473478 
L 261.995872 285.935932 
L 262.320852 292.45336 
L 263.29579 290.770046 
L 263.62077 293.533138 
L 263.945749 291.251595 
L 264.270729 293.584785 
L 264.595708 293.665741 
L 264.920688 290.408105 
L 265.245667 294.053724 
L 265.570647 292.455671 
L 265.895627 290.166136 
L 266.220606 285.859677 
L 266.545586 293.566956 
L 266.870565 285.482775 
L 267.195545 292.825497 
L 267.520524 293.759154 
L 267.845504 290.971564 
L 268.170483 294.110434 
L 268.495463 292.813907 
L 268.820442 293.885133 
L 269.145422 294.570574 
L 269.470401 294.359216 
L 269.795381 292.072873 
L 270.12036 294.208824 
L 270.44534 293.938111 
L 270.770319 294.607579 
L 271.095299 293.563471 
L 271.420278 284.771881 
L 271.745258 291.437126 
L 272.070238 292.958153 
L 272.395217 284.213876 
L 272.720197 292.680909 
L 273.045176 292.913408 
L 273.370156 294.06906 
L 273.695135 290.224734 
L 274.020115 293.45057 
L 274.345094 293.860792 
L 274.670074 293.941981 
L 274.995053 292.926004 
L 275.320033 294.072258 
L 275.645012 293.89607 
L 275.969992 293.91916 
L 276.294971 291.504875 
L 276.619951 285.521722 
L 276.94493 286.859086 
L 277.26991 293.459359 
L 278.244848 285.569217 
L 278.569828 285.557854 
L 278.894808 285.310815 
L 279.219787 287.134786 
L 279.544767 286.100255 
L 279.869746 292.873918 
L 280.194726 287.188806 
L 280.519705 292.800169 
L 280.844685 294.150733 
L 281.169664 292.08967 
L 281.494644 293.431378 
L 281.819623 286.081114 
L 282.144603 287.226613 
L 282.469582 292.018184 
L 282.794562 289.592127 
L 283.119541 293.205726 
L 283.444521 292.124816 
L 283.7695 287.241954 
L 284.09448 292.47748 
L 284.419459 293.955011 
L 284.744439 293.216848 
L 285.069419 293.974682 
L 285.394398 292.87473 
L 285.719378 293.970524 
L 286.044357 290.926969 
L 286.369337 294.215624 
L 286.694316 292.570606 
L 287.019296 294.117365 
L 287.344275 294.380907 
L 287.669255 294.0569 
L 287.994234 290.028516 
L 288.319214 292.796491 
L 288.644193 293.362066 
L 288.969173 293.22523 
L 289.294152 294.57616 
L 289.619132 290.82442 
L 289.944111 292.965319 
L 290.269091 293.821565 
L 290.59407 293.972714 
L 290.91905 292.572745 
L 291.244029 292.464859 
L 291.569009 288.18463 
L 291.893989 293.913559 
L 292.218968 292.988815 
L 292.543948 293.992135 
L 292.868927 292.293309 
L 293.518886 287.045246 
L 293.843866 293.90409 
L 294.168845 287.016779 
L 294.493825 292.9889 
L 294.818804 292.03096 
L 295.143784 292.537361 
L 295.468763 290.534934 
L 295.793743 292.031698 
L 296.118722 292.463851 
L 296.443702 293.317216 
L 296.768681 293.786971 
L 297.093661 293.585161 
L 297.41864 293.611068 
L 297.74362 294.508708 
L 298.0686 288.646366 
L 298.393579 289.03399 
L 298.718559 289.621629 
L 299.043538 292.252313 
L 299.368518 292.164802 
L 299.693497 294.543486 
L 300.018477 294.302702 
L 300.343456 293.77235 
L 300.668436 294.618785 
L 300.993415 295.143577 
L 301.318395 293.981601 
L 301.643374 287.187248 
L 301.968354 290.805451 
L 302.293333 288.88474 
L 302.618313 294.398558 
L 302.943292 293.537254 
L 303.268272 288.186201 
L 303.593251 293.235994 
L 303.918231 294.395834 
L 304.24321 294.431423 
L 304.56819 288.716019 
L 304.89317 289.116945 
L 305.218149 293.806819 
L 305.543129 288.337183 
L 305.868108 293.520966 
L 306.193088 292.048662 
L 306.843047 293.259522 
L 307.168026 288.274124 
L 307.493006 293.698105 
L 307.817985 292.528001 
L 308.142965 289.126118 
L 308.467944 295.047176 
L 308.792924 295.307267 
L 309.442883 293.922294 
L 309.767862 295.083198 
L 310.417821 293.900509 
L 310.742801 292.297259 
L 311.067781 293.364536 
L 311.39276 290.323566 
L 311.71774 289.790442 
L 312.042719 291.143321 
L 312.367699 294.719405 
L 312.692678 291.224755 
L 313.017658 293.459211 
L 313.342637 287.728628 
L 313.667617 294.7117 
L 313.992596 288.475995 
L 314.317576 294.236374 
L 314.642555 291.507412 
L 314.967535 293.720178 
L 315.292514 294.570911 
L 315.617494 294.450309 
L 315.942473 290.655452 
L 316.267453 294.444921 
L 316.592432 295.298073 
L 317.242391 291.74657 
L 317.567371 294.687922 
L 318.21733 293.65616 
L 318.54231 294.219559 
L 318.867289 295.226198 
L 319.192269 293.117585 
L 319.842228 294.735961 
L 320.167207 294.433003 
L 320.492187 295.246803 
L 320.817166 295.090753 
L 321.142146 293.688278 
L 322.117084 294.984712 
L 322.442064 293.984683 
L 322.767043 294.729803 
L 323.092023 293.266836 
L 323.417002 294.672372 
L 323.741982 294.577386 
L 324.066962 294.639358 
L 324.391941 295.010698 
L 324.716921 294.924764 
L 325.0419 289.590058 
L 325.36688 294.636235 
L 325.691859 292.942378 
L 326.016839 294.510008 
L 326.341818 294.545076 
L 326.666798 294.797102 
L 326.991777 294.424452 
L 327.316757 294.788633 
L 327.641736 294.941497 
L 328.291695 294.594642 
L 328.616675 295.071262 
L 328.941654 291.565242 
L 329.266634 294.068547 
L 329.591613 290.360534 
L 329.916593 293.019766 
L 330.566552 294.953844 
L 330.891532 293.761859 
L 331.216511 294.303703 
L 331.541491 293.690399 
L 331.86647 294.619159 
L 332.516429 293.579199 
L 332.841409 289.233754 
L 333.166388 293.142245 
L 333.491368 293.789938 
L 333.816347 290.28218 
L 334.141327 293.498002 
L 334.466306 290.367994 
L 334.791286 292.806003 
L 335.116265 294.041335 
L 335.441245 289.774952 
L 335.766224 294.055691 
L 336.091204 294.771017 
L 336.416183 293.931534 
L 337.391122 294.92975 
L 337.716102 292.13804 
L 338.041081 294.97999 
L 338.366061 294.043276 
L 338.69104 294.794781 
L 339.01602 291.716353 
L 339.340999 290.570492 
L 339.665979 294.687305 
L 339.990958 293.677435 
L 340.315938 294.831995 
L 340.640917 294.852412 
L 340.965897 294.145836 
L 341.290876 294.487779 
L 341.615856 295.225409 
L 341.940835 291.359401 
L 342.265815 291.278904 
L 342.590794 294.382018 
L 342.915774 293.979171 
L 343.240753 292.836281 
L 343.565733 294.174492 
L 343.890713 291.346469 
L 344.215692 293.52455 
L 344.540672 294.122414 
L 345.190631 292.497517 
L 345.51561 290.287638 
L 345.84059 293.715894 
L 346.165569 292.836534 
L 346.490549 294.231241 
L 346.815528 294.1857 
L 347.140508 294.592013 
L 347.465487 291.76402 
L 347.790467 294.846348 
L 348.115446 294.686632 
L 348.440426 290.702342 
L 348.765405 294.068166 
L 349.090385 294.935325 
L 349.415364 294.763548 
L 349.740344 291.281846 
L 350.065324 294.05851 
L 350.390303 294.604376 
L 350.715283 292.92624 
L 351.040262 293.672724 
L 351.365242 293.342509 
L 351.690221 294.747267 
L 352.015201 293.819835 
L 352.66516 294.963989 
L 352.990139 295.140757 
L 353.315119 290.619403 
L 353.640098 294.455319 
L 353.965078 294.642315 
L 354.290057 293.435317 
L 354.615037 294.906397 
L 354.940016 294.798449 
L 355.264996 294.853277 
L 355.589975 295.157441 
L 356.239934 294.120873 
L 356.564914 294.865449 
L 356.889894 293.861663 
L 357.539853 295.309934 
L 357.864832 293.277926 
L 358.189812 295.029052 
L 358.514791 295.136356 
L 358.839771 294.793624 
L 359.48973 295.082539 
L 359.814709 294.565454 
L 360.139689 294.394659 
L 360.464668 295.352822 
L 360.789648 290.540675 
L 361.114627 293.823895 
L 361.764586 294.665433 
L 362.089566 290.914399 
L 362.414545 294.243296 
L 362.739525 293.961243 
L 363.064505 294.500164 
L 363.389484 294.275988 
L 363.714464 294.381861 
L 364.039443 291.718444 
L 364.364423 294.661861 
L 364.689402 294.122436 
L 365.014382 294.924293 
L 365.339361 293.611991 
L 365.664341 294.781193 
L 365.98932 294.040356 
L 366.3143 295.134992 
L 366.639279 293.023215 
L 367.289238 294.96417 
L 367.614218 294.207432 
L 368.264177 294.563873 
L 368.589156 292.325372 
L 368.914136 294.776883 
L 369.564095 294.897391 
L 369.889075 293.149123 
L 370.214054 293.357891 
L 370.539034 294.651149 
L 370.864013 294.184947 
L 371.513972 295.247494 
L 371.838952 294.534881 
L 372.163931 294.26536 
L 372.488911 294.412579 
L 372.81389 294.127825 
L 373.13887 294.618079 
L 373.463849 294.512854 
L 373.788829 295.011117 
L 374.113808 294.456058 
L 374.438788 294.412007 
L 374.763767 292.353317 
L 375.088747 293.111837 
L 375.413726 294.609207 
L 375.738706 291.505555 
L 376.063686 293.851821 
L 376.713645 295.019734 
L 377.038624 294.121575 
L 377.363604 294.653168 
L 377.688583 294.578327 
L 378.013563 294.876497 
L 378.338542 294.522547 
L 378.663522 290.418318 
L 378.988501 294.159347 
L 379.313481 290.082659 
L 379.63846 294.444598 
L 379.96344 295.06836 
L 380.288419 294.394182 
L 380.613399 294.905658 
L 380.938378 295.093865 
L 381.263358 294.6002 
L 381.588337 294.948488 
L 381.913317 292.577187 
L 382.238296 291.760597 
L 382.563276 293.83209 
L 382.888256 294.012749 
L 383.213235 292.15969 
L 383.538215 294.678131 
L 383.863194 290.68156 
L 384.188174 294.886689 
L 384.513153 294.627698 
L 385.163112 294.605993 
L 385.488092 295.053142 
L 385.813071 294.757815 
L 386.138051 295.188592 
L 387.112989 294.764504 
L 387.437969 291.756799 
L 387.762948 294.679144 
L 388.087928 290.58248 
L 388.412907 294.931435 
L 388.737887 291.966747 
L 389.062867 293.449449 
L 389.387846 293.941091 
L 389.712826 294.803876 
L 390.037805 290.994062 
L 390.687764 294.145163 
L 391.012744 293.930991 
L 391.337723 294.55005 
L 391.662703 294.061235 
L 392.312662 293.990995 
L 392.637641 295.076273 
L 392.962621 294.377871 
L 393.2876 294.470866 
L 393.61258 295.191342 
L 393.937559 294.423045 
L 394.262539 294.997011 
L 394.587518 294.019898 
L 394.912498 295.090988 
L 395.237477 294.852365 
L 395.562457 294.774301 
L 395.887437 295.355544 
L 396.212416 294.856365 
L 396.537396 294.821402 
L 396.862375 295.070659 
L 397.187355 295.095776 
L 397.512334 294.841191 
L 398.162293 295.351615 
L 398.487273 294.848887 
L 398.487273 294.848887 
" clip-path="url(#p67718f8fdf)" style="fill: none; stroke: #0000ff; stroke-width: 1.5; stroke-linecap: square"/>
   </g>
   <g id="patch_3">
    <path d="M 57.6 307.584 
L 57.6 41.472 
" style="fill: none; stroke: #000000; stroke-width: 0.8; stroke-linejoin: miter; stroke-linecap: square"/>
   </g>
   <g id="patch_4">
    <path d="M 414.72 307.584 
L 414.72 41.472 
" style="fill: none; stroke: #000000; stroke-width: 0.8; stroke-linejoin: miter; stroke-linecap: square"/>
   </g>
   <g id="patch_5">
    <path d="M 57.6 307.584 
L 414.72 307.584 
" style="fill: none; stroke: #000000; stroke-width: 0.8; stroke-linejoin: miter; stroke-linecap: square"/>
   </g>
   <g id="patch_6">
    <path d="M 57.6 41.472 
L 414.72 41.472 
" style="fill: none; stroke: #000000; stroke-width: 0.8; stroke-linejoin: miter; stroke-linecap: square"/>
   </g>
   <g id="text_15">
    <!-- Loss -->
    <g transform="translate(222.999375 35.472) scale(0.12 -0.12)">
     <use xlink:href="#DejaVuSans-4c"/>
     <use xlink:href="#DejaVuSans-6f" x="53.962891"/>
     <use xlink:href="#DejaVuSans-73" x="115.144531"/>
     <use xlink:href="#DejaVuSans-73" x="167.244141"/>
    </g>
   </g>
   <g id="legend_1">
    <g id="patch_7">
     <path d="M 64.6 93.506375 
L 124.959375 93.506375 
Q 126.959375 93.506375 126.959375 91.506375 
L 126.959375 48.472 
Q 126.959375 46.472 124.959375 46.472 
L 64.6 46.472 
Q 62.6 46.472 62.6 48.472 
L 62.6 91.506375 
Q 62.6 93.506375 64.6 93.506375 
z
" style="fill: #ffffff; opacity: 0.8; stroke: #cccccc; stroke-linejoin: miter"/>
    </g>
    <g id="line2d_16">
     <path d="M 66.6 54.570438 
L 76.6 54.570438 
L 86.6 54.570438 
" style="fill: none; stroke: #008000; stroke-width: 1.5; stroke-linecap: square"/>
    </g>
    <g id="text_16">
     <!-- min -->
     <g transform="translate(94.6 58.070438) scale(0.1 -0.1)">
      <defs>
       <path id="DejaVuSans-6d" d="M 3328 2828 
Q 3544 3216 3844 3400 
Q 4144 3584 4550 3584 
Q 5097 3584 5394 3201 
Q 5691 2819 5691 2113 
L 5691 0 
L 5113 0 
L 5113 2094 
Q 5113 2597 4934 2840 
Q 4756 3084 4391 3084 
Q 3944 3084 3684 2787 
Q 3425 2491 3425 1978 
L 3425 0 
L 2847 0 
L 2847 2094 
Q 2847 2600 2669 2842 
Q 2491 3084 2119 3084 
Q 1678 3084 1418 2786 
Q 1159 2488 1159 1978 
L 1159 0 
L 581 0 
L 581 3500 
L 1159 3500 
L 1159 2956 
Q 1356 3278 1631 3431 
Q 1906 3584 2284 3584 
Q 2666 3584 2933 3390 
Q 3200 3197 3328 2828 
z
" transform="scale(0.015625)"/>
       <path id="DejaVuSans-6e" d="M 3513 2113 
L 3513 0 
L 2938 0 
L 2938 2094 
Q 2938 2591 2744 2837 
Q 2550 3084 2163 3084 
Q 1697 3084 1428 2787 
Q 1159 2491 1159 1978 
L 1159 0 
L 581 0 
L 581 3500 
L 1159 3500 
L 1159 2956 
Q 1366 3272 1645 3428 
Q 1925 3584 2291 3584 
Q 2894 3584 3203 3211 
Q 3513 2838 3513 2113 
z
" transform="scale(0.015625)"/>
      </defs>
      <use xlink:href="#DejaVuSans-6d"/>
      <use xlink:href="#DejaVuSans-69" x="97.412109"/>
      <use xlink:href="#DejaVuSans-6e" x="125.195312"/>
     </g>
    </g>
    <g id="line2d_17">
     <path d="M 66.6 69.248563 
L 76.6 69.248563 
L 86.6 69.248563 
" style="fill: none; stroke: #ff0000; stroke-width: 1.5; stroke-linecap: square"/>
    </g>
    <g id="text_17">
     <!-- max -->
     <g transform="translate(94.6 72.748563) scale(0.1 -0.1)">
      <defs>
       <path id="DejaVuSans-61" d="M 2194 1759 
Q 1497 1759 1228 1600 
Q 959 1441 959 1056 
Q 959 750 1161 570 
Q 1363 391 1709 391 
Q 2188 391 2477 730 
Q 2766 1069 2766 1631 
L 2766 1759 
L 2194 1759 
z
M 3341 1997 
L 3341 0 
L 2766 0 
L 2766 531 
Q 2569 213 2275 61 
Q 1981 -91 1556 -91 
Q 1019 -91 701 211 
Q 384 513 384 1019 
Q 384 1609 779 1909 
Q 1175 2209 1959 2209 
L 2766 2209 
L 2766 2266 
Q 2766 2663 2505 2880 
Q 2244 3097 1772 3097 
Q 1472 3097 1187 3025 
Q 903 2953 641 2809 
L 641 3341 
Q 956 3463 1253 3523 
Q 1550 3584 1831 3584 
Q 2591 3584 2966 3190 
Q 3341 2797 3341 1997 
z
" transform="scale(0.015625)"/>
       <path id="DejaVuSans-78" d="M 3513 3500 
L 2247 1797 
L 3578 0 
L 2900 0 
L 1881 1375 
L 863 0 
L 184 0 
L 1544 1831 
L 300 3500 
L 978 3500 
L 1906 2253 
L 2834 3500 
L 3513 3500 
z
" transform="scale(0.015625)"/>
      </defs>
      <use xlink:href="#DejaVuSans-6d"/>
      <use xlink:href="#DejaVuSans-61" x="97.412109"/>
      <use xlink:href="#DejaVuSans-78" x="158.691406"/>
     </g>
    </g>
    <g id="line2d_18">
     <path d="M 66.6 83.926688 
L 76.6 83.926688 
L 86.6 83.926688 
" style="fill: none; stroke: #0000ff; stroke-width: 1.5; stroke-linecap: square"/>
    </g>
    <g id="text_18">
     <!-- mean -->
     <g transform="translate(94.6 87.426688) scale(0.1 -0.1)">
      <use xlink:href="#DejaVuSans-6d"/>
      <use xlink:href="#DejaVuSans-65" x="97.412109"/>
      <use xlink:href="#DejaVuSans-61" x="158.935547"/>
      <use xlink:href="#DejaVuSans-6e" x="220.214844"/>
     </g>
    </g>
   </g>
  </g>
 </g>
 <defs>
  <clipPath id="p67718f8fdf">
   <rect x="57.6" y="41.472" width="357.12" height="266.112"/>
  </clipPath>
 </defs>
</svg>
