<?xml version="1.0" encoding="utf-8" standalone="no"?>
<!DOCTYPE svg PUBLIC "-//W3C//DTD SVG 1.1//EN"
  "http://www.w3.org/Graphics/SVG/1.1/DTD/svg11.dtd">
<svg xmlns:xlink="http://www.w3.org/1999/xlink" width="460.8pt" height="345.6pt" viewBox="0 0 460.8 345.6" xmlns="http://www.w3.org/2000/svg" version="1.1">
 <metadata>
  <rdf:RDF xmlns:dc="http://purl.org/dc/elements/1.1/" xmlns:cc="http://creativecommons.org/ns#" xmlns:rdf="http://www.w3.org/1999/02/22-rdf-syntax-ns#">
   <cc:Work>
    <dc:type rdf:resource="http://purl.org/dc/dcmitype/StillImage"/>
    <dc:date>2023-07-21T18:15:14.311062</dc:date>
    <dc:format>image/svg+xml</dc:format>
    <dc:creator>
     <cc:Agent>
      <dc:title>Matplotlib v3.7.2, https://matplotlib.org/</dc:title>
     </cc:Agent>
    </dc:creator>
   </cc:Work>
  </rdf:RDF>
 </metadata>
 <defs>
  <style type="text/css">*{stroke-linejoin: round; stroke-linecap: butt}</style>
 </defs>
 <g id="figure_1">
  <g id="patch_1">
   <path d="M 0 345.6 
L 460.8 345.6 
L 460.8 0 
L 0 0 
z
" style="fill: #ffffff"/>
  </g>
  <g id="axes_1">
   <g id="patch_2">
    <path d="M 57.6 307.584 
L 414.72 307.584 
L 414.72 41.472 
L 57.6 41.472 
z
" style="fill: #ffffff"/>
   </g>
   <g id="matplotlib.axis_1">
    <g id="xtick_1">
     <g id="line2d_1">
      <defs>
       <path id="m1aa1ebbd9b" d="M 0 0 
L 0 3.5 
" style="stroke: #000000; stroke-width: 0.8"/>
      </defs>
      <g>
       <use xlink:href="#m1aa1ebbd9b" x="73.832727" y="307.584" style="stroke: #000000; stroke-width: 0.8"/>
      </g>
     </g>
     <g id="text_1">
      <!-- 0 -->
      <g transform="translate(70.651477 322.182437) scale(0.1 -0.1)">
       <defs>
        <path id="DejaVuSans-30" d="M 2034 4250 
Q 1547 4250 1301 3770 
Q 1056 3291 1056 2328 
Q 1056 1369 1301 889 
Q 1547 409 2034 409 
Q 2525 409 2770 889 
Q 3016 1369 3016 2328 
Q 3016 3291 2770 3770 
Q 2525 4250 2034 4250 
z
M 2034 4750 
Q 2819 4750 3233 4129 
Q 3647 3509 3647 2328 
Q 3647 1150 3233 529 
Q 2819 -91 2034 -91 
Q 1250 -91 836 529 
Q 422 1150 422 2328 
Q 422 3509 836 4129 
Q 1250 4750 2034 4750 
z
" transform="scale(0.015625)"/>
       </defs>
       <use xlink:href="#DejaVuSans-30"/>
      </g>
     </g>
    </g>
    <g id="xtick_2">
     <g id="line2d_2">
      <g>
       <use xlink:href="#m1aa1ebbd9b" x="106.33068" y="307.584" style="stroke: #000000; stroke-width: 0.8"/>
      </g>
     </g>
     <g id="text_2">
      <!-- 100 -->
      <g transform="translate(96.78693 322.182437) scale(0.1 -0.1)">
       <defs>
        <path id="DejaVuSans-31" d="M 794 531 
L 1825 531 
L 1825 4091 
L 703 3866 
L 703 4441 
L 1819 4666 
L 2450 4666 
L 2450 531 
L 3481 531 
L 3481 0 
L 794 0 
L 794 531 
z
" transform="scale(0.015625)"/>
       </defs>
       <use xlink:href="#DejaVuSans-31"/>
       <use xlink:href="#DejaVuSans-30" x="63.623047"/>
       <use xlink:href="#DejaVuSans-30" x="127.246094"/>
      </g>
     </g>
    </g>
    <g id="xtick_3">
     <g id="line2d_3">
      <g>
       <use xlink:href="#m1aa1ebbd9b" x="138.828632" y="307.584" style="stroke: #000000; stroke-width: 0.8"/>
      </g>
     </g>
     <g id="text_3">
      <!-- 200 -->
      <g transform="translate(129.284882 322.182437) scale(0.1 -0.1)">
       <defs>
        <path id="DejaVuSans-32" d="M 1228 531 
L 3431 531 
L 3431 0 
L 469 0 
L 469 531 
Q 828 903 1448 1529 
Q 2069 2156 2228 2338 
Q 2531 2678 2651 2914 
Q 2772 3150 2772 3378 
Q 2772 3750 2511 3984 
Q 2250 4219 1831 4219 
Q 1534 4219 1204 4116 
Q 875 4013 500 3803 
L 500 4441 
Q 881 4594 1212 4672 
Q 1544 4750 1819 4750 
Q 2544 4750 2975 4387 
Q 3406 4025 3406 3419 
Q 3406 3131 3298 2873 
Q 3191 2616 2906 2266 
Q 2828 2175 2409 1742 
Q 1991 1309 1228 531 
z
" transform="scale(0.015625)"/>
       </defs>
       <use xlink:href="#DejaVuSans-32"/>
       <use xlink:href="#DejaVuSans-30" x="63.623047"/>
       <use xlink:href="#DejaVuSans-30" x="127.246094"/>
      </g>
     </g>
    </g>
    <g id="xtick_4">
     <g id="line2d_4">
      <g>
       <use xlink:href="#m1aa1ebbd9b" x="171.326585" y="307.584" style="stroke: #000000; stroke-width: 0.8"/>
      </g>
     </g>
     <g id="text_4">
      <!-- 300 -->
      <g transform="translate(161.782835 322.182437) scale(0.1 -0.1)">
       <defs>
        <path id="DejaVuSans-33" d="M 2597 2516 
Q 3050 2419 3304 2112 
Q 3559 1806 3559 1356 
Q 3559 666 3084 287 
Q 2609 -91 1734 -91 
Q 1441 -91 1130 -33 
Q 819 25 488 141 
L 488 750 
Q 750 597 1062 519 
Q 1375 441 1716 441 
Q 2309 441 2620 675 
Q 2931 909 2931 1356 
Q 2931 1769 2642 2001 
Q 2353 2234 1838 2234 
L 1294 2234 
L 1294 2753 
L 1863 2753 
Q 2328 2753 2575 2939 
Q 2822 3125 2822 3475 
Q 2822 3834 2567 4026 
Q 2313 4219 1838 4219 
Q 1578 4219 1281 4162 
Q 984 4106 628 3988 
L 628 4550 
Q 988 4650 1302 4700 
Q 1616 4750 1894 4750 
Q 2613 4750 3031 4423 
Q 3450 4097 3450 3541 
Q 3450 3153 3228 2886 
Q 3006 2619 2597 2516 
z
" transform="scale(0.015625)"/>
       </defs>
       <use xlink:href="#DejaVuSans-33"/>
       <use xlink:href="#DejaVuSans-30" x="63.623047"/>
       <use xlink:href="#DejaVuSans-30" x="127.246094"/>
      </g>
     </g>
    </g>
    <g id="xtick_5">
     <g id="line2d_5">
      <g>
       <use xlink:href="#m1aa1ebbd9b" x="203.824537" y="307.584" style="stroke: #000000; stroke-width: 0.8"/>
      </g>
     </g>
     <g id="text_5">
      <!-- 400 -->
      <g transform="translate(194.280787 322.182437) scale(0.1 -0.1)">
       <defs>
        <path id="DejaVuSans-34" d="M 2419 4116 
L 825 1625 
L 2419 1625 
L 2419 4116 
z
M 2253 4666 
L 3047 4666 
L 3047 1625 
L 3713 1625 
L 3713 1100 
L 3047 1100 
L 3047 0 
L 2419 0 
L 2419 1100 
L 313 1100 
L 313 1709 
L 2253 4666 
z
" transform="scale(0.015625)"/>
       </defs>
       <use xlink:href="#DejaVuSans-34"/>
       <use xlink:href="#DejaVuSans-30" x="63.623047"/>
       <use xlink:href="#DejaVuSans-30" x="127.246094"/>
      </g>
     </g>
    </g>
    <g id="xtick_6">
     <g id="line2d_6">
      <g>
       <use xlink:href="#m1aa1ebbd9b" x="236.32249" y="307.584" style="stroke: #000000; stroke-width: 0.8"/>
      </g>
     </g>
     <g id="text_6">
      <!-- 500 -->
      <g transform="translate(226.77874 322.182437) scale(0.1 -0.1)">
       <defs>
        <path id="DejaVuSans-35" d="M 691 4666 
L 3169 4666 
L 3169 4134 
L 1269 4134 
L 1269 2991 
Q 1406 3038 1543 3061 
Q 1681 3084 1819 3084 
Q 2600 3084 3056 2656 
Q 3513 2228 3513 1497 
Q 3513 744 3044 326 
Q 2575 -91 1722 -91 
Q 1428 -91 1123 -41 
Q 819 9 494 109 
L 494 744 
Q 775 591 1075 516 
Q 1375 441 1709 441 
Q 2250 441 2565 725 
Q 2881 1009 2881 1497 
Q 2881 1984 2565 2268 
Q 2250 2553 1709 2553 
Q 1456 2553 1204 2497 
Q 953 2441 691 2322 
L 691 4666 
z
" transform="scale(0.015625)"/>
       </defs>
       <use xlink:href="#DejaVuSans-35"/>
       <use xlink:href="#DejaVuSans-30" x="63.623047"/>
       <use xlink:href="#DejaVuSans-30" x="127.246094"/>
      </g>
     </g>
    </g>
    <g id="xtick_7">
     <g id="line2d_7">
      <g>
       <use xlink:href="#m1aa1ebbd9b" x="268.820442" y="307.584" style="stroke: #000000; stroke-width: 0.8"/>
      </g>
     </g>
     <g id="text_7">
      <!-- 600 -->
      <g transform="translate(259.276692 322.182437) scale(0.1 -0.1)">
       <defs>
        <path id="DejaVuSans-36" d="M 2113 2584 
Q 1688 2584 1439 2293 
Q 1191 2003 1191 1497 
Q 1191 994 1439 701 
Q 1688 409 2113 409 
Q 2538 409 2786 701 
Q 3034 994 3034 1497 
Q 3034 2003 2786 2293 
Q 2538 2584 2113 2584 
z
M 3366 4563 
L 3366 3988 
Q 3128 4100 2886 4159 
Q 2644 4219 2406 4219 
Q 1781 4219 1451 3797 
Q 1122 3375 1075 2522 
Q 1259 2794 1537 2939 
Q 1816 3084 2150 3084 
Q 2853 3084 3261 2657 
Q 3669 2231 3669 1497 
Q 3669 778 3244 343 
Q 2819 -91 2113 -91 
Q 1303 -91 875 529 
Q 447 1150 447 2328 
Q 447 3434 972 4092 
Q 1497 4750 2381 4750 
Q 2619 4750 2861 4703 
Q 3103 4656 3366 4563 
z
" transform="scale(0.015625)"/>
       </defs>
       <use xlink:href="#DejaVuSans-36"/>
       <use xlink:href="#DejaVuSans-30" x="63.623047"/>
       <use xlink:href="#DejaVuSans-30" x="127.246094"/>
      </g>
     </g>
    </g>
    <g id="xtick_8">
     <g id="line2d_8">
      <g>
       <use xlink:href="#m1aa1ebbd9b" x="301.318395" y="307.584" style="stroke: #000000; stroke-width: 0.8"/>
      </g>
     </g>
     <g id="text_8">
      <!-- 700 -->
      <g transform="translate(291.774645 322.182437) scale(0.1 -0.1)">
       <defs>
        <path id="DejaVuSans-37" d="M 525 4666 
L 3525 4666 
L 3525 4397 
L 1831 0 
L 1172 0 
L 2766 4134 
L 525 4134 
L 525 4666 
z
" transform="scale(0.015625)"/>
       </defs>
       <use xlink:href="#DejaVuSans-37"/>
       <use xlink:href="#DejaVuSans-30" x="63.623047"/>
       <use xlink:href="#DejaVuSans-30" x="127.246094"/>
      </g>
     </g>
    </g>
    <g id="xtick_9">
     <g id="line2d_9">
      <g>
       <use xlink:href="#m1aa1ebbd9b" x="333.816347" y="307.584" style="stroke: #000000; stroke-width: 0.8"/>
      </g>
     </g>
     <g id="text_9">
      <!-- 800 -->
      <g transform="translate(324.272597 322.182437) scale(0.1 -0.1)">
       <defs>
        <path id="DejaVuSans-38" d="M 2034 2216 
Q 1584 2216 1326 1975 
Q 1069 1734 1069 1313 
Q 1069 891 1326 650 
Q 1584 409 2034 409 
Q 2484 409 2743 651 
Q 3003 894 3003 1313 
Q 3003 1734 2745 1975 
Q 2488 2216 2034 2216 
z
M 1403 2484 
Q 997 2584 770 2862 
Q 544 3141 544 3541 
Q 544 4100 942 4425 
Q 1341 4750 2034 4750 
Q 2731 4750 3128 4425 
Q 3525 4100 3525 3541 
Q 3525 3141 3298 2862 
Q 3072 2584 2669 2484 
Q 3125 2378 3379 2068 
Q 3634 1759 3634 1313 
Q 3634 634 3220 271 
Q 2806 -91 2034 -91 
Q 1263 -91 848 271 
Q 434 634 434 1313 
Q 434 1759 690 2068 
Q 947 2378 1403 2484 
z
M 1172 3481 
Q 1172 3119 1398 2916 
Q 1625 2713 2034 2713 
Q 2441 2713 2670 2916 
Q 2900 3119 2900 3481 
Q 2900 3844 2670 4047 
Q 2441 4250 2034 4250 
Q 1625 4250 1398 4047 
Q 1172 3844 1172 3481 
z
" transform="scale(0.015625)"/>
       </defs>
       <use xlink:href="#DejaVuSans-38"/>
       <use xlink:href="#DejaVuSans-30" x="63.623047"/>
       <use xlink:href="#DejaVuSans-30" x="127.246094"/>
      </g>
     </g>
    </g>
    <g id="xtick_10">
     <g id="line2d_10">
      <g>
       <use xlink:href="#m1aa1ebbd9b" x="366.3143" y="307.584" style="stroke: #000000; stroke-width: 0.8"/>
      </g>
     </g>
     <g id="text_10">
      <!-- 900 -->
      <g transform="translate(356.77055 322.182437) scale(0.1 -0.1)">
       <defs>
        <path id="DejaVuSans-39" d="M 703 97 
L 703 672 
Q 941 559 1184 500 
Q 1428 441 1663 441 
Q 2288 441 2617 861 
Q 2947 1281 2994 2138 
Q 2813 1869 2534 1725 
Q 2256 1581 1919 1581 
Q 1219 1581 811 2004 
Q 403 2428 403 3163 
Q 403 3881 828 4315 
Q 1253 4750 1959 4750 
Q 2769 4750 3195 4129 
Q 3622 3509 3622 2328 
Q 3622 1225 3098 567 
Q 2575 -91 1691 -91 
Q 1453 -91 1209 -44 
Q 966 3 703 97 
z
M 1959 2075 
Q 2384 2075 2632 2365 
Q 2881 2656 2881 3163 
Q 2881 3666 2632 3958 
Q 2384 4250 1959 4250 
Q 1534 4250 1286 3958 
Q 1038 3666 1038 3163 
Q 1038 2656 1286 2365 
Q 1534 2075 1959 2075 
z
" transform="scale(0.015625)"/>
       </defs>
       <use xlink:href="#DejaVuSans-39"/>
       <use xlink:href="#DejaVuSans-30" x="63.623047"/>
       <use xlink:href="#DejaVuSans-30" x="127.246094"/>
      </g>
     </g>
    </g>
    <g id="xtick_11">
     <g id="line2d_11">
      <g>
       <use xlink:href="#m1aa1ebbd9b" x="398.812252" y="307.584" style="stroke: #000000; stroke-width: 0.8"/>
      </g>
     </g>
     <g id="text_11">
      <!-- 1000 -->
      <g transform="translate(386.087252 322.182437) scale(0.1 -0.1)">
       <use xlink:href="#DejaVuSans-31"/>
       <use xlink:href="#DejaVuSans-30" x="63.623047"/>
       <use xlink:href="#DejaVuSans-30" x="127.246094"/>
       <use xlink:href="#DejaVuSans-30" x="190.869141"/>
      </g>
     </g>
    </g>
    <g id="text_12">
     <!-- Episode -->
     <g transform="translate(216.5225 335.860562) scale(0.1 -0.1)">
      <defs>
       <path id="DejaVuSans-45" d="M 628 4666 
L 3578 4666 
L 3578 4134 
L 1259 4134 
L 1259 2753 
L 3481 2753 
L 3481 2222 
L 1259 2222 
L 1259 531 
L 3634 531 
L 3634 0 
L 628 0 
L 628 4666 
z
" transform="scale(0.015625)"/>
       <path id="DejaVuSans-70" d="M 1159 525 
L 1159 -1331 
L 581 -1331 
L 581 3500 
L 1159 3500 
L 1159 2969 
Q 1341 3281 1617 3432 
Q 1894 3584 2278 3584 
Q 2916 3584 3314 3078 
Q 3713 2572 3713 1747 
Q 3713 922 3314 415 
Q 2916 -91 2278 -91 
Q 1894 -91 1617 61 
Q 1341 213 1159 525 
z
M 3116 1747 
Q 3116 2381 2855 2742 
Q 2594 3103 2138 3103 
Q 1681 3103 1420 2742 
Q 1159 2381 1159 1747 
Q 1159 1113 1420 752 
Q 1681 391 2138 391 
Q 2594 391 2855 752 
Q 3116 1113 3116 1747 
z
" transform="scale(0.015625)"/>
       <path id="DejaVuSans-69" d="M 603 3500 
L 1178 3500 
L 1178 0 
L 603 0 
L 603 3500 
z
M 603 4863 
L 1178 4863 
L 1178 4134 
L 603 4134 
L 603 4863 
z
" transform="scale(0.015625)"/>
       <path id="DejaVuSans-73" d="M 2834 3397 
L 2834 2853 
Q 2591 2978 2328 3040 
Q 2066 3103 1784 3103 
Q 1356 3103 1142 2972 
Q 928 2841 928 2578 
Q 928 2378 1081 2264 
Q 1234 2150 1697 2047 
L 1894 2003 
Q 2506 1872 2764 1633 
Q 3022 1394 3022 966 
Q 3022 478 2636 193 
Q 2250 -91 1575 -91 
Q 1294 -91 989 -36 
Q 684 19 347 128 
L 347 722 
Q 666 556 975 473 
Q 1284 391 1588 391 
Q 1994 391 2212 530 
Q 2431 669 2431 922 
Q 2431 1156 2273 1281 
Q 2116 1406 1581 1522 
L 1381 1569 
Q 847 1681 609 1914 
Q 372 2147 372 2553 
Q 372 3047 722 3315 
Q 1072 3584 1716 3584 
Q 2034 3584 2315 3537 
Q 2597 3491 2834 3397 
z
" transform="scale(0.015625)"/>
       <path id="DejaVuSans-6f" d="M 1959 3097 
Q 1497 3097 1228 2736 
Q 959 2375 959 1747 
Q 959 1119 1226 758 
Q 1494 397 1959 397 
Q 2419 397 2687 759 
Q 2956 1122 2956 1747 
Q 2956 2369 2687 2733 
Q 2419 3097 1959 3097 
z
M 1959 3584 
Q 2709 3584 3137 3096 
Q 3566 2609 3566 1747 
Q 3566 888 3137 398 
Q 2709 -91 1959 -91 
Q 1206 -91 779 398 
Q 353 888 353 1747 
Q 353 2609 779 3096 
Q 1206 3584 1959 3584 
z
" transform="scale(0.015625)"/>
       <path id="DejaVuSans-64" d="M 2906 2969 
L 2906 4863 
L 3481 4863 
L 3481 0 
L 2906 0 
L 2906 525 
Q 2725 213 2448 61 
Q 2172 -91 1784 -91 
Q 1150 -91 751 415 
Q 353 922 353 1747 
Q 353 2572 751 3078 
Q 1150 3584 1784 3584 
Q 2172 3584 2448 3432 
Q 2725 3281 2906 2969 
z
M 947 1747 
Q 947 1113 1208 752 
Q 1469 391 1925 391 
Q 2381 391 2643 752 
Q 2906 1113 2906 1747 
Q 2906 2381 2643 2742 
Q 2381 3103 1925 3103 
Q 1469 3103 1208 2742 
Q 947 2381 947 1747 
z
" transform="scale(0.015625)"/>
       <path id="DejaVuSans-65" d="M 3597 1894 
L 3597 1613 
L 953 1613 
Q 991 1019 1311 708 
Q 1631 397 2203 397 
Q 2534 397 2845 478 
Q 3156 559 3463 722 
L 3463 178 
Q 3153 47 2828 -22 
Q 2503 -91 2169 -91 
Q 1331 -91 842 396 
Q 353 884 353 1716 
Q 353 2575 817 3079 
Q 1281 3584 2069 3584 
Q 2775 3584 3186 3129 
Q 3597 2675 3597 1894 
z
M 3022 2063 
Q 3016 2534 2758 2815 
Q 2500 3097 2075 3097 
Q 1594 3097 1305 2825 
Q 1016 2553 972 2059 
L 3022 2063 
z
" transform="scale(0.015625)"/>
      </defs>
      <use xlink:href="#DejaVuSans-45"/>
      <use xlink:href="#DejaVuSans-70" x="63.183594"/>
      <use xlink:href="#DejaVuSans-69" x="126.660156"/>
      <use xlink:href="#DejaVuSans-73" x="154.443359"/>
      <use xlink:href="#DejaVuSans-6f" x="206.542969"/>
      <use xlink:href="#DejaVuSans-64" x="267.724609"/>
      <use xlink:href="#DejaVuSans-65" x="331.201172"/>
     </g>
    </g>
   </g>
   <g id="matplotlib.axis_2">
    <g id="ytick_1">
     <g id="line2d_12">
      <defs>
       <path id="m33e60c85da" d="M 0 0 
L -3.5 0 
" style="stroke: #000000; stroke-width: 0.8"/>
      </defs>
      <g>
       <use xlink:href="#m33e60c85da" x="57.6" y="287.928" style="stroke: #000000; stroke-width: 0.8"/>
      </g>
     </g>
     <g id="text_13">
      <!-- −30 -->
      <g transform="translate(29.495313 291.727219) scale(0.1 -0.1)">
       <defs>
        <path id="DejaVuSans-2212" d="M 678 2272 
L 4684 2272 
L 4684 1741 
L 678 1741 
L 678 2272 
z
" transform="scale(0.015625)"/>
       </defs>
       <use xlink:href="#DejaVuSans-2212"/>
       <use xlink:href="#DejaVuSans-33" x="83.789062"/>
       <use xlink:href="#DejaVuSans-30" x="147.412109"/>
      </g>
     </g>
    </g>
    <g id="ytick_2">
     <g id="line2d_13">
      <g>
       <use xlink:href="#m33e60c85da" x="57.6" y="250.128" style="stroke: #000000; stroke-width: 0.8"/>
      </g>
     </g>
     <g id="text_14">
      <!-- −20 -->
      <g transform="translate(29.495313 253.927219) scale(0.1 -0.1)">
       <use xlink:href="#DejaVuSans-2212"/>
       <use xlink:href="#DejaVuSans-32" x="83.789062"/>
       <use xlink:href="#DejaVuSans-30" x="147.412109"/>
      </g>
     </g>
    </g>
    <g id="ytick_3">
     <g id="line2d_14">
      <g>
       <use xlink:href="#m33e60c85da" x="57.6" y="212.328" style="stroke: #000000; stroke-width: 0.8"/>
      </g>
     </g>
     <g id="text_15">
      <!-- −10 -->
      <g transform="translate(29.495313 216.127219) scale(0.1 -0.1)">
       <use xlink:href="#DejaVuSans-2212"/>
       <use xlink:href="#DejaVuSans-31" x="83.789062"/>
       <use xlink:href="#DejaVuSans-30" x="147.412109"/>
      </g>
     </g>
    </g>
    <g id="ytick_4">
     <g id="line2d_15">
      <g>
       <use xlink:href="#m33e60c85da" x="57.6" y="174.528" style="stroke: #000000; stroke-width: 0.8"/>
      </g>
     </g>
     <g id="text_16">
      <!-- 0 -->
      <g transform="translate(44.2375 178.327219) scale(0.1 -0.1)">
       <use xlink:href="#DejaVuSans-30"/>
      </g>
     </g>
    </g>
    <g id="ytick_5">
     <g id="line2d_16">
      <g>
       <use xlink:href="#m33e60c85da" x="57.6" y="136.728" style="stroke: #000000; stroke-width: 0.8"/>
      </g>
     </g>
     <g id="text_17">
      <!-- 10 -->
      <g transform="translate(37.875 140.527219) scale(0.1 -0.1)">
       <use xlink:href="#DejaVuSans-31"/>
       <use xlink:href="#DejaVuSans-30" x="63.623047"/>
      </g>
     </g>
    </g>
    <g id="ytick_6">
     <g id="line2d_17">
      <g>
       <use xlink:href="#m33e60c85da" x="57.6" y="98.928" style="stroke: #000000; stroke-width: 0.8"/>
      </g>
     </g>
     <g id="text_18">
      <!-- 20 -->
      <g transform="translate(37.875 102.727219) scale(0.1 -0.1)">
       <use xlink:href="#DejaVuSans-32"/>
       <use xlink:href="#DejaVuSans-30" x="63.623047"/>
      </g>
     </g>
    </g>
    <g id="ytick_7">
     <g id="line2d_18">
      <g>
       <use xlink:href="#m33e60c85da" x="57.6" y="61.128" style="stroke: #000000; stroke-width: 0.8"/>
      </g>
     </g>
     <g id="text_19">
      <!-- 30 -->
      <g transform="translate(37.875 64.927219) scale(0.1 -0.1)">
       <use xlink:href="#DejaVuSans-33"/>
       <use xlink:href="#DejaVuSans-30" x="63.623047"/>
      </g>
     </g>
    </g>
    <g id="text_20">
     <!-- Reward -->
     <g transform="translate(23.415625 193.149094) rotate(-90) scale(0.1 -0.1)">
      <defs>
       <path id="DejaVuSans-52" d="M 2841 2188 
Q 3044 2119 3236 1894 
Q 3428 1669 3622 1275 
L 4263 0 
L 3584 0 
L 2988 1197 
Q 2756 1666 2539 1819 
Q 2322 1972 1947 1972 
L 1259 1972 
L 1259 0 
L 628 0 
L 628 4666 
L 2053 4666 
Q 2853 4666 3247 4331 
Q 3641 3997 3641 3322 
Q 3641 2881 3436 2590 
Q 3231 2300 2841 2188 
z
M 1259 4147 
L 1259 2491 
L 2053 2491 
Q 2509 2491 2742 2702 
Q 2975 2913 2975 3322 
Q 2975 3731 2742 3939 
Q 2509 4147 2053 4147 
L 1259 4147 
z
" transform="scale(0.015625)"/>
       <path id="DejaVuSans-77" d="M 269 3500 
L 844 3500 
L 1563 769 
L 2278 3500 
L 2956 3500 
L 3675 769 
L 4391 3500 
L 4966 3500 
L 4050 0 
L 3372 0 
L 2619 2869 
L 1863 0 
L 1184 0 
L 269 3500 
z
" transform="scale(0.015625)"/>
       <path id="DejaVuSans-61" d="M 2194 1759 
Q 1497 1759 1228 1600 
Q 959 1441 959 1056 
Q 959 750 1161 570 
Q 1363 391 1709 391 
Q 2188 391 2477 730 
Q 2766 1069 2766 1631 
L 2766 1759 
L 2194 1759 
z
M 3341 1997 
L 3341 0 
L 2766 0 
L 2766 531 
Q 2569 213 2275 61 
Q 1981 -91 1556 -91 
Q 1019 -91 701 211 
Q 384 513 384 1019 
Q 384 1609 779 1909 
Q 1175 2209 1959 2209 
L 2766 2209 
L 2766 2266 
Q 2766 2663 2505 2880 
Q 2244 3097 1772 3097 
Q 1472 3097 1187 3025 
Q 903 2953 641 2809 
L 641 3341 
Q 956 3463 1253 3523 
Q 1550 3584 1831 3584 
Q 2591 3584 2966 3190 
Q 3341 2797 3341 1997 
z
" transform="scale(0.015625)"/>
       <path id="DejaVuSans-72" d="M 2631 2963 
Q 2534 3019 2420 3045 
Q 2306 3072 2169 3072 
Q 1681 3072 1420 2755 
Q 1159 2438 1159 1844 
L 1159 0 
L 581 0 
L 581 3500 
L 1159 3500 
L 1159 2956 
Q 1341 3275 1631 3429 
Q 1922 3584 2338 3584 
Q 2397 3584 2469 3576 
Q 2541 3569 2628 3553 
L 2631 2963 
z
" transform="scale(0.015625)"/>
      </defs>
      <use xlink:href="#DejaVuSans-52"/>
      <use xlink:href="#DejaVuSans-65" x="64.982422"/>
      <use xlink:href="#DejaVuSans-77" x="126.505859"/>
      <use xlink:href="#DejaVuSans-61" x="208.292969"/>
      <use xlink:href="#DejaVuSans-72" x="269.572266"/>
      <use xlink:href="#DejaVuSans-64" x="308.935547"/>
     </g>
    </g>
   </g>
   <g id="line2d_19">
    <path d="M 73.832727 77.76 
L 75.132645 174.528 
L 75.457625 184.734 
L 76.757543 281.502 
L 77.407502 248.238 
L 78.382441 248.238 
L 78.70742 250.128 
L 80.007338 250.128 
L 80.332318 245.97 
L 80.657297 245.592 
L 81.307256 245.592 
L 81.632236 224.802 
L 81.957215 236.898 
L 82.607174 236.898 
L 83.257133 200.988 
L 83.907093 238.788 
L 84.557052 238.788 
L 84.882031 244.08 
L 85.85697 244.08 
L 86.506929 279.99 
L 87.806847 279.99 
L 88.131826 295.488 
L 89.431744 295.488 
L 89.756724 272.43 
L 91.381622 272.43 
L 92.031581 237.276 
L 92.35656 237.276 
L 92.68154 222.534 
L 93.006519 229.716 
L 93.331499 211.194 
L 94.306437 211.194 
L 94.631417 189.27 
L 95.281376 224.424 
L 95.606355 205.524 
L 95.931335 200.232 
L 96.256314 216.108 
L 96.581294 216.108 
L 97.231253 184.356 
L 97.556233 184.356 
L 97.881212 183.222 
L 98.206192 168.48 
L 98.531171 168.48 
L 98.856151 187.38 
L 99.18113 189.648 
L 99.50611 167.724 
L 99.831089 186.246 
L 100.156069 184.356 
L 100.481048 185.112 
L 100.806028 162.81 
L 101.131007 185.868 
L 101.455987 200.61 
L 102.105946 200.61 
L 102.430925 196.452 
L 102.755905 218.376 
L 103.080885 218.376 
L 103.405864 235.764 
L 103.730844 228.582 
L 104.055823 250.884 
L 104.380803 233.496 
L 105.030762 233.496 
L 105.355741 221.4 
L 105.680721 220.644 
L 106.655659 220.644 
L 106.980639 243.324 
L 107.305618 231.228 
L 107.630598 248.616 
L 107.955577 225.558 
L 108.280557 225.558 
L 108.605536 237.654 
L 108.930516 241.056 
L 109.255495 228.582 
L 109.580475 228.582 
L 109.905455 214.218 
L 110.230434 214.218 
L 110.555414 226.314 
L 110.880393 226.314 
L 111.205373 249.372 
L 111.855332 249.372 
L 112.180311 268.65 
L 112.505291 257.31 
L 112.83027 257.31 
L 113.15525 271.674 
L 113.480229 271.674 
L 113.805209 248.994 
L 114.780147 248.994 
L 115.105127 235.764 
L 115.430106 212.706 
L 115.755086 219.51 
L 116.080066 219.51 
L 116.730025 176.418 
L 117.055004 199.098 
L 118.029943 199.098 
L 118.354922 212.328 
L 118.679902 216.864 
L 119.004881 233.874 
L 119.329861 233.874 
L 119.97982 276.966 
L 120.304799 276.966 
L 120.629779 253.53 
L 121.604717 253.53 
L 121.929697 254.286 
L 123.554595 254.286 
L 123.879574 261.846 
L 124.204554 245.97 
L 124.854513 245.97 
L 125.179492 263.736 
L 125.829451 263.736 
L 126.154431 248.994 
L 126.47941 228.96 
L 126.80439 228.96 
L 127.129369 231.984 
L 127.454349 230.094 
L 128.104308 204.39 
L 129.079247 149.202 
L 129.404226 140.13 
L 129.729206 142.398 
L 130.054185 142.398 
L 130.379165 155.25 
L 130.704144 160.542 
L 131.029124 172.638 
L 131.679083 161.676 
L 132.004062 180.198 
L 132.329042 183.978 
L 132.654021 184.356 
L 132.979001 202.122 
L 133.62896 202.122 
L 133.953939 214.596 
L 134.278919 191.538 
L 134.603898 193.428 
L 134.928878 196.83 
L 135.253857 173.772 
L 135.578837 188.136 
L 135.903817 192.294 
L 136.228796 170.748 
L 136.878755 170.748 
L 137.203735 153.738 
L 137.853694 194.184 
L 138.178673 196.074 
L 138.503653 219.132 
L 138.828632 195.318 
L 139.153612 197.586 
L 139.478591 219.132 
L 140.12855 175.284 
L 140.45353 171.882 
L 140.778509 158.274 
L 141.103489 158.274 
L 141.428468 176.796 
L 141.753448 176.796 
L 142.403407 217.62 
L 142.728387 205.146 
L 143.053366 209.304 
L 143.378346 218.754 
L 143.703325 221.4 
L 144.028305 216.486 
L 144.353284 216.486 
L 145.328223 156.384 
L 145.653202 156.384 
L 145.978182 145.422 
L 146.628141 175.662 
L 146.95312 175.662 
L 147.2781 172.638 
L 147.603079 172.638 
L 147.928059 177.93 
L 148.578018 215.73 
L 148.902998 196.452 
L 149.227977 219.888 
L 149.552957 219.888 
L 149.877936 201.366 
L 150.202916 206.28 
L 150.527895 214.596 
L 150.852875 214.596 
L 151.177854 211.572 
L 151.827813 174.528 
L 152.152793 193.806 
L 152.477772 193.806 
L 152.802752 172.26 
L 153.127731 170.748 
L 153.77769 196.83 
L 154.10267 174.528 
L 154.427649 194.562 
L 154.752629 193.806 
L 155.077609 214.974 
L 155.402588 214.974 
L 155.727568 192.672 
L 156.052547 196.074 
L 156.377527 196.452 
L 156.702506 196.452 
L 157.027486 183.978 
L 157.352465 206.28 
L 157.677445 206.28 
L 158.002424 205.146 
L 158.652383 172.638 
L 159.302342 213.084 
L 159.627322 220.644 
L 160.60226 180.198 
L 160.92724 180.198 
L 161.252219 181.71 
L 161.577199 198.72 
L 161.902179 201.744 
L 162.227158 182.466 
L 162.552138 182.466 
L 163.852056 231.228 
L 164.177035 208.17 
L 164.502015 224.424 
L 164.826994 224.424 
L 165.151974 216.864 
L 165.476953 216.486 
L 166.126912 177.174 
L 166.451892 177.174 
L 166.776871 172.26 
L 168.07679 172.26 
L 168.401769 180.198 
L 168.726749 199.854 
L 169.051728 196.452 
L 169.376708 205.146 
L 169.701687 182.088 
L 170.026667 179.442 
L 170.351646 163.566 
L 170.676626 165.834 
L 171.326585 132.192 
L 171.651564 144.288 
L 171.976544 120.852 
L 172.301523 118.962 
L 172.626503 111.78 
L 173.601441 174.528 
L 173.926421 195.318 
L 174.2514 192.294 
L 174.57638 193.806 
L 174.90136 173.016 
L 175.226339 175.284 
L 175.876298 191.16 
L 176.526257 146.934 
L 176.851237 146.934 
L 177.176216 123.12 
L 177.501196 123.498 
L 177.826175 121.986 
L 178.151155 121.608 
L 178.476134 119.718 
L 178.801114 112.536 
L 179.451073 109.134 
L 179.776052 112.914 
L 180.101032 112.914 
L 180.426011 123.498 
L 180.750991 125.01 
L 181.075971 123.12 
L 181.40095 126.9 
L 181.72593 127.278 
L 182.050909 126.9 
L 182.375889 118.584 
L 182.700868 119.34 
L 183.025848 114.804 
L 183.350827 98.172 
L 183.675807 92.502 
L 184.975725 169.236 
L 185.625684 213.84 
L 185.950663 214.218 
L 186.600622 253.908 
L 186.925602 258.066 
L 188.22552 258.066 
L 188.5505 242.946 
L 188.875479 220.266 
L 189.200459 223.668 
L 189.850418 223.668 
L 190.175397 221.4 
L 190.825356 178.686 
L 191.150336 163.944 
L 191.475315 163.944 
L 191.800295 156.384 
L 192.125274 156.762 
L 192.450254 155.628 
L 193.100213 155.628 
L 193.425192 150.336 
L 193.750172 172.638 
L 194.075152 175.284 
L 194.400131 190.026 
L 194.725111 190.026 
L 195.37507 235.008 
L 195.700049 233.874 
L 196.025029 213.84 
L 196.350008 213.84 
L 196.674988 220.644 
L 196.999967 220.644 
L 197.324947 217.242 
L 197.974906 217.242 
L 198.624865 176.418 
L 198.949844 175.284 
L 199.274824 195.318 
L 199.599803 195.318 
L 199.924783 210.816 
L 200.249762 210.816 
L 200.574742 211.572 
L 200.899722 187.758 
L 201.224701 174.906 
L 201.549681 175.662 
L 201.87466 171.504 
L 202.19964 194.184 
L 202.849599 152.604 
L 203.174578 152.604 
L 203.499558 130.302 
L 203.824537 132.192 
L 204.149517 138.996 
L 204.474496 132.948 
L 204.799476 153.36 
L 205.124455 157.518 
L 205.449435 140.13 
L 205.774414 139.752 
L 206.099394 160.542 
L 206.424373 138.996 
L 206.749353 139.374 
L 207.074333 144.288 
L 207.724292 180.198 
L 208.049271 159.786 
L 208.69923 196.83 
L 209.02421 196.452 
L 209.349189 177.174 
L 209.674169 177.174 
L 209.999148 199.098 
L 210.324128 190.782 
L 210.649107 173.394 
L 210.974087 173.394 
L 211.299066 193.806 
L 211.949025 156.762 
L 212.923964 219.132 
L 213.248943 196.83 
L 213.573923 198.72 
L 213.898903 193.05 
L 214.548862 148.068 
L 214.873841 145.044 
L 215.198821 144.288 
L 216.173759 78.894 
L 216.498739 87.966 
L 216.823718 86.454 
L 217.148698 89.478 
L 217.798657 97.038 
L 218.123636 97.038 
L 218.448616 98.928 
L 219.098575 141.264 
L 219.423554 146.556 
L 220.073514 144.288 
L 220.398493 146.178 
L 220.723473 165.834 
L 221.048452 160.92 
L 221.373432 182.844 
L 221.698411 180.954 
L 222.023391 180.954 
L 222.34837 165.834 
L 222.67335 183.6 
L 222.998329 175.284 
L 223.648288 216.108 
L 223.973268 216.108 
L 224.298247 216.864 
L 224.623227 216.864 
L 224.948206 235.764 
L 225.273186 214.218 
L 225.598165 206.28 
L 225.923145 183.6 
L 226.248124 185.49 
L 227.223063 121.986 
L 227.548043 123.498 
L 227.873022 107.622 
L 228.198002 85.698 
L 228.522981 107.244 
L 228.847961 117.828 
L 229.17294 140.508 
L 229.49792 142.398 
L 229.822899 148.068 
L 230.147879 145.044 
L 230.472858 153.738 
L 230.797838 151.47 
L 231.122817 145.044 
L 231.447797 143.91 
L 231.772776 121.608 
L 232.097756 117.828 
L 232.422735 94.014 
L 232.747715 91.368 
L 233.072695 83.808 
L 233.397674 88.344 
L 233.722654 79.65 
L 234.047633 79.272 
L 234.697592 84.564 
L 235.022572 83.43 
L 235.347551 78.894 
L 235.672531 81.54 
L 235.99751 82.674 
L 236.32249 105.732 
L 236.647469 103.464 
L 236.972449 105.354 
L 237.297428 109.134 
L 237.622408 107.622 
L 237.947387 108.378 
L 238.272367 111.024 
L 238.597346 110.646 
L 238.922326 131.814 
L 239.247305 139.752 
L 239.572285 118.206 
L 239.897265 116.316 
L 240.222244 137.106 
L 240.547224 137.862 
L 240.872203 138.24 
L 241.197183 144.288 
L 241.522162 143.532 
L 241.847142 164.7 
L 242.172121 142.398 
L 242.497101 132.948 
L 242.82208 154.494 
L 243.14706 156.006 
L 243.472039 156.006 
L 243.797019 174.528 
L 244.121998 172.26 
L 244.446978 167.346 
L 244.771957 166.59 
L 245.096937 145.422 
L 245.421916 145.044 
L 245.746896 143.91 
L 246.071876 125.01 
L 246.396855 125.01 
L 247.046814 81.918 
L 247.371794 82.296 
L 247.696773 81.162 
L 248.021753 84.186 
L 248.346732 84.186 
L 248.671712 87.588 
L 248.996691 87.588 
L 249.321671 91.368 
L 249.64665 112.158 
L 249.97163 115.182 
L 250.296609 112.914 
L 250.621589 135.216 
L 250.946568 136.35 
L 251.271548 138.24 
L 251.921507 132.57 
L 252.246486 134.082 
L 252.571466 149.202 
L 252.896446 135.972 
L 253.221425 134.838 
L 253.546405 156.384 
L 253.871384 134.082 
L 254.521343 125.766 
L 254.846323 127.278 
L 255.171302 126.522 
L 255.496282 133.704 
L 255.821261 114.804 
L 256.146241 128.034 
L 256.47122 131.814 
L 256.7962 112.158 
L 257.121179 112.158 
L 257.446159 117.45 
L 257.771138 117.45 
L 258.096118 139.752 
L 258.421097 146.934 
L 258.746077 137.484 
L 259.071057 132.57 
L 259.396036 112.158 
L 259.721016 106.866 
L 260.045995 103.842 
L 260.695954 107.244 
L 261.020934 106.866 
L 261.345913 85.32 
L 261.670893 77.76 
L 261.995872 88.344 
L 262.320852 90.99 
L 262.645831 92.124 
L 263.29579 99.306 
L 263.62077 97.038 
L 263.945749 92.502 
L 264.270729 91.746 
L 264.595708 90.612 
L 264.920688 95.526 
L 265.245667 85.32 
L 265.895627 84.564 
L 266.220606 88.344 
L 266.545586 84.942 
L 266.870565 108 
L 267.195545 106.488 
L 267.520524 106.488 
L 267.845504 109.89 
L 268.170483 105.732 
L 268.495463 108.756 
L 268.820442 108.378 
L 269.145422 105.354 
L 269.470401 98.172 
L 269.795381 100.44 
L 270.12036 78.138 
L 270.44534 78.138 
L 270.770319 77.76 
L 271.095299 75.114 
L 271.420278 97.794 
L 272.070238 98.55 
L 272.395217 121.23 
L 272.720197 122.742 
L 273.370156 122.742 
L 273.695135 127.278 
L 274.020115 128.412 
L 274.345094 128.412 
L 274.670074 106.11 
L 275.320033 102.33 
L 275.645012 80.028 
L 275.969992 78.516 
L 276.294971 80.784 
L 276.94493 120.474 
L 277.26991 119.34 
L 277.594889 121.608 
L 277.919869 125.388 
L 278.244848 132.57 
L 278.569828 142.398 
L 278.894808 164.7 
L 279.219787 174.15 
L 279.544767 179.442 
L 279.869746 157.14 
L 280.194726 142.776 
L 280.519705 143.532 
L 281.169664 137.484 
L 281.494644 131.058 
L 281.819623 144.288 
L 282.144603 144.288 
L 282.794562 129.168 
L 283.119541 129.924 
L 283.444521 123.12 
L 283.7695 128.79 
L 284.09448 130.302 
L 284.419459 128.034 
L 284.744439 127.278 
L 285.394398 83.43 
L 285.719378 82.674 
L 286.044357 84.186 
L 286.369337 83.052 
L 286.694316 83.052 
L 287.019296 77.382 
L 287.344275 76.248 
L 287.669255 77.76 
L 287.994234 81.918 
L 288.319214 83.43 
L 288.644193 83.052 
L 288.969173 83.43 
L 289.294152 79.272 
L 289.619132 82.674 
L 289.944111 82.296 
L 290.269091 82.296 
L 290.59407 82.674 
L 290.91905 83.43 
L 291.244029 80.784 
L 291.569009 87.21 
L 291.893989 86.454 
L 292.218968 86.076 
L 292.543948 86.454 
L 292.868927 84.942 
L 293.193907 88.722 
L 293.518886 111.024 
L 293.843866 109.89 
L 294.168845 131.058 
L 294.493825 130.302 
L 294.818804 123.12 
L 295.143784 123.498 
L 295.468763 125.766 
L 295.793743 126.9 
L 296.118722 126.9 
L 296.443702 123.498 
L 296.768681 101.574 
L 297.093661 103.464 
L 297.41864 82.296 
L 297.74362 81.162 
L 298.718559 144.666 
L 299.043538 143.91 
L 299.368518 143.532 
L 299.693497 141.642 
L 300.343456 139.752 
L 300.668436 137.484 
L 300.993415 136.35 
L 301.318395 113.67 
L 301.643374 113.67 
L 301.968354 96.66 
L 302.293333 118.962 
L 302.618313 117.072 
L 302.943292 117.828 
L 303.268272 140.886 
L 303.918231 141.642 
L 304.24321 142.398 
L 304.56819 165.078 
L 304.89317 165.078 
L 305.218149 159.408 
L 305.543129 144.666 
L 305.868108 144.666 
L 306.193088 146.556 
L 306.518067 125.388 
L 306.843047 126.144 
L 307.168026 137.106 
L 307.493006 137.484 
L 307.817985 117.072 
L 308.142965 117.072 
L 308.467944 116.316 
L 308.792924 107.244 
L 309.117903 107.244 
L 309.442883 106.11 
L 310.092842 102.708 
L 310.417821 93.258 
L 310.742801 95.526 
L 311.067781 95.148 
L 311.39276 95.148 
L 311.71774 118.584 
L 312.042719 125.01 
L 312.367699 124.254 
L 312.692678 123.876 
L 313.017658 124.254 
L 313.342637 132.948 
L 313.667617 131.436 
L 313.992596 151.848 
L 314.317576 149.958 
L 314.967535 106.488 
L 315.292514 100.44 
L 315.617494 101.196 
L 315.942473 104.976 
L 316.267453 104.976 
L 316.592432 95.148 
L 316.917412 95.904 
L 317.242391 77.004 
L 317.892351 77.004 
L 318.54231 80.028 
L 318.867289 79.65 
L 319.192269 78.138 
L 319.517248 80.406 
L 319.842228 81.54 
L 320.167207 81.162 
L 320.492187 76.248 
L 320.817166 75.492 
L 321.142146 76.248 
L 321.467125 75.114 
L 321.792105 74.736 
L 322.117084 75.114 
L 322.442064 73.602 
L 322.767043 71.334 
L 323.092023 75.114 
L 323.417002 75.492 
L 324.066962 78.138 
L 324.391941 75.492 
L 324.716921 73.98 
L 325.0419 96.282 
L 325.36688 95.526 
L 326.016839 96.282 
L 326.341818 93.258 
L 326.666798 92.88 
L 326.991777 93.258 
L 327.316757 92.502 
L 327.641736 93.258 
L 327.966716 93.636 
L 328.291695 71.712 
L 328.616675 72.468 
L 328.941654 78.516 
L 329.266634 79.65 
L 329.591613 101.574 
L 329.916593 105.732 
L 330.241572 105.354 
L 330.566552 105.354 
L 331.216511 106.11 
L 331.86647 106.11 
L 332.19145 98.928 
L 332.516429 99.306 
L 332.841409 86.832 
L 333.166388 84.564 
L 333.491368 84.942 
L 333.816347 95.526 
L 334.141327 95.904 
L 334.466306 118.206 
L 334.791286 118.584 
L 335.116265 120.096 
L 335.441245 142.02 
L 335.766224 139.374 
L 336.091204 129.168 
L 336.416183 127.656 
L 336.741163 126.9 
L 337.066143 116.694 
L 337.391122 115.56 
L 337.716102 99.684 
L 338.041081 98.172 
L 338.366061 98.55 
L 338.69104 76.248 
L 339.01602 86.076 
L 339.340999 108.756 
L 339.665979 107.622 
L 339.990958 109.134 
L 340.315938 109.134 
L 340.640917 109.512 
L 340.965897 104.22 
L 341.290876 105.354 
L 341.615856 103.464 
L 341.940835 125.766 
L 342.265815 126.9 
L 342.590794 103.842 
L 342.915774 106.11 
L 343.240753 106.11 
L 343.565733 104.976 
L 343.890713 106.866 
L 344.540672 103.086 
L 344.865651 103.086 
L 345.190631 80.784 
L 345.51561 93.258 
L 345.84059 94.77 
L 346.165569 95.148 
L 346.490549 93.258 
L 346.815528 94.014 
L 347.140508 92.124 
L 347.465487 100.44 
L 347.790467 100.818 
L 348.115446 100.818 
L 348.440426 123.12 
L 348.765405 101.574 
L 349.415364 98.172 
L 349.740344 121.23 
L 350.065324 121.23 
L 350.390303 120.096 
L 350.715283 114.048 
L 351.365242 119.718 
L 351.690221 97.416 
L 352.015201 97.794 
L 352.34018 99.306 
L 352.66516 99.306 
L 352.990139 75.87 
L 353.315119 98.928 
L 353.640098 99.306 
L 353.965078 96.66 
L 354.290057 95.904 
L 354.615037 92.502 
L 354.940016 91.746 
L 355.589975 87.966 
L 355.914955 88.344 
L 356.239934 89.478 
L 356.564914 66.798 
L 356.889894 69.444 
L 357.214873 70.578 
L 357.539853 68.31 
L 357.864832 70.578 
L 358.189812 70.578 
L 358.514791 70.2 
L 358.839771 71.712 
L 359.16475 71.334 
L 359.48973 70.578 
L 359.814709 72.09 
L 360.139689 71.712 
L 360.464668 70.2 
L 360.789648 94.014 
L 361.114627 94.392 
L 361.439607 95.148 
L 361.764586 95.526 
L 362.089566 117.45 
L 362.414545 117.45 
L 362.739525 118.206 
L 363.389484 116.316 
L 363.714464 118.206 
L 364.039443 118.206 
L 364.364423 115.56 
L 365.014382 116.316 
L 365.339361 95.148 
L 365.664341 94.77 
L 365.98932 95.526 
L 366.3143 94.392 
L 366.639279 96.282 
L 366.964259 97.038 
L 367.289238 73.602 
L 367.614218 75.87 
L 367.939197 76.626 
L 368.264177 77.76 
L 368.589156 98.928 
L 368.914136 99.684 
L 369.239115 98.928 
L 369.564095 99.684 
L 369.889075 99.306 
L 370.214054 99.684 
L 370.539034 100.818 
L 370.864013 99.684 
L 371.188993 99.306 
L 371.513972 97.038 
L 371.838952 73.98 
L 372.488911 76.626 
L 372.81389 79.272 
L 373.13887 77.76 
L 373.463849 77.004 
L 373.788829 76.626 
L 374.438788 78.516 
L 374.763767 88.344 
L 375.088747 89.1 
L 375.413726 87.588 
L 375.738706 92.88 
L 376.063686 90.99 
L 376.388665 90.234 
L 376.713645 87.966 
L 377.038624 88.722 
L 377.688583 84.942 
L 378.013563 75.87 
L 378.338542 75.87 
L 378.663522 98.172 
L 378.988501 91.746 
L 379.313481 113.67 
L 379.96344 115.182 
L 380.613399 115.938 
L 380.938378 115.56 
L 381.263358 116.694 
L 381.588337 116.316 
L 381.913317 99.684 
L 382.238296 121.986 
L 382.563276 101.574 
L 382.888256 101.574 
L 383.213235 106.11 
L 383.538215 104.598 
L 383.863194 112.914 
L 384.188174 112.914 
L 384.513153 112.536 
L 384.838133 113.67 
L 385.163112 108.756 
L 385.488092 86.076 
L 385.813071 84.186 
L 386.138051 83.052 
L 386.46303 78.516 
L 386.78801 78.894 
L 387.112989 71.334 
L 387.437969 94.392 
L 387.762948 93.258 
L 388.087928 114.804 
L 388.412907 112.914 
L 388.737887 135.594 
L 389.062867 135.972 
L 389.387846 137.484 
L 389.712826 137.862 
L 390.037805 160.542 
L 390.362785 164.322 
L 390.687764 142.398 
L 391.012744 145.044 
L 391.337723 123.498 
L 391.662703 126.144 
L 391.987682 104.598 
L 392.312662 105.732 
L 392.637641 103.842 
L 392.962621 104.22 
L 393.2876 82.674 
L 393.61258 77.382 
L 393.937559 77.76 
L 394.262539 75.492 
L 394.587518 76.248 
L 394.912498 73.98 
L 395.237477 73.224 
L 395.562457 72.09 
L 395.887437 71.712 
L 396.212416 71.712 
L 396.537396 71.334 
L 396.862375 72.09 
L 397.187355 70.956 
L 397.512334 72.09 
L 397.837314 70.2 
L 398.162293 69.822 
L 398.487273 70.578 
L 398.487273 70.578 
" clip-path="url(#p50573272a5)" style="fill: none; stroke: #0000ff; stroke-width: 1.5; stroke-linecap: square"/>
   </g>
   <g id="line2d_20">
    <path d="M 73.832727 295.488 
L 183.025848 295.488 
L 183.350827 163.188 
L 183.675807 129.168 
L 184.000786 295.488 
L 215.84878 295.488 
L 216.173759 106.488 
L 216.498739 163.188 
L 218.448616 163.188 
L 218.773595 295.488 
L 227.873022 295.488 
L 228.198002 136.728 
L 228.522981 295.488 
L 232.097756 295.488 
L 232.422735 155.628 
L 233.397674 155.628 
L 233.722654 132.948 
L 235.022572 132.948 
L 235.347551 114.048 
L 235.99751 114.048 
L 236.32249 295.488 
L 246.721835 295.488 
L 247.046814 106.488 
L 248.996691 106.488 
L 249.321671 144.288 
L 249.64665 295.488 
L 261.020934 295.488 
L 261.345913 136.728 
L 261.670893 136.728 
L 261.995872 163.188 
L 264.920688 163.188 
L 265.245667 110.268 
L 265.895627 110.268 
L 266.220606 140.508 
L 266.545586 140.508 
L 266.870565 295.488 
L 269.795381 295.488 
L 270.12036 102.708 
L 270.770319 102.708 
L 271.095299 91.368 
L 271.420278 295.488 
L 275.320033 295.488 
L 275.645012 121.608 
L 276.294971 121.608 
L 276.619951 295.488 
L 285.069419 295.488 
L 285.394398 129.168 
L 286.694316 129.168 
L 287.019296 106.488 
L 287.669255 106.488 
L 287.994234 114.048 
L 290.91905 114.048 
L 291.244029 102.708 
L 291.569009 148.068 
L 293.193907 148.068 
L 293.518886 295.488 
L 297.093661 295.488 
L 297.41864 98.928 
L 297.74362 98.928 
L 298.0686 295.488 
L 316.917412 295.488 
L 317.242391 114.048 
L 318.867289 114.048 
L 319.192269 106.488 
L 320.167207 106.488 
L 320.492187 98.928 
L 322.117084 98.928 
L 322.442064 91.368 
L 322.767043 87.588 
L 323.092023 106.488 
L 324.716921 106.488 
L 325.0419 295.488 
L 327.966716 295.488 
L 328.291695 87.588 
L 328.616675 87.588 
L 328.941654 148.068 
L 329.266634 148.068 
L 329.591613 295.488 
L 332.516429 295.488 
L 332.841409 170.748 
L 334.141327 170.748 
L 334.466306 295.488 
L 338.366061 295.488 
L 338.69104 136.728 
L 339.01602 159.408 
L 339.340999 295.488 
L 344.865651 295.488 
L 345.190631 170.748 
L 345.51561 295.488 
L 352.66516 295.488 
L 352.990139 95.148 
L 353.315119 295.488 
L 356.239934 295.488 
L 356.564914 80.028 
L 356.889894 87.588 
L 359.814709 87.588 
L 360.139689 83.808 
L 360.464668 83.808 
L 360.789648 295.488 
L 366.964259 295.488 
L 367.289238 95.148 
L 368.264177 95.148 
L 368.589156 295.488 
L 371.513972 295.488 
L 371.838952 91.368 
L 372.488911 91.368 
L 372.81389 95.148 
L 374.438788 95.148 
L 374.763767 155.628 
L 377.688583 155.628 
L 378.013563 136.728 
L 378.338542 136.728 
L 378.663522 295.488 
L 385.163112 295.488 
L 385.488092 151.848 
L 386.78801 151.848 
L 387.112989 80.028 
L 387.437969 295.488 
L 392.962621 295.488 
L 393.2876 114.048 
L 393.61258 87.588 
L 397.512334 87.588 
L 397.837314 76.248 
L 398.162293 76.248 
L 398.487273 80.028 
L 398.487273 80.028 
" clip-path="url(#p50573272a5)" style="fill: none; stroke: #ff0000; stroke-width: 1.5; stroke-linecap: square"/>
   </g>
   <g id="line2d_21">
    <path d="M 73.832727 53.568 
L 76.432563 53.568 
L 76.757543 155.628 
L 77.082523 125.388 
L 80.007338 125.388 
L 80.332318 83.808 
L 83.257133 83.808 
L 83.582113 87.588 
L 84.557052 87.588 
L 84.882031 91.368 
L 85.85697 91.368 
L 86.181949 140.508 
L 87.806847 140.508 
L 88.131826 295.488 
L 89.431744 295.488 
L 89.756724 64.908 
L 92.68154 64.908 
L 93.006519 114.048 
L 93.331499 110.268 
L 94.306437 110.268 
L 94.631417 76.248 
L 97.556233 76.248 
L 97.881212 64.908 
L 100.806028 64.908 
L 101.131007 72.468 
L 103.405864 72.468 
L 103.730844 68.688 
L 107.630598 68.688 
L 107.955577 64.908 
L 110.880393 64.908 
L 111.205373 102.708 
L 111.855332 102.708 
L 112.180311 151.848 
L 112.505291 57.348 
L 115.430106 57.348 
L 115.755086 64.908 
L 119.65484 64.908 
L 119.97982 110.268 
L 120.304799 110.268 
L 120.629779 61.128 
L 123.554595 61.128 
L 123.879574 117.828 
L 124.854513 117.828 
L 125.179492 136.728 
L 126.154431 136.728 
L 126.47941 95.148 
L 129.079247 95.148 
L 129.404226 57.348 
L 134.603898 57.348 
L 134.928878 61.128 
L 135.578837 61.128 
L 135.903817 64.908 
L 138.178673 64.908 
L 138.503653 80.028 
L 138.828632 57.348 
L 143.053366 57.348 
L 143.703325 117.828 
L 144.028305 110.268 
L 144.353284 110.268 
L 144.678264 72.468 
L 145.653202 72.468 
L 145.978182 61.128 
L 148.902998 61.128 
L 149.227977 80.028 
L 150.202916 80.028 
L 150.527895 102.708 
L 150.852875 102.708 
L 151.177854 95.148 
L 151.502834 95.148 
L 151.827813 83.808 
L 152.477772 83.808 
L 152.802752 80.028 
L 153.77769 80.028 
L 154.10267 72.468 
L 158.652383 72.468 
L 158.977363 98.928 
L 159.302342 98.928 
L 159.627322 117.828 
L 159.952301 117.828 
L 160.277281 61.128 
L 163.202097 61.128 
L 163.527076 102.708 
L 163.852056 102.708 
L 164.177035 64.908 
L 169.701687 64.908 
L 170.026667 57.348 
L 172.951482 57.348 
L 173.276462 61.128 
L 174.90136 61.128 
L 175.226339 64.908 
L 175.551319 83.808 
L 175.876298 83.808 
L 176.201278 76.248 
L 176.526257 72.468 
L 176.851237 72.468 
L 177.176216 57.348 
L 182.375889 57.348 
L 182.700868 64.908 
L 185.950663 64.908 
L 186.275643 68.688 
L 194.725111 68.688 
L 195.05009 72.468 
L 196.350008 72.468 
L 196.674988 80.028 
L 198.624865 80.028 
L 198.949844 68.688 
L 200.574742 68.688 
L 200.899722 57.348 
L 204.799476 57.348 
L 205.124455 72.468 
L 206.424373 72.468 
L 206.749353 76.248 
L 209.674169 76.248 
L 209.999148 80.028 
L 210.324128 76.248 
L 212.923964 76.248 
L 213.248943 72.468 
L 213.573923 72.468 
L 214.223882 57.348 
L 217.148698 57.348 
L 217.473677 64.908 
L 219.098575 64.908 
L 219.423554 76.248 
L 219.748534 76.248 
L 220.073514 68.688 
L 225.273186 68.688 
L 225.598165 64.908 
L 228.522981 64.908 
L 228.847961 68.688 
L 231.122817 68.688 
L 231.447797 64.908 
L 232.097756 64.908 
L 232.422735 57.348 
L 235.347551 57.348 
L 235.672531 61.128 
L 237.947387 61.128 
L 238.272367 83.808 
L 239.247305 83.808 
L 239.572285 80.028 
L 239.897265 72.468 
L 243.797019 72.468 
L 244.121998 68.688 
L 245.421916 68.688 
L 245.746896 64.908 
L 246.396855 64.908 
L 246.721835 57.348 
L 249.64665 57.348 
L 249.97163 64.908 
L 251.271548 64.908 
L 251.596527 57.348 
L 254.521343 57.348 
L 254.846323 64.908 
L 258.096118 64.908 
L 258.421097 72.468 
L 258.746077 57.348 
L 261.995872 57.348 
L 262.320852 61.128 
L 264.595708 61.128 
L 264.920688 64.908 
L 265.245667 61.128 
L 268.170483 61.128 
L 268.495463 64.908 
L 269.470401 64.908 
L 269.795381 68.688 
L 270.44534 68.688 
L 270.770319 64.908 
L 273.695135 64.908 
L 274.020115 72.468 
L 274.995053 72.468 
L 275.320033 64.908 
L 280.194726 64.908 
L 280.519705 72.468 
L 280.844685 64.908 
L 283.7695 64.908 
L 284.09448 80.028 
L 284.419459 61.128 
L 287.344275 61.128 
L 287.669255 68.688 
L 288.969173 68.688 
L 289.294152 64.908 
L 292.218968 64.908 
L 292.543948 68.688 
L 293.518886 68.688 
L 293.843866 61.128 
L 296.768681 61.128 
L 297.093661 76.248 
L 297.41864 76.248 
L 297.74362 68.688 
L 299.368518 68.688 
L 299.693497 64.908 
L 300.343456 64.908 
L 300.993415 57.348 
L 303.918231 57.348 
L 304.24321 64.908 
L 308.142965 64.908 
L 308.792924 57.348 
L 311.71774 57.348 
L 312.042719 64.908 
L 312.367699 57.348 
L 315.292514 57.348 
L 315.617494 61.128 
L 316.267453 61.128 
L 316.592432 57.348 
L 319.517248 57.348 
L 319.842228 61.128 
L 320.167207 61.128 
L 320.492187 57.348 
L 323.417002 57.348 
L 324.066962 64.908 
L 324.391941 61.128 
L 325.0419 61.128 
L 325.36688 57.348 
L 328.291695 57.348 
L 328.616675 64.908 
L 334.791286 64.908 
L 335.116265 76.248 
L 335.441245 76.248 
L 335.766224 61.128 
L 338.69104 61.128 
L 339.01602 64.908 
L 339.340999 64.908 
L 339.665979 61.128 
L 342.590794 61.128 
L 342.915774 64.908 
L 343.240753 64.908 
L 343.565733 57.348 
L 347.465487 57.348 
L 347.790467 61.128 
L 350.065324 61.128 
L 350.390303 57.348 
L 353.315119 57.348 
L 353.640098 61.128 
L 357.214873 61.128 
L 357.539853 57.348 
L 363.389484 57.348 
L 363.714464 64.908 
L 364.039443 64.908 
L 364.364423 61.128 
L 370.214054 61.128 
L 370.539034 68.688 
L 371.188993 68.688 
L 371.513972 57.348 
L 374.438788 57.348 
L 374.763767 64.908 
L 375.088747 68.688 
L 376.388665 68.688 
L 376.713645 57.348 
L 379.63846 57.348 
L 379.96344 64.908 
L 387.437969 64.908 
L 387.762948 61.128 
L 391.337723 61.128 
L 391.662703 68.688 
L 392.312662 68.688 
L 392.637641 61.128 
L 395.562457 61.128 
L 395.887437 57.348 
L 398.487273 57.348 
L 398.487273 57.348 
" clip-path="url(#p50573272a5)" style="fill: none; stroke: #008000; stroke-width: 1.5; stroke-linecap: square"/>
   </g>
   <g id="patch_3">
    <path d="M 57.6 307.584 
L 57.6 41.472 
" style="fill: none; stroke: #000000; stroke-width: 0.8; stroke-linejoin: miter; stroke-linecap: square"/>
   </g>
   <g id="patch_4">
    <path d="M 414.72 307.584 
L 414.72 41.472 
" style="fill: none; stroke: #000000; stroke-width: 0.8; stroke-linejoin: miter; stroke-linecap: square"/>
   </g>
   <g id="patch_5">
    <path d="M 57.6 307.584 
L 414.72 307.584 
" style="fill: none; stroke: #000000; stroke-width: 0.8; stroke-linejoin: miter; stroke-linecap: square"/>
   </g>
   <g id="patch_6">
    <path d="M 57.6 41.472 
L 414.72 41.472 
" style="fill: none; stroke: #000000; stroke-width: 0.8; stroke-linejoin: miter; stroke-linecap: square"/>
   </g>
   <g id="text_21">
    <!-- Rewards -->
    <g transform="translate(210.689063 35.472) scale(0.12 -0.12)">
     <use xlink:href="#DejaVuSans-52"/>
     <use xlink:href="#DejaVuSans-65" x="64.982422"/>
     <use xlink:href="#DejaVuSans-77" x="126.505859"/>
     <use xlink:href="#DejaVuSans-61" x="208.292969"/>
     <use xlink:href="#DejaVuSans-72" x="269.572266"/>
     <use xlink:href="#DejaVuSans-64" x="308.935547"/>
     <use xlink:href="#DejaVuSans-73" x="372.412109"/>
    </g>
   </g>
   <g id="legend_1">
    <g id="patch_7">
     <path d="M 64.6 93.506375 
L 124.959375 93.506375 
Q 126.959375 93.506375 126.959375 91.506375 
L 126.959375 48.472 
Q 126.959375 46.472 124.959375 46.472 
L 64.6 46.472 
Q 62.6 46.472 62.6 48.472 
L 62.6 91.506375 
Q 62.6 93.506375 64.6 93.506375 
z
" style="fill: #ffffff; opacity: 0.8; stroke: #cccccc; stroke-linejoin: miter"/>
    </g>
    <g id="line2d_22">
     <path d="M 66.6 54.570438 
L 76.6 54.570438 
L 86.6 54.570438 
" style="fill: none; stroke: #0000ff; stroke-width: 1.5; stroke-linecap: square"/>
    </g>
    <g id="text_22">
     <!-- mean -->
     <g transform="translate(94.6 58.070438) scale(0.1 -0.1)">
      <defs>
       <path id="DejaVuSans-6d" d="M 3328 2828 
Q 3544 3216 3844 3400 
Q 4144 3584 4550 3584 
Q 5097 3584 5394 3201 
Q 5691 2819 5691 2113 
L 5691 0 
L 5113 0 
L 5113 2094 
Q 5113 2597 4934 2840 
Q 4756 3084 4391 3084 
Q 3944 3084 3684 2787 
Q 3425 2491 3425 1978 
L 3425 0 
L 2847 0 
L 2847 2094 
Q 2847 2600 2669 2842 
Q 2491 3084 2119 3084 
Q 1678 3084 1418 2786 
Q 1159 2488 1159 1978 
L 1159 0 
L 581 0 
L 581 3500 
L 1159 3500 
L 1159 2956 
Q 1356 3278 1631 3431 
Q 1906 3584 2284 3584 
Q 2666 3584 2933 3390 
Q 3200 3197 3328 2828 
z
" transform="scale(0.015625)"/>
       <path id="DejaVuSans-6e" d="M 3513 2113 
L 3513 0 
L 2938 0 
L 2938 2094 
Q 2938 2591 2744 2837 
Q 2550 3084 2163 3084 
Q 1697 3084 1428 2787 
Q 1159 2491 1159 1978 
L 1159 0 
L 581 0 
L 581 3500 
L 1159 3500 
L 1159 2956 
Q 1366 3272 1645 3428 
Q 1925 3584 2291 3584 
Q 2894 3584 3203 3211 
Q 3513 2838 3513 2113 
z
" transform="scale(0.015625)"/>
      </defs>
      <use xlink:href="#DejaVuSans-6d"/>
      <use xlink:href="#DejaVuSans-65" x="97.412109"/>
      <use xlink:href="#DejaVuSans-61" x="158.935547"/>
      <use xlink:href="#DejaVuSans-6e" x="220.214844"/>
     </g>
    </g>
    <g id="line2d_23">
     <path d="M 66.6 69.248563 
L 76.6 69.248563 
L 86.6 69.248563 
" style="fill: none; stroke: #ff0000; stroke-width: 1.5; stroke-linecap: square"/>
    </g>
    <g id="text_23">
     <!-- min -->
     <g transform="translate(94.6 72.748563) scale(0.1 -0.1)">
      <use xlink:href="#DejaVuSans-6d"/>
      <use xlink:href="#DejaVuSans-69" x="97.412109"/>
      <use xlink:href="#DejaVuSans-6e" x="125.195312"/>
     </g>
    </g>
    <g id="line2d_24">
     <path d="M 66.6 83.926688 
L 76.6 83.926688 
L 86.6 83.926688 
" style="fill: none; stroke: #008000; stroke-width: 1.5; stroke-linecap: square"/>
    </g>
    <g id="text_24">
     <!-- max -->
     <g transform="translate(94.6 87.426688) scale(0.1 -0.1)">
      <defs>
       <path id="DejaVuSans-78" d="M 3513 3500 
L 2247 1797 
L 3578 0 
L 2900 0 
L 1881 1375 
L 863 0 
L 184 0 
L 1544 1831 
L 300 3500 
L 978 3500 
L 1906 2253 
L 2834 3500 
L 3513 3500 
z
" transform="scale(0.015625)"/>
      </defs>
      <use xlink:href="#DejaVuSans-6d"/>
      <use xlink:href="#DejaVuSans-61" x="97.412109"/>
      <use xlink:href="#DejaVuSans-78" x="158.691406"/>
     </g>
    </g>
   </g>
  </g>
 </g>
 <defs>
  <clipPath id="p50573272a5">
   <rect x="57.6" y="41.472" width="357.12" height="266.112"/>
  </clipPath>
 </defs>
</svg>
