<?xml version="1.0" encoding="utf-8" standalone="no"?>
<!DOCTYPE svg PUBLIC "-//W3C//DTD SVG 1.1//EN"
  "http://www.w3.org/Graphics/SVG/1.1/DTD/svg11.dtd">
<svg xmlns:xlink="http://www.w3.org/1999/xlink" width="460.8pt" height="345.6pt" viewBox="0 0 460.8 345.6" xmlns="http://www.w3.org/2000/svg" version="1.1">
 <metadata>
  <rdf:RDF xmlns:dc="http://purl.org/dc/elements/1.1/" xmlns:cc="http://creativecommons.org/ns#" xmlns:rdf="http://www.w3.org/1999/02/22-rdf-syntax-ns#">
   <cc:Work>
    <dc:type rdf:resource="http://purl.org/dc/dcmitype/StillImage"/>
    <dc:date>2023-07-21T15:29:39.294614</dc:date>
    <dc:format>image/svg+xml</dc:format>
    <dc:creator>
     <cc:Agent>
      <dc:title>Matplotlib v3.7.2, https://matplotlib.org/</dc:title>
     </cc:Agent>
    </dc:creator>
   </cc:Work>
  </rdf:RDF>
 </metadata>
 <defs>
  <style type="text/css">*{stroke-linejoin: round; stroke-linecap: butt}</style>
 </defs>
 <g id="figure_1">
  <g id="patch_1">
   <path d="M 0 345.6 
L 460.8 345.6 
L 460.8 0 
L 0 0 
z
" style="fill: #ffffff"/>
  </g>
  <g id="axes_1">
   <g id="patch_2">
    <path d="M 57.6 307.584 
L 414.72 307.584 
L 414.72 41.472 
L 57.6 41.472 
z
" style="fill: #ffffff"/>
   </g>
   <g id="matplotlib.axis_1">
    <g id="xtick_1">
     <g id="line2d_1">
      <defs>
       <path id="m7c948f1698" d="M 0 0 
L 0 3.5 
" style="stroke: #000000; stroke-width: 0.8"/>
      </defs>
      <g>
       <use xlink:href="#m7c948f1698" x="66.514694" y="307.584" style="stroke: #000000; stroke-width: 0.8"/>
      </g>
     </g>
     <g id="text_1">
      <!-- 0 -->
      <g transform="translate(63.333444 322.182437) scale(0.1 -0.1)">
       <defs>
        <path id="DejaVuSans-30" d="M 2034 4250 
Q 1547 4250 1301 3770 
Q 1056 3291 1056 2328 
Q 1056 1369 1301 889 
Q 1547 409 2034 409 
Q 2525 409 2770 889 
Q 3016 1369 3016 2328 
Q 3016 3291 2770 3770 
Q 2525 4250 2034 4250 
z
M 2034 4750 
Q 2819 4750 3233 4129 
Q 3647 3509 3647 2328 
Q 3647 1150 3233 529 
Q 2819 -91 2034 -91 
Q 1250 -91 836 529 
Q 422 1150 422 2328 
Q 422 3509 836 4129 
Q 1250 4750 2034 4750 
z
" transform="scale(0.015625)"/>
       </defs>
       <use xlink:href="#DejaVuSans-30"/>
      </g>
     </g>
    </g>
    <g id="xtick_2">
     <g id="line2d_2">
      <g>
       <use xlink:href="#m7c948f1698" x="133.042265" y="307.584" style="stroke: #000000; stroke-width: 0.8"/>
      </g>
     </g>
     <g id="text_2">
      <!-- 100 -->
      <g transform="translate(123.498515 322.182437) scale(0.1 -0.1)">
       <defs>
        <path id="DejaVuSans-31" d="M 794 531 
L 1825 531 
L 1825 4091 
L 703 3866 
L 703 4441 
L 1819 4666 
L 2450 4666 
L 2450 531 
L 3481 531 
L 3481 0 
L 794 0 
L 794 531 
z
" transform="scale(0.015625)"/>
       </defs>
       <use xlink:href="#DejaVuSans-31"/>
       <use xlink:href="#DejaVuSans-30" x="63.623047"/>
       <use xlink:href="#DejaVuSans-30" x="127.246094"/>
      </g>
     </g>
    </g>
    <g id="xtick_3">
     <g id="line2d_3">
      <g>
       <use xlink:href="#m7c948f1698" x="199.569836" y="307.584" style="stroke: #000000; stroke-width: 0.8"/>
      </g>
     </g>
     <g id="text_3">
      <!-- 200 -->
      <g transform="translate(190.026086 322.182437) scale(0.1 -0.1)">
       <defs>
        <path id="DejaVuSans-32" d="M 1228 531 
L 3431 531 
L 3431 0 
L 469 0 
L 469 531 
Q 828 903 1448 1529 
Q 2069 2156 2228 2338 
Q 2531 2678 2651 2914 
Q 2772 3150 2772 3378 
Q 2772 3750 2511 3984 
Q 2250 4219 1831 4219 
Q 1534 4219 1204 4116 
Q 875 4013 500 3803 
L 500 4441 
Q 881 4594 1212 4672 
Q 1544 4750 1819 4750 
Q 2544 4750 2975 4387 
Q 3406 4025 3406 3419 
Q 3406 3131 3298 2873 
Q 3191 2616 2906 2266 
Q 2828 2175 2409 1742 
Q 1991 1309 1228 531 
z
" transform="scale(0.015625)"/>
       </defs>
       <use xlink:href="#DejaVuSans-32"/>
       <use xlink:href="#DejaVuSans-30" x="63.623047"/>
       <use xlink:href="#DejaVuSans-30" x="127.246094"/>
      </g>
     </g>
    </g>
    <g id="xtick_4">
     <g id="line2d_4">
      <g>
       <use xlink:href="#m7c948f1698" x="266.097407" y="307.584" style="stroke: #000000; stroke-width: 0.8"/>
      </g>
     </g>
     <g id="text_4">
      <!-- 300 -->
      <g transform="translate(256.553657 322.182437) scale(0.1 -0.1)">
       <defs>
        <path id="DejaVuSans-33" d="M 2597 2516 
Q 3050 2419 3304 2112 
Q 3559 1806 3559 1356 
Q 3559 666 3084 287 
Q 2609 -91 1734 -91 
Q 1441 -91 1130 -33 
Q 819 25 488 141 
L 488 750 
Q 750 597 1062 519 
Q 1375 441 1716 441 
Q 2309 441 2620 675 
Q 2931 909 2931 1356 
Q 2931 1769 2642 2001 
Q 2353 2234 1838 2234 
L 1294 2234 
L 1294 2753 
L 1863 2753 
Q 2328 2753 2575 2939 
Q 2822 3125 2822 3475 
Q 2822 3834 2567 4026 
Q 2313 4219 1838 4219 
Q 1578 4219 1281 4162 
Q 984 4106 628 3988 
L 628 4550 
Q 988 4650 1302 4700 
Q 1616 4750 1894 4750 
Q 2613 4750 3031 4423 
Q 3450 4097 3450 3541 
Q 3450 3153 3228 2886 
Q 3006 2619 2597 2516 
z
" transform="scale(0.015625)"/>
       </defs>
       <use xlink:href="#DejaVuSans-33"/>
       <use xlink:href="#DejaVuSans-30" x="63.623047"/>
       <use xlink:href="#DejaVuSans-30" x="127.246094"/>
      </g>
     </g>
    </g>
    <g id="xtick_5">
     <g id="line2d_5">
      <g>
       <use xlink:href="#m7c948f1698" x="332.624978" y="307.584" style="stroke: #000000; stroke-width: 0.8"/>
      </g>
     </g>
     <g id="text_5">
      <!-- 400 -->
      <g transform="translate(323.081228 322.182437) scale(0.1 -0.1)">
       <defs>
        <path id="DejaVuSans-34" d="M 2419 4116 
L 825 1625 
L 2419 1625 
L 2419 4116 
z
M 2253 4666 
L 3047 4666 
L 3047 1625 
L 3713 1625 
L 3713 1100 
L 3047 1100 
L 3047 0 
L 2419 0 
L 2419 1100 
L 313 1100 
L 313 1709 
L 2253 4666 
z
" transform="scale(0.015625)"/>
       </defs>
       <use xlink:href="#DejaVuSans-34"/>
       <use xlink:href="#DejaVuSans-30" x="63.623047"/>
       <use xlink:href="#DejaVuSans-30" x="127.246094"/>
      </g>
     </g>
    </g>
    <g id="xtick_6">
     <g id="line2d_6">
      <g>
       <use xlink:href="#m7c948f1698" x="399.152548" y="307.584" style="stroke: #000000; stroke-width: 0.8"/>
      </g>
     </g>
     <g id="text_6">
      <!-- 500 -->
      <g transform="translate(389.608798 322.182437) scale(0.1 -0.1)">
       <defs>
        <path id="DejaVuSans-35" d="M 691 4666 
L 3169 4666 
L 3169 4134 
L 1269 4134 
L 1269 2991 
Q 1406 3038 1543 3061 
Q 1681 3084 1819 3084 
Q 2600 3084 3056 2656 
Q 3513 2228 3513 1497 
Q 3513 744 3044 326 
Q 2575 -91 1722 -91 
Q 1428 -91 1123 -41 
Q 819 9 494 109 
L 494 744 
Q 775 591 1075 516 
Q 1375 441 1709 441 
Q 2250 441 2565 725 
Q 2881 1009 2881 1497 
Q 2881 1984 2565 2268 
Q 2250 2553 1709 2553 
Q 1456 2553 1204 2497 
Q 953 2441 691 2322 
L 691 4666 
z
" transform="scale(0.015625)"/>
       </defs>
       <use xlink:href="#DejaVuSans-35"/>
       <use xlink:href="#DejaVuSans-30" x="63.623047"/>
       <use xlink:href="#DejaVuSans-30" x="127.246094"/>
      </g>
     </g>
    </g>
    <g id="text_7">
     <!-- Episode -->
     <g transform="translate(216.5225 335.860562) scale(0.1 -0.1)">
      <defs>
       <path id="DejaVuSans-45" d="M 628 4666 
L 3578 4666 
L 3578 4134 
L 1259 4134 
L 1259 2753 
L 3481 2753 
L 3481 2222 
L 1259 2222 
L 1259 531 
L 3634 531 
L 3634 0 
L 628 0 
L 628 4666 
z
" transform="scale(0.015625)"/>
       <path id="DejaVuSans-70" d="M 1159 525 
L 1159 -1331 
L 581 -1331 
L 581 3500 
L 1159 3500 
L 1159 2969 
Q 1341 3281 1617 3432 
Q 1894 3584 2278 3584 
Q 2916 3584 3314 3078 
Q 3713 2572 3713 1747 
Q 3713 922 3314 415 
Q 2916 -91 2278 -91 
Q 1894 -91 1617 61 
Q 1341 213 1159 525 
z
M 3116 1747 
Q 3116 2381 2855 2742 
Q 2594 3103 2138 3103 
Q 1681 3103 1420 2742 
Q 1159 2381 1159 1747 
Q 1159 1113 1420 752 
Q 1681 391 2138 391 
Q 2594 391 2855 752 
Q 3116 1113 3116 1747 
z
" transform="scale(0.015625)"/>
       <path id="DejaVuSans-69" d="M 603 3500 
L 1178 3500 
L 1178 0 
L 603 0 
L 603 3500 
z
M 603 4863 
L 1178 4863 
L 1178 4134 
L 603 4134 
L 603 4863 
z
" transform="scale(0.015625)"/>
       <path id="DejaVuSans-73" d="M 2834 3397 
L 2834 2853 
Q 2591 2978 2328 3040 
Q 2066 3103 1784 3103 
Q 1356 3103 1142 2972 
Q 928 2841 928 2578 
Q 928 2378 1081 2264 
Q 1234 2150 1697 2047 
L 1894 2003 
Q 2506 1872 2764 1633 
Q 3022 1394 3022 966 
Q 3022 478 2636 193 
Q 2250 -91 1575 -91 
Q 1294 -91 989 -36 
Q 684 19 347 128 
L 347 722 
Q 666 556 975 473 
Q 1284 391 1588 391 
Q 1994 391 2212 530 
Q 2431 669 2431 922 
Q 2431 1156 2273 1281 
Q 2116 1406 1581 1522 
L 1381 1569 
Q 847 1681 609 1914 
Q 372 2147 372 2553 
Q 372 3047 722 3315 
Q 1072 3584 1716 3584 
Q 2034 3584 2315 3537 
Q 2597 3491 2834 3397 
z
" transform="scale(0.015625)"/>
       <path id="DejaVuSans-6f" d="M 1959 3097 
Q 1497 3097 1228 2736 
Q 959 2375 959 1747 
Q 959 1119 1226 758 
Q 1494 397 1959 397 
Q 2419 397 2687 759 
Q 2956 1122 2956 1747 
Q 2956 2369 2687 2733 
Q 2419 3097 1959 3097 
z
M 1959 3584 
Q 2709 3584 3137 3096 
Q 3566 2609 3566 1747 
Q 3566 888 3137 398 
Q 2709 -91 1959 -91 
Q 1206 -91 779 398 
Q 353 888 353 1747 
Q 353 2609 779 3096 
Q 1206 3584 1959 3584 
z
" transform="scale(0.015625)"/>
       <path id="DejaVuSans-64" d="M 2906 2969 
L 2906 4863 
L 3481 4863 
L 3481 0 
L 2906 0 
L 2906 525 
Q 2725 213 2448 61 
Q 2172 -91 1784 -91 
Q 1150 -91 751 415 
Q 353 922 353 1747 
Q 353 2572 751 3078 
Q 1150 3584 1784 3584 
Q 2172 3584 2448 3432 
Q 2725 3281 2906 2969 
z
M 947 1747 
Q 947 1113 1208 752 
Q 1469 391 1925 391 
Q 2381 391 2643 752 
Q 2906 1113 2906 1747 
Q 2906 2381 2643 2742 
Q 2381 3103 1925 3103 
Q 1469 3103 1208 2742 
Q 947 2381 947 1747 
z
" transform="scale(0.015625)"/>
       <path id="DejaVuSans-65" d="M 3597 1894 
L 3597 1613 
L 953 1613 
Q 991 1019 1311 708 
Q 1631 397 2203 397 
Q 2534 397 2845 478 
Q 3156 559 3463 722 
L 3463 178 
Q 3153 47 2828 -22 
Q 2503 -91 2169 -91 
Q 1331 -91 842 396 
Q 353 884 353 1716 
Q 353 2575 817 3079 
Q 1281 3584 2069 3584 
Q 2775 3584 3186 3129 
Q 3597 2675 3597 1894 
z
M 3022 2063 
Q 3016 2534 2758 2815 
Q 2500 3097 2075 3097 
Q 1594 3097 1305 2825 
Q 1016 2553 972 2059 
L 3022 2063 
z
" transform="scale(0.015625)"/>
      </defs>
      <use xlink:href="#DejaVuSans-45"/>
      <use xlink:href="#DejaVuSans-70" x="63.183594"/>
      <use xlink:href="#DejaVuSans-69" x="126.660156"/>
      <use xlink:href="#DejaVuSans-73" x="154.443359"/>
      <use xlink:href="#DejaVuSans-6f" x="206.542969"/>
      <use xlink:href="#DejaVuSans-64" x="267.724609"/>
      <use xlink:href="#DejaVuSans-65" x="331.201172"/>
     </g>
    </g>
   </g>
   <g id="matplotlib.axis_2">
    <g id="ytick_1">
     <g id="line2d_7">
      <defs>
       <path id="m56ae42853a" d="M 0 0 
L -3.5 0 
" style="stroke: #000000; stroke-width: 0.8"/>
      </defs>
      <g>
       <use xlink:href="#m56ae42853a" x="57.6" y="295.488" style="stroke: #000000; stroke-width: 0.8"/>
      </g>
     </g>
     <g id="text_8">
      <!-- 0.0 -->
      <g transform="translate(34.696875 299.287219) scale(0.1 -0.1)">
       <defs>
        <path id="DejaVuSans-2e" d="M 684 794 
L 1344 794 
L 1344 0 
L 684 0 
L 684 794 
z
" transform="scale(0.015625)"/>
       </defs>
       <use xlink:href="#DejaVuSans-30"/>
       <use xlink:href="#DejaVuSans-2e" x="63.623047"/>
       <use xlink:href="#DejaVuSans-30" x="95.410156"/>
      </g>
     </g>
    </g>
    <g id="ytick_2">
     <g id="line2d_8">
      <g>
       <use xlink:href="#m56ae42853a" x="57.6" y="261.502484" style="stroke: #000000; stroke-width: 0.8"/>
      </g>
     </g>
     <g id="text_9">
      <!-- 2.5 -->
      <g transform="translate(34.696875 265.301703) scale(0.1 -0.1)">
       <use xlink:href="#DejaVuSans-32"/>
       <use xlink:href="#DejaVuSans-2e" x="63.623047"/>
       <use xlink:href="#DejaVuSans-35" x="95.410156"/>
      </g>
     </g>
    </g>
    <g id="ytick_3">
     <g id="line2d_9">
      <g>
       <use xlink:href="#m56ae42853a" x="57.6" y="227.516968" style="stroke: #000000; stroke-width: 0.8"/>
      </g>
     </g>
     <g id="text_10">
      <!-- 5.0 -->
      <g transform="translate(34.696875 231.316187) scale(0.1 -0.1)">
       <use xlink:href="#DejaVuSans-35"/>
       <use xlink:href="#DejaVuSans-2e" x="63.623047"/>
       <use xlink:href="#DejaVuSans-30" x="95.410156"/>
      </g>
     </g>
    </g>
    <g id="ytick_4">
     <g id="line2d_10">
      <g>
       <use xlink:href="#m56ae42853a" x="57.6" y="193.531453" style="stroke: #000000; stroke-width: 0.8"/>
      </g>
     </g>
     <g id="text_11">
      <!-- 7.5 -->
      <g transform="translate(34.696875 197.330671) scale(0.1 -0.1)">
       <defs>
        <path id="DejaVuSans-37" d="M 525 4666 
L 3525 4666 
L 3525 4397 
L 1831 0 
L 1172 0 
L 2766 4134 
L 525 4134 
L 525 4666 
z
" transform="scale(0.015625)"/>
       </defs>
       <use xlink:href="#DejaVuSans-37"/>
       <use xlink:href="#DejaVuSans-2e" x="63.623047"/>
       <use xlink:href="#DejaVuSans-35" x="95.410156"/>
      </g>
     </g>
    </g>
    <g id="ytick_5">
     <g id="line2d_11">
      <g>
       <use xlink:href="#m56ae42853a" x="57.6" y="159.545937" style="stroke: #000000; stroke-width: 0.8"/>
      </g>
     </g>
     <g id="text_12">
      <!-- 10.0 -->
      <g transform="translate(28.334375 163.345156) scale(0.1 -0.1)">
       <use xlink:href="#DejaVuSans-31"/>
       <use xlink:href="#DejaVuSans-30" x="63.623047"/>
       <use xlink:href="#DejaVuSans-2e" x="127.246094"/>
       <use xlink:href="#DejaVuSans-30" x="159.033203"/>
      </g>
     </g>
    </g>
    <g id="ytick_6">
     <g id="line2d_12">
      <g>
       <use xlink:href="#m56ae42853a" x="57.6" y="125.560421" style="stroke: #000000; stroke-width: 0.8"/>
      </g>
     </g>
     <g id="text_13">
      <!-- 12.5 -->
      <g transform="translate(28.334375 129.35964) scale(0.1 -0.1)">
       <use xlink:href="#DejaVuSans-31"/>
       <use xlink:href="#DejaVuSans-32" x="63.623047"/>
       <use xlink:href="#DejaVuSans-2e" x="127.246094"/>
       <use xlink:href="#DejaVuSans-35" x="159.033203"/>
      </g>
     </g>
    </g>
    <g id="ytick_7">
     <g id="line2d_13">
      <g>
       <use xlink:href="#m56ae42853a" x="57.6" y="91.574905" style="stroke: #000000; stroke-width: 0.8"/>
      </g>
     </g>
     <g id="text_14">
      <!-- 15.0 -->
      <g transform="translate(28.334375 95.374124) scale(0.1 -0.1)">
       <use xlink:href="#DejaVuSans-31"/>
       <use xlink:href="#DejaVuSans-35" x="63.623047"/>
       <use xlink:href="#DejaVuSans-2e" x="127.246094"/>
       <use xlink:href="#DejaVuSans-30" x="159.033203"/>
      </g>
     </g>
    </g>
    <g id="ytick_8">
     <g id="line2d_14">
      <g>
       <use xlink:href="#m56ae42853a" x="57.6" y="57.589389" style="stroke: #000000; stroke-width: 0.8"/>
      </g>
     </g>
     <g id="text_15">
      <!-- 17.5 -->
      <g transform="translate(28.334375 61.388608) scale(0.1 -0.1)">
       <use xlink:href="#DejaVuSans-31"/>
       <use xlink:href="#DejaVuSans-37" x="63.623047"/>
       <use xlink:href="#DejaVuSans-2e" x="127.246094"/>
       <use xlink:href="#DejaVuSans-35" x="159.033203"/>
      </g>
     </g>
    </g>
    <g id="text_16">
     <!-- Loss -->
     <g transform="translate(22.254688 185.495187) rotate(-90) scale(0.1 -0.1)">
      <defs>
       <path id="DejaVuSans-4c" d="M 628 4666 
L 1259 4666 
L 1259 531 
L 3531 531 
L 3531 0 
L 628 0 
L 628 4666 
z
" transform="scale(0.015625)"/>
      </defs>
      <use xlink:href="#DejaVuSans-4c"/>
      <use xlink:href="#DejaVuSans-6f" x="53.962891"/>
      <use xlink:href="#DejaVuSans-73" x="115.144531"/>
      <use xlink:href="#DejaVuSans-73" x="167.244141"/>
     </g>
    </g>
   </g>
   <g id="line2d_15">
    <path d="M 73.832727 295.375959 
L 75.163279 295.470508 
L 115.745097 295.487949 
L 398.487273 295.488 
L 398.487273 295.488 
" clip-path="url(#p813c09329a)" style="fill: none; stroke: #008000; stroke-width: 1.5; stroke-linecap: square"/>
   </g>
   <g id="line2d_16">
    <path d="M 73.832727 294.077947 
L 74.498003 295.106862 
L 75.163279 295.414999 
L 83.146587 295.481788 
L 143.686677 295.483746 
L 144.351952 295.269619 
L 145.017228 239.500453 
L 145.682504 239.604875 
L 148.343607 239.35341 
L 149.008882 239.05902 
L 149.674158 239.223318 
L 150.339434 238.806803 
L 151.004709 238.833646 
L 151.669985 239.028916 
L 154.996364 238.512141 
L 155.661639 181.944933 
L 156.326915 238.586245 
L 158.322742 238.364119 
L 160.318569 238.209233 
L 163.644948 237.905774 
L 166.971326 237.560874 
L 168.301878 237.470596 
L 168.967154 295.470919 
L 188.260149 295.408801 
L 194.912906 295.450398 
L 204.892042 295.487201 
L 267.427958 295.478723 
L 268.093234 233.509757 
L 278.07237 233.404972 
L 284.059851 233.382907 
L 284.725127 171.343206 
L 285.390402 171.342882 
L 286.055678 233.389233 
L 289.382057 233.428969 
L 290.047332 171.386041 
L 292.043159 171.427501 
L 292.708435 233.457297 
L 293.373711 233.471221 
L 294.038987 171.626129 
L 295.369538 171.603805 
L 296.034814 171.791335 
L 296.700089 109.909937 
L 297.365365 171.575672 
L 298.030641 171.736275 
L 298.695917 110.243421 
L 299.361192 171.678272 
L 301.357019 172.153186 
L 302.687571 171.859282 
L 303.352846 171.808111 
L 304.018122 110.612714 
L 304.683398 171.73739 
L 306.679225 172.339394 
L 307.344501 171.978542 
L 310.005604 172.604465 
L 310.670879 172.307009 
L 311.336155 172.490508 
L 312.001431 172.523736 
L 312.666706 111.934348 
L 313.331982 172.653691 
L 313.997258 172.958952 
L 314.662534 172.339368 
L 315.327809 172.358763 
L 315.993085 172.557806 
L 316.658361 112.485052 
L 317.323636 172.827363 
L 317.988912 172.883356 
L 318.654188 173.238012 
L 319.984739 172.311534 
L 320.650015 172.82582 
L 321.315291 112.725672 
L 321.980566 112.56066 
L 323.311118 112.552013 
L 323.976393 113.062955 
L 324.641669 173.09386 
L 325.306945 112.570293 
L 325.972221 172.978217 
L 326.637496 113.019135 
L 327.302772 112.237535 
L 327.968048 112.989835 
L 328.633323 173.345941 
L 329.298599 173.351412 
L 329.963875 113.006197 
L 330.629151 173.344035 
L 331.294426 113.698783 
L 331.959702 172.924856 
L 332.624978 113.077579 
L 333.290253 113.16059 
L 333.955529 113.035613 
L 334.620805 53.568 
L 335.28608 112.814582 
L 335.951356 114.468327 
L 336.616632 173.921575 
L 337.281908 174.365555 
L 337.947183 114.309966 
L 338.612459 113.320273 
L 339.277735 114.34965 
L 339.94301 54.347915 
L 340.608286 173.673397 
L 341.273562 56.970156 
L 342.604113 174.376031 
L 343.269389 174.518951 
L 343.934665 173.947024 
L 344.59994 113.594834 
L 345.265216 115.181553 
L 345.930492 174.273689 
L 346.595768 114.434775 
L 347.261043 175.733966 
L 347.926319 174.495239 
L 348.591595 115.735614 
L 349.25687 174.290984 
L 349.922146 117.719499 
L 350.587422 174.453779 
L 351.252697 59.3678 
L 351.917973 174.789584 
L 353.248525 174.650605 
L 353.9138 114.909209 
L 354.579076 174.264472 
L 355.244352 174.553929 
L 355.909627 174.599642 
L 356.574903 174.90992 
L 357.240179 119.376886 
L 357.905455 114.613373 
L 358.57073 175.303391 
L 359.236006 175.454686 
L 359.901282 62.735548 
L 360.566557 175.32237 
L 361.231833 117.812454 
L 361.897109 121.636408 
L 362.562385 120.861017 
L 363.22766 62.15749 
L 364.558212 176.596581 
L 365.223487 124.682936 
L 365.888763 118.315059 
L 366.554039 122.643784 
L 367.219314 120.630133 
L 367.88459 119.693867 
L 368.549866 122.752568 
L 369.215142 123.690248 
L 369.880417 176.709579 
L 370.545693 123.725459 
L 371.210969 121.636939 
L 371.876244 120.76346 
L 372.54152 65.581348 
L 373.206796 177.204847 
L 373.872072 177.568772 
L 374.537347 63.684468 
L 375.202623 177.652976 
L 375.867899 127.875715 
L 376.533174 179.842139 
L 377.19845 131.531883 
L 377.863726 123.035103 
L 378.529001 128.802829 
L 379.194277 69.30497 
L 379.859553 133.577764 
L 380.524829 134.084311 
L 381.190104 130.730046 
L 381.85538 72.399531 
L 382.520656 131.498643 
L 383.185931 127.426601 
L 383.851207 122.596671 
L 384.516483 134.521096 
L 385.181759 130.304293 
L 385.847034 180.652365 
L 386.51231 78.955288 
L 387.842861 181.282113 
L 388.508137 125.423568 
L 389.173413 127.623298 
L 389.838689 130.384154 
L 390.503964 136.769818 
L 391.16924 85.70336 
L 391.834516 129.976759 
L 392.499791 137.754532 
L 393.165067 126.464224 
L 393.830343 87.639755 
L 394.495618 83.68193 
L 395.160894 130.055817 
L 395.82617 184.243478 
L 396.491446 90.908209 
L 397.156721 141.513508 
L 397.821997 141.214872 
L 398.487273 189.751079 
L 398.487273 189.751079 
" clip-path="url(#p813c09329a)" style="fill: none; stroke: #ff0000; stroke-width: 1.5; stroke-linecap: square"/>
   </g>
   <g id="line2d_17">
    <path d="M 73.832727 294.965994 
L 74.498003 295.364522 
L 75.828554 295.455818 
L 89.134069 295.486883 
L 144.351952 295.483666 
L 145.682504 294.916971 
L 146.347779 293.79914 
L 147.013055 294.350831 
L 147.678331 293.791136 
L 148.343607 294.053692 
L 149.008882 294.613632 
L 149.674158 293.213176 
L 150.339434 294.619635 
L 151.004709 294.318927 
L 151.669985 292.928753 
L 153.000537 294.042287 
L 153.665812 294.88844 
L 154.331088 292.923449 
L 154.996364 292.344314 
L 155.661639 290.923211 
L 156.326915 292.621815 
L 156.992191 293.470247 
L 157.657466 293.193353 
L 158.322742 292.62262 
L 158.988018 292.902346 
L 159.653294 294.331277 
L 160.318569 294.048446 
L 160.983845 293.473785 
L 161.649121 293.186189 
L 162.314396 294.045781 
L 162.979672 293.758736 
L 163.644948 294.332809 
L 164.310224 293.466677 
L 164.975499 294.329641 
L 165.640775 294.907742 
L 166.971326 293.748443 
L 167.636602 294.036598 
L 168.301878 294.615588 
L 168.967154 295.486345 
L 267.427958 295.486488 
L 268.093234 295.176067 
L 268.75851 294.244594 
L 269.423785 294.865699 
L 270.754337 294.865584 
L 271.419613 295.175832 
L 272.084888 294.864268 
L 272.750164 295.175682 
L 273.41544 294.865088 
L 274.080715 294.865006 
L 274.745991 294.244188 
L 275.411267 294.55335 
L 276.076542 293.622724 
L 277.407094 292.380614 
L 278.07237 292.381393 
L 279.402921 293.001526 
L 280.733472 291.75943 
L 281.398748 292.379521 
L 282.064024 292.689761 
L 282.7293 293.622598 
L 283.394575 293.312015 
L 284.059851 293.311146 
L 284.725127 291.756351 
L 285.390402 290.827253 
L 286.055678 290.827055 
L 286.720954 291.758173 
L 287.38623 291.448971 
L 288.051505 290.824961 
L 288.716781 291.449237 
L 289.382057 291.447987 
L 290.047332 290.207551 
L 290.712608 291.141451 
L 291.377884 286.795065 
L 292.043159 289.592649 
L 292.708435 288.662938 
L 293.373711 285.879664 
L 294.038987 286.502194 
L 294.704262 285.269057 
L 295.369538 282.485801 
L 296.034814 287.746837 
L 296.700089 281.872331 
L 297.365365 280.011066 
L 298.030641 284.034236 
L 298.695917 280.951345 
L 300.026468 282.192657 
L 300.691744 286.525719 
L 301.357019 288.069221 
L 302.022295 280.35369 
L 302.687571 278.511584 
L 303.352846 280.364242 
L 304.018122 278.833823 
L 305.348674 281.298111 
L 306.013949 281.017553 
L 306.679225 285.33085 
L 307.344501 284.712617 
L 308.009776 281.637365 
L 308.675052 277.350217 
L 309.340328 283.80253 
L 310.005604 282.569991 
L 310.670879 280.74018 
L 311.336155 279.823218 
L 312.001431 281.979397 
L 312.666706 278.914115 
L 313.331982 282.305811 
L 313.997258 288.433337 
L 314.662534 285.065296 
L 315.327809 284.142208 
L 315.993085 282.619185 
L 316.658361 278.943284 
L 317.323636 279.249014 
L 317.988912 281.417605 
L 318.654188 282.039155 
L 319.319463 285.080909 
L 319.984739 282.034518 
L 320.650015 282.961968 
L 321.315291 282.968532 
L 321.980566 279.901662 
L 322.645842 278.077651 
L 323.311118 279.940309 
L 323.976393 281.46058 
L 324.641669 283.91001 
L 325.306945 279.644718 
L 325.972221 281.767648 
L 326.637496 282.084279 
L 327.302772 275.103111 
L 327.968048 276.634864 
L 328.633323 276.046945 
L 329.298599 279.710004 
L 329.963875 277.85726 
L 330.629151 283.942665 
L 331.294426 277.553965 
L 331.959702 268.797973 
L 332.624978 277.620972 
L 333.290253 279.111559 
L 333.955529 268.213701 
L 334.620805 269.800705 
L 335.28608 284.874513 
L 335.951356 278.252118 
L 336.616632 274.030968 
L 337.281908 281.311671 
L 337.947183 267.735378 
L 338.612459 261.127996 
L 339.277735 268.994465 
L 339.94301 281.057762 
L 340.608286 268.393502 
L 341.273562 266.072448 
L 342.604113 282.87591 
L 343.934665 274.502353 
L 344.59994 272.118686 
L 345.265216 285.602185 
L 345.930492 282.606361 
L 346.595768 271.287704 
L 347.261043 274.359837 
L 347.926319 279.116621 
L 348.591595 267.437335 
L 349.25687 275.830242 
L 349.922146 280.902646 
L 350.587422 283.305973 
L 351.252697 281.488402 
L 351.917973 281.544899 
L 352.583249 281.790099 
L 353.248525 282.392996 
L 353.9138 280.597292 
L 354.579076 282.083952 
L 355.244352 272.257291 
L 355.909627 274.982151 
L 356.574903 283.333943 
L 357.240179 283.385911 
L 357.905455 269.400499 
L 358.57073 283.055154 
L 359.236006 268.064017 
L 359.901282 275.101948 
L 360.566557 269.85026 
L 361.231833 274.876888 
L 361.897109 270.895632 
L 362.562385 270.315824 
L 363.22766 274.064032 
L 363.892936 278.491379 
L 364.558212 275.266256 
L 365.223487 270.419185 
L 366.554039 281.827599 
L 367.219314 277.53026 
L 367.88459 283.844843 
L 368.549866 274.564978 
L 369.215142 269.188529 
L 369.880417 284.721827 
L 370.545693 282.530449 
L 371.210969 263.700791 
L 371.876244 282.687044 
L 372.54152 267.815482 
L 373.206796 281.944463 
L 373.872072 282.495243 
L 374.537347 269.699657 
L 375.202623 277.711128 
L 375.867899 274.942686 
L 376.533174 279.25753 
L 377.19845 276.40525 
L 377.863726 271.839064 
L 378.529001 276.688011 
L 379.194277 276.492316 
L 379.859553 280.908217 
L 380.524829 270.239837 
L 381.190104 280.603611 
L 381.85538 281.552777 
L 382.520656 278.699233 
L 383.185931 282.901497 
L 383.851207 273.920593 
L 384.516483 284.676796 
L 385.181759 276.003952 
L 385.847034 283.029897 
L 386.51231 282.378923 
L 387.177586 282.232695 
L 387.842861 274.419968 
L 388.508137 282.297139 
L 389.173413 271.840323 
L 389.838689 278.155582 
L 390.503964 277.809677 
L 391.16924 281.555234 
L 391.834516 283.15497 
L 392.499791 278.199614 
L 393.165067 271.574108 
L 393.830343 282.407341 
L 394.495618 272.514513 
L 395.160894 284.9836 
L 395.82617 274.394943 
L 396.491446 274.062233 
L 397.156721 272.498238 
L 397.821997 277.022873 
L 398.487273 283.766157 
L 398.487273 283.766157 
" clip-path="url(#p813c09329a)" style="fill: none; stroke: #0000ff; stroke-width: 1.5; stroke-linecap: square"/>
   </g>
   <g id="patch_3">
    <path d="M 57.6 307.584 
L 57.6 41.472 
" style="fill: none; stroke: #000000; stroke-width: 0.8; stroke-linejoin: miter; stroke-linecap: square"/>
   </g>
   <g id="patch_4">
    <path d="M 414.72 307.584 
L 414.72 41.472 
" style="fill: none; stroke: #000000; stroke-width: 0.8; stroke-linejoin: miter; stroke-linecap: square"/>
   </g>
   <g id="patch_5">
    <path d="M 57.6 307.584 
L 414.72 307.584 
" style="fill: none; stroke: #000000; stroke-width: 0.8; stroke-linejoin: miter; stroke-linecap: square"/>
   </g>
   <g id="patch_6">
    <path d="M 57.6 41.472 
L 414.72 41.472 
" style="fill: none; stroke: #000000; stroke-width: 0.8; stroke-linejoin: miter; stroke-linecap: square"/>
   </g>
   <g id="text_17">
    <!-- Loss -->
    <g transform="translate(222.999375 35.472) scale(0.12 -0.12)">
     <use xlink:href="#DejaVuSans-4c"/>
     <use xlink:href="#DejaVuSans-6f" x="53.962891"/>
     <use xlink:href="#DejaVuSans-73" x="115.144531"/>
     <use xlink:href="#DejaVuSans-73" x="167.244141"/>
    </g>
   </g>
   <g id="legend_1">
    <g id="patch_7">
     <path d="M 64.6 93.506375 
L 124.959375 93.506375 
Q 126.959375 93.506375 126.959375 91.506375 
L 126.959375 48.472 
Q 126.959375 46.472 124.959375 46.472 
L 64.6 46.472 
Q 62.6 46.472 62.6 48.472 
L 62.6 91.506375 
Q 62.6 93.506375 64.6 93.506375 
z
" style="fill: #ffffff; opacity: 0.8; stroke: #cccccc; stroke-linejoin: miter"/>
    </g>
    <g id="line2d_18">
     <path d="M 66.6 54.570438 
L 76.6 54.570438 
L 86.6 54.570438 
" style="fill: none; stroke: #008000; stroke-width: 1.5; stroke-linecap: square"/>
    </g>
    <g id="text_18">
     <!-- min -->
     <g transform="translate(94.6 58.070438) scale(0.1 -0.1)">
      <defs>
       <path id="DejaVuSans-6d" d="M 3328 2828 
Q 3544 3216 3844 3400 
Q 4144 3584 4550 3584 
Q 5097 3584 5394 3201 
Q 5691 2819 5691 2113 
L 5691 0 
L 5113 0 
L 5113 2094 
Q 5113 2597 4934 2840 
Q 4756 3084 4391 3084 
Q 3944 3084 3684 2787 
Q 3425 2491 3425 1978 
L 3425 0 
L 2847 0 
L 2847 2094 
Q 2847 2600 2669 2842 
Q 2491 3084 2119 3084 
Q 1678 3084 1418 2786 
Q 1159 2488 1159 1978 
L 1159 0 
L 581 0 
L 581 3500 
L 1159 3500 
L 1159 2956 
Q 1356 3278 1631 3431 
Q 1906 3584 2284 3584 
Q 2666 3584 2933 3390 
Q 3200 3197 3328 2828 
z
" transform="scale(0.015625)"/>
       <path id="DejaVuSans-6e" d="M 3513 2113 
L 3513 0 
L 2938 0 
L 2938 2094 
Q 2938 2591 2744 2837 
Q 2550 3084 2163 3084 
Q 1697 3084 1428 2787 
Q 1159 2491 1159 1978 
L 1159 0 
L 581 0 
L 581 3500 
L 1159 3500 
L 1159 2956 
Q 1366 3272 1645 3428 
Q 1925 3584 2291 3584 
Q 2894 3584 3203 3211 
Q 3513 2838 3513 2113 
z
" transform="scale(0.015625)"/>
      </defs>
      <use xlink:href="#DejaVuSans-6d"/>
      <use xlink:href="#DejaVuSans-69" x="97.412109"/>
      <use xlink:href="#DejaVuSans-6e" x="125.195312"/>
     </g>
    </g>
    <g id="line2d_19">
     <path d="M 66.6 69.248563 
L 76.6 69.248563 
L 86.6 69.248563 
" style="fill: none; stroke: #ff0000; stroke-width: 1.5; stroke-linecap: square"/>
    </g>
    <g id="text_19">
     <!-- max -->
     <g transform="translate(94.6 72.748563) scale(0.1 -0.1)">
      <defs>
       <path id="DejaVuSans-61" d="M 2194 1759 
Q 1497 1759 1228 1600 
Q 959 1441 959 1056 
Q 959 750 1161 570 
Q 1363 391 1709 391 
Q 2188 391 2477 730 
Q 2766 1069 2766 1631 
L 2766 1759 
L 2194 1759 
z
M 3341 1997 
L 3341 0 
L 2766 0 
L 2766 531 
Q 2569 213 2275 61 
Q 1981 -91 1556 -91 
Q 1019 -91 701 211 
Q 384 513 384 1019 
Q 384 1609 779 1909 
Q 1175 2209 1959 2209 
L 2766 2209 
L 2766 2266 
Q 2766 2663 2505 2880 
Q 2244 3097 1772 3097 
Q 1472 3097 1187 3025 
Q 903 2953 641 2809 
L 641 3341 
Q 956 3463 1253 3523 
Q 1550 3584 1831 3584 
Q 2591 3584 2966 3190 
Q 3341 2797 3341 1997 
z
" transform="scale(0.015625)"/>
       <path id="DejaVuSans-78" d="M 3513 3500 
L 2247 1797 
L 3578 0 
L 2900 0 
L 1881 1375 
L 863 0 
L 184 0 
L 1544 1831 
L 300 3500 
L 978 3500 
L 1906 2253 
L 2834 3500 
L 3513 3500 
z
" transform="scale(0.015625)"/>
      </defs>
      <use xlink:href="#DejaVuSans-6d"/>
      <use xlink:href="#DejaVuSans-61" x="97.412109"/>
      <use xlink:href="#DejaVuSans-78" x="158.691406"/>
     </g>
    </g>
    <g id="line2d_20">
     <path d="M 66.6 83.926688 
L 76.6 83.926688 
L 86.6 83.926688 
" style="fill: none; stroke: #0000ff; stroke-width: 1.5; stroke-linecap: square"/>
    </g>
    <g id="text_20">
     <!-- mean -->
     <g transform="translate(94.6 87.426688) scale(0.1 -0.1)">
      <use xlink:href="#DejaVuSans-6d"/>
      <use xlink:href="#DejaVuSans-65" x="97.412109"/>
      <use xlink:href="#DejaVuSans-61" x="158.935547"/>
      <use xlink:href="#DejaVuSans-6e" x="220.214844"/>
     </g>
    </g>
   </g>
  </g>
 </g>
 <defs>
  <clipPath id="p813c09329a">
   <rect x="57.6" y="41.472" width="357.12" height="266.112"/>
  </clipPath>
 </defs>
</svg>
