<?xml version="1.0" encoding="utf-8" standalone="no"?>
<!DOCTYPE svg PUBLIC "-//W3C//DTD SVG 1.1//EN"
  "http://www.w3.org/Graphics/SVG/1.1/DTD/svg11.dtd">
<svg xmlns:xlink="http://www.w3.org/1999/xlink" width="460.8pt" height="345.6pt" viewBox="0 0 460.8 345.6" xmlns="http://www.w3.org/2000/svg" version="1.1">
 <metadata>
  <rdf:RDF xmlns:dc="http://purl.org/dc/elements/1.1/" xmlns:cc="http://creativecommons.org/ns#" xmlns:rdf="http://www.w3.org/1999/02/22-rdf-syntax-ns#">
   <cc:Work>
    <dc:type rdf:resource="http://purl.org/dc/dcmitype/StillImage"/>
    <dc:date>2023-07-21T18:10:17.312021</dc:date>
    <dc:format>image/svg+xml</dc:format>
    <dc:creator>
     <cc:Agent>
      <dc:title>Matplotlib v3.7.2, https://matplotlib.org/</dc:title>
     </cc:Agent>
    </dc:creator>
   </cc:Work>
  </rdf:RDF>
 </metadata>
 <defs>
  <style type="text/css">*{stroke-linejoin: round; stroke-linecap: butt}</style>
 </defs>
 <g id="figure_1">
  <g id="patch_1">
   <path d="M 0 345.6 
L 460.8 345.6 
L 460.8 0 
L 0 0 
z
" style="fill: #ffffff"/>
  </g>
  <g id="axes_1">
   <g id="patch_2">
    <path d="M 57.6 307.584 
L 414.72 307.584 
L 414.72 41.472 
L 57.6 41.472 
z
" style="fill: #ffffff"/>
   </g>
   <g id="matplotlib.axis_1">
    <g id="xtick_1">
     <g id="line2d_1">
      <defs>
       <path id="mf47bba6247" d="M 0 0 
L 0 3.5 
" style="stroke: #000000; stroke-width: 0.8"/>
      </defs>
      <g>
       <use xlink:href="#mf47bba6247" x="73.832727" y="307.584" style="stroke: #000000; stroke-width: 0.8"/>
      </g>
     </g>
     <g id="text_1">
      <!-- 0 -->
      <g transform="translate(70.651477 322.182437) scale(0.1 -0.1)">
       <defs>
        <path id="DejaVuSans-30" d="M 2034 4250 
Q 1547 4250 1301 3770 
Q 1056 3291 1056 2328 
Q 1056 1369 1301 889 
Q 1547 409 2034 409 
Q 2525 409 2770 889 
Q 3016 1369 3016 2328 
Q 3016 3291 2770 3770 
Q 2525 4250 2034 4250 
z
M 2034 4750 
Q 2819 4750 3233 4129 
Q 3647 3509 3647 2328 
Q 3647 1150 3233 529 
Q 2819 -91 2034 -91 
Q 1250 -91 836 529 
Q 422 1150 422 2328 
Q 422 3509 836 4129 
Q 1250 4750 2034 4750 
z
" transform="scale(0.015625)"/>
       </defs>
       <use xlink:href="#DejaVuSans-30"/>
      </g>
     </g>
    </g>
    <g id="xtick_2">
     <g id="line2d_2">
      <g>
       <use xlink:href="#mf47bba6247" x="138.893758" y="307.584" style="stroke: #000000; stroke-width: 0.8"/>
      </g>
     </g>
     <g id="text_2">
      <!-- 100 -->
      <g transform="translate(129.350008 322.182437) scale(0.1 -0.1)">
       <defs>
        <path id="DejaVuSans-31" d="M 794 531 
L 1825 531 
L 1825 4091 
L 703 3866 
L 703 4441 
L 1819 4666 
L 2450 4666 
L 2450 531 
L 3481 531 
L 3481 0 
L 794 0 
L 794 531 
z
" transform="scale(0.015625)"/>
       </defs>
       <use xlink:href="#DejaVuSans-31"/>
       <use xlink:href="#DejaVuSans-30" x="63.623047"/>
       <use xlink:href="#DejaVuSans-30" x="127.246094"/>
      </g>
     </g>
    </g>
    <g id="xtick_3">
     <g id="line2d_3">
      <g>
       <use xlink:href="#mf47bba6247" x="203.95479" y="307.584" style="stroke: #000000; stroke-width: 0.8"/>
      </g>
     </g>
     <g id="text_3">
      <!-- 200 -->
      <g transform="translate(194.41104 322.182437) scale(0.1 -0.1)">
       <defs>
        <path id="DejaVuSans-32" d="M 1228 531 
L 3431 531 
L 3431 0 
L 469 0 
L 469 531 
Q 828 903 1448 1529 
Q 2069 2156 2228 2338 
Q 2531 2678 2651 2914 
Q 2772 3150 2772 3378 
Q 2772 3750 2511 3984 
Q 2250 4219 1831 4219 
Q 1534 4219 1204 4116 
Q 875 4013 500 3803 
L 500 4441 
Q 881 4594 1212 4672 
Q 1544 4750 1819 4750 
Q 2544 4750 2975 4387 
Q 3406 4025 3406 3419 
Q 3406 3131 3298 2873 
Q 3191 2616 2906 2266 
Q 2828 2175 2409 1742 
Q 1991 1309 1228 531 
z
" transform="scale(0.015625)"/>
       </defs>
       <use xlink:href="#DejaVuSans-32"/>
       <use xlink:href="#DejaVuSans-30" x="63.623047"/>
       <use xlink:href="#DejaVuSans-30" x="127.246094"/>
      </g>
     </g>
    </g>
    <g id="xtick_4">
     <g id="line2d_4">
      <g>
       <use xlink:href="#mf47bba6247" x="269.015821" y="307.584" style="stroke: #000000; stroke-width: 0.8"/>
      </g>
     </g>
     <g id="text_4">
      <!-- 300 -->
      <g transform="translate(259.472071 322.182437) scale(0.1 -0.1)">
       <defs>
        <path id="DejaVuSans-33" d="M 2597 2516 
Q 3050 2419 3304 2112 
Q 3559 1806 3559 1356 
Q 3559 666 3084 287 
Q 2609 -91 1734 -91 
Q 1441 -91 1130 -33 
Q 819 25 488 141 
L 488 750 
Q 750 597 1062 519 
Q 1375 441 1716 441 
Q 2309 441 2620 675 
Q 2931 909 2931 1356 
Q 2931 1769 2642 2001 
Q 2353 2234 1838 2234 
L 1294 2234 
L 1294 2753 
L 1863 2753 
Q 2328 2753 2575 2939 
Q 2822 3125 2822 3475 
Q 2822 3834 2567 4026 
Q 2313 4219 1838 4219 
Q 1578 4219 1281 4162 
Q 984 4106 628 3988 
L 628 4550 
Q 988 4650 1302 4700 
Q 1616 4750 1894 4750 
Q 2613 4750 3031 4423 
Q 3450 4097 3450 3541 
Q 3450 3153 3228 2886 
Q 3006 2619 2597 2516 
z
" transform="scale(0.015625)"/>
       </defs>
       <use xlink:href="#DejaVuSans-33"/>
       <use xlink:href="#DejaVuSans-30" x="63.623047"/>
       <use xlink:href="#DejaVuSans-30" x="127.246094"/>
      </g>
     </g>
    </g>
    <g id="xtick_5">
     <g id="line2d_5">
      <g>
       <use xlink:href="#mf47bba6247" x="334.076852" y="307.584" style="stroke: #000000; stroke-width: 0.8"/>
      </g>
     </g>
     <g id="text_5">
      <!-- 400 -->
      <g transform="translate(324.533102 322.182437) scale(0.1 -0.1)">
       <defs>
        <path id="DejaVuSans-34" d="M 2419 4116 
L 825 1625 
L 2419 1625 
L 2419 4116 
z
M 2253 4666 
L 3047 4666 
L 3047 1625 
L 3713 1625 
L 3713 1100 
L 3047 1100 
L 3047 0 
L 2419 0 
L 2419 1100 
L 313 1100 
L 313 1709 
L 2253 4666 
z
" transform="scale(0.015625)"/>
       </defs>
       <use xlink:href="#DejaVuSans-34"/>
       <use xlink:href="#DejaVuSans-30" x="63.623047"/>
       <use xlink:href="#DejaVuSans-30" x="127.246094"/>
      </g>
     </g>
    </g>
    <g id="xtick_6">
     <g id="line2d_6">
      <g>
       <use xlink:href="#mf47bba6247" x="399.137883" y="307.584" style="stroke: #000000; stroke-width: 0.8"/>
      </g>
     </g>
     <g id="text_6">
      <!-- 500 -->
      <g transform="translate(389.594133 322.182437) scale(0.1 -0.1)">
       <defs>
        <path id="DejaVuSans-35" d="M 691 4666 
L 3169 4666 
L 3169 4134 
L 1269 4134 
L 1269 2991 
Q 1406 3038 1543 3061 
Q 1681 3084 1819 3084 
Q 2600 3084 3056 2656 
Q 3513 2228 3513 1497 
Q 3513 744 3044 326 
Q 2575 -91 1722 -91 
Q 1428 -91 1123 -41 
Q 819 9 494 109 
L 494 744 
Q 775 591 1075 516 
Q 1375 441 1709 441 
Q 2250 441 2565 725 
Q 2881 1009 2881 1497 
Q 2881 1984 2565 2268 
Q 2250 2553 1709 2553 
Q 1456 2553 1204 2497 
Q 953 2441 691 2322 
L 691 4666 
z
" transform="scale(0.015625)"/>
       </defs>
       <use xlink:href="#DejaVuSans-35"/>
       <use xlink:href="#DejaVuSans-30" x="63.623047"/>
       <use xlink:href="#DejaVuSans-30" x="127.246094"/>
      </g>
     </g>
    </g>
    <g id="text_7">
     <!-- Episode -->
     <g transform="translate(216.5225 335.860562) scale(0.1 -0.1)">
      <defs>
       <path id="DejaVuSans-45" d="M 628 4666 
L 3578 4666 
L 3578 4134 
L 1259 4134 
L 1259 2753 
L 3481 2753 
L 3481 2222 
L 1259 2222 
L 1259 531 
L 3634 531 
L 3634 0 
L 628 0 
L 628 4666 
z
" transform="scale(0.015625)"/>
       <path id="DejaVuSans-70" d="M 1159 525 
L 1159 -1331 
L 581 -1331 
L 581 3500 
L 1159 3500 
L 1159 2969 
Q 1341 3281 1617 3432 
Q 1894 3584 2278 3584 
Q 2916 3584 3314 3078 
Q 3713 2572 3713 1747 
Q 3713 922 3314 415 
Q 2916 -91 2278 -91 
Q 1894 -91 1617 61 
Q 1341 213 1159 525 
z
M 3116 1747 
Q 3116 2381 2855 2742 
Q 2594 3103 2138 3103 
Q 1681 3103 1420 2742 
Q 1159 2381 1159 1747 
Q 1159 1113 1420 752 
Q 1681 391 2138 391 
Q 2594 391 2855 752 
Q 3116 1113 3116 1747 
z
" transform="scale(0.015625)"/>
       <path id="DejaVuSans-69" d="M 603 3500 
L 1178 3500 
L 1178 0 
L 603 0 
L 603 3500 
z
M 603 4863 
L 1178 4863 
L 1178 4134 
L 603 4134 
L 603 4863 
z
" transform="scale(0.015625)"/>
       <path id="DejaVuSans-73" d="M 2834 3397 
L 2834 2853 
Q 2591 2978 2328 3040 
Q 2066 3103 1784 3103 
Q 1356 3103 1142 2972 
Q 928 2841 928 2578 
Q 928 2378 1081 2264 
Q 1234 2150 1697 2047 
L 1894 2003 
Q 2506 1872 2764 1633 
Q 3022 1394 3022 966 
Q 3022 478 2636 193 
Q 2250 -91 1575 -91 
Q 1294 -91 989 -36 
Q 684 19 347 128 
L 347 722 
Q 666 556 975 473 
Q 1284 391 1588 391 
Q 1994 391 2212 530 
Q 2431 669 2431 922 
Q 2431 1156 2273 1281 
Q 2116 1406 1581 1522 
L 1381 1569 
Q 847 1681 609 1914 
Q 372 2147 372 2553 
Q 372 3047 722 3315 
Q 1072 3584 1716 3584 
Q 2034 3584 2315 3537 
Q 2597 3491 2834 3397 
z
" transform="scale(0.015625)"/>
       <path id="DejaVuSans-6f" d="M 1959 3097 
Q 1497 3097 1228 2736 
Q 959 2375 959 1747 
Q 959 1119 1226 758 
Q 1494 397 1959 397 
Q 2419 397 2687 759 
Q 2956 1122 2956 1747 
Q 2956 2369 2687 2733 
Q 2419 3097 1959 3097 
z
M 1959 3584 
Q 2709 3584 3137 3096 
Q 3566 2609 3566 1747 
Q 3566 888 3137 398 
Q 2709 -91 1959 -91 
Q 1206 -91 779 398 
Q 353 888 353 1747 
Q 353 2609 779 3096 
Q 1206 3584 1959 3584 
z
" transform="scale(0.015625)"/>
       <path id="DejaVuSans-64" d="M 2906 2969 
L 2906 4863 
L 3481 4863 
L 3481 0 
L 2906 0 
L 2906 525 
Q 2725 213 2448 61 
Q 2172 -91 1784 -91 
Q 1150 -91 751 415 
Q 353 922 353 1747 
Q 353 2572 751 3078 
Q 1150 3584 1784 3584 
Q 2172 3584 2448 3432 
Q 2725 3281 2906 2969 
z
M 947 1747 
Q 947 1113 1208 752 
Q 1469 391 1925 391 
Q 2381 391 2643 752 
Q 2906 1113 2906 1747 
Q 2906 2381 2643 2742 
Q 2381 3103 1925 3103 
Q 1469 3103 1208 2742 
Q 947 2381 947 1747 
z
" transform="scale(0.015625)"/>
       <path id="DejaVuSans-65" d="M 3597 1894 
L 3597 1613 
L 953 1613 
Q 991 1019 1311 708 
Q 1631 397 2203 397 
Q 2534 397 2845 478 
Q 3156 559 3463 722 
L 3463 178 
Q 3153 47 2828 -22 
Q 2503 -91 2169 -91 
Q 1331 -91 842 396 
Q 353 884 353 1716 
Q 353 2575 817 3079 
Q 1281 3584 2069 3584 
Q 2775 3584 3186 3129 
Q 3597 2675 3597 1894 
z
M 3022 2063 
Q 3016 2534 2758 2815 
Q 2500 3097 2075 3097 
Q 1594 3097 1305 2825 
Q 1016 2553 972 2059 
L 3022 2063 
z
" transform="scale(0.015625)"/>
      </defs>
      <use xlink:href="#DejaVuSans-45"/>
      <use xlink:href="#DejaVuSans-70" x="63.183594"/>
      <use xlink:href="#DejaVuSans-69" x="126.660156"/>
      <use xlink:href="#DejaVuSans-73" x="154.443359"/>
      <use xlink:href="#DejaVuSans-6f" x="206.542969"/>
      <use xlink:href="#DejaVuSans-64" x="267.724609"/>
      <use xlink:href="#DejaVuSans-65" x="331.201172"/>
     </g>
    </g>
   </g>
   <g id="matplotlib.axis_2">
    <g id="ytick_1">
     <g id="line2d_7">
      <defs>
       <path id="m98c9b0e3bc" d="M 0 0 
L -3.5 0 
" style="stroke: #000000; stroke-width: 0.8"/>
      </defs>
      <g>
       <use xlink:href="#m98c9b0e3bc" x="57.6" y="295.488" style="stroke: #000000; stroke-width: 0.8"/>
      </g>
     </g>
     <g id="text_8">
      <!-- 0.0 -->
      <g transform="translate(34.696875 299.287219) scale(0.1 -0.1)">
       <defs>
        <path id="DejaVuSans-2e" d="M 684 794 
L 1344 794 
L 1344 0 
L 684 0 
L 684 794 
z
" transform="scale(0.015625)"/>
       </defs>
       <use xlink:href="#DejaVuSans-30"/>
       <use xlink:href="#DejaVuSans-2e" x="63.623047"/>
       <use xlink:href="#DejaVuSans-30" x="95.410156"/>
      </g>
     </g>
    </g>
    <g id="ytick_2">
     <g id="line2d_8">
      <g>
       <use xlink:href="#m98c9b0e3bc" x="57.6" y="261.502484" style="stroke: #000000; stroke-width: 0.8"/>
      </g>
     </g>
     <g id="text_9">
      <!-- 2.5 -->
      <g transform="translate(34.696875 265.301703) scale(0.1 -0.1)">
       <use xlink:href="#DejaVuSans-32"/>
       <use xlink:href="#DejaVuSans-2e" x="63.623047"/>
       <use xlink:href="#DejaVuSans-35" x="95.410156"/>
      </g>
     </g>
    </g>
    <g id="ytick_3">
     <g id="line2d_9">
      <g>
       <use xlink:href="#m98c9b0e3bc" x="57.6" y="227.516968" style="stroke: #000000; stroke-width: 0.8"/>
      </g>
     </g>
     <g id="text_10">
      <!-- 5.0 -->
      <g transform="translate(34.696875 231.316187) scale(0.1 -0.1)">
       <use xlink:href="#DejaVuSans-35"/>
       <use xlink:href="#DejaVuSans-2e" x="63.623047"/>
       <use xlink:href="#DejaVuSans-30" x="95.410156"/>
      </g>
     </g>
    </g>
    <g id="ytick_4">
     <g id="line2d_10">
      <g>
       <use xlink:href="#m98c9b0e3bc" x="57.6" y="193.531453" style="stroke: #000000; stroke-width: 0.8"/>
      </g>
     </g>
     <g id="text_11">
      <!-- 7.5 -->
      <g transform="translate(34.696875 197.330671) scale(0.1 -0.1)">
       <defs>
        <path id="DejaVuSans-37" d="M 525 4666 
L 3525 4666 
L 3525 4397 
L 1831 0 
L 1172 0 
L 2766 4134 
L 525 4134 
L 525 4666 
z
" transform="scale(0.015625)"/>
       </defs>
       <use xlink:href="#DejaVuSans-37"/>
       <use xlink:href="#DejaVuSans-2e" x="63.623047"/>
       <use xlink:href="#DejaVuSans-35" x="95.410156"/>
      </g>
     </g>
    </g>
    <g id="ytick_5">
     <g id="line2d_11">
      <g>
       <use xlink:href="#m98c9b0e3bc" x="57.6" y="159.545937" style="stroke: #000000; stroke-width: 0.8"/>
      </g>
     </g>
     <g id="text_12">
      <!-- 10.0 -->
      <g transform="translate(28.334375 163.345156) scale(0.1 -0.1)">
       <use xlink:href="#DejaVuSans-31"/>
       <use xlink:href="#DejaVuSans-30" x="63.623047"/>
       <use xlink:href="#DejaVuSans-2e" x="127.246094"/>
       <use xlink:href="#DejaVuSans-30" x="159.033203"/>
      </g>
     </g>
    </g>
    <g id="ytick_6">
     <g id="line2d_12">
      <g>
       <use xlink:href="#m98c9b0e3bc" x="57.6" y="125.560421" style="stroke: #000000; stroke-width: 0.8"/>
      </g>
     </g>
     <g id="text_13">
      <!-- 12.5 -->
      <g transform="translate(28.334375 129.35964) scale(0.1 -0.1)">
       <use xlink:href="#DejaVuSans-31"/>
       <use xlink:href="#DejaVuSans-32" x="63.623047"/>
       <use xlink:href="#DejaVuSans-2e" x="127.246094"/>
       <use xlink:href="#DejaVuSans-35" x="159.033203"/>
      </g>
     </g>
    </g>
    <g id="ytick_7">
     <g id="line2d_13">
      <g>
       <use xlink:href="#m98c9b0e3bc" x="57.6" y="91.574905" style="stroke: #000000; stroke-width: 0.8"/>
      </g>
     </g>
     <g id="text_14">
      <!-- 15.0 -->
      <g transform="translate(28.334375 95.374124) scale(0.1 -0.1)">
       <use xlink:href="#DejaVuSans-31"/>
       <use xlink:href="#DejaVuSans-35" x="63.623047"/>
       <use xlink:href="#DejaVuSans-2e" x="127.246094"/>
       <use xlink:href="#DejaVuSans-30" x="159.033203"/>
      </g>
     </g>
    </g>
    <g id="ytick_8">
     <g id="line2d_14">
      <g>
       <use xlink:href="#m98c9b0e3bc" x="57.6" y="57.589389" style="stroke: #000000; stroke-width: 0.8"/>
      </g>
     </g>
     <g id="text_15">
      <!-- 17.5 -->
      <g transform="translate(28.334375 61.388608) scale(0.1 -0.1)">
       <use xlink:href="#DejaVuSans-31"/>
       <use xlink:href="#DejaVuSans-37" x="63.623047"/>
       <use xlink:href="#DejaVuSans-2e" x="127.246094"/>
       <use xlink:href="#DejaVuSans-35" x="159.033203"/>
      </g>
     </g>
    </g>
    <g id="text_16">
     <!-- Loss -->
     <g transform="translate(22.254688 185.495187) rotate(-90) scale(0.1 -0.1)">
      <defs>
       <path id="DejaVuSans-4c" d="M 628 4666 
L 1259 4666 
L 1259 531 
L 3531 531 
L 3531 0 
L 628 0 
L 628 4666 
z
" transform="scale(0.015625)"/>
      </defs>
      <use xlink:href="#DejaVuSans-4c"/>
      <use xlink:href="#DejaVuSans-6f" x="53.962891"/>
      <use xlink:href="#DejaVuSans-73" x="115.144531"/>
      <use xlink:href="#DejaVuSans-73" x="167.244141"/>
     </g>
    </g>
   </g>
   <g id="line2d_15">
    <path d="M 73.832727 295.488 
L 80.33883 295.488 
L 80.989441 295.375959 
L 82.290661 295.470508 
L 121.97789 295.487949 
L 398.487273 295.488 
L 398.487273 295.488 
" clip-path="url(#p839513c427)" style="fill: none; stroke: #008000; stroke-width: 1.5; stroke-linecap: square"/>
   </g>
   <g id="line2d_16">
    <path d="M 73.832727 295.488 
L 79.68822 295.488 
L 80.33883 288.693955 
L 80.989441 294.077947 
L 81.640051 295.106862 
L 82.290661 295.414999 
L 90.097985 295.481788 
L 149.303523 295.483746 
L 149.954134 295.269619 
L 150.604744 239.500453 
L 151.255354 239.604875 
L 153.857796 239.35341 
L 154.508406 239.05902 
L 155.159016 239.223318 
L 155.809627 238.806803 
L 156.460237 238.833646 
L 157.110847 239.028916 
L 160.363899 238.512141 
L 161.014509 181.944933 
L 161.665119 238.586245 
L 163.61695 238.364119 
L 165.568781 238.209233 
L 168.821833 237.905774 
L 172.074884 237.560874 
L 173.376105 237.470596 
L 174.026715 295.470919 
L 192.894414 295.408801 
L 199.400517 295.450398 
L 209.159672 295.487201 
L 270.317041 295.478723 
L 270.967652 233.509757 
L 280.726806 233.404972 
L 286.582299 233.382907 
L 287.232909 171.343206 
L 287.88352 171.342882 
L 288.53413 233.389233 
L 291.787182 233.428969 
L 292.437792 171.386041 
L 294.389623 171.427501 
L 295.040233 233.457297 
L 295.690844 233.471221 
L 296.341454 171.626129 
L 297.642674 171.603805 
L 298.293285 171.791335 
L 298.943895 109.909937 
L 299.594505 171.575672 
L 300.245116 171.736275 
L 300.895726 110.243421 
L 301.546336 171.678272 
L 303.498167 172.153186 
L 304.799388 171.859282 
L 305.449998 171.808111 
L 306.100608 110.612714 
L 306.751219 171.73739 
L 308.70305 172.339394 
L 309.35366 171.978542 
L 311.956101 172.604465 
L 312.606712 172.307009 
L 313.257322 172.490508 
L 313.907932 172.523736 
L 314.558543 111.934348 
L 315.209153 172.653691 
L 315.859763 172.958952 
L 316.510373 172.339368 
L 317.160984 172.358763 
L 317.811594 172.557806 
L 318.462204 112.485052 
L 319.112815 172.827363 
L 319.763425 172.883356 
L 320.414035 173.238012 
L 321.715256 172.311534 
L 322.365866 172.82582 
L 323.016477 112.725672 
L 323.667087 112.56066 
L 324.968308 112.552013 
L 325.618918 113.062955 
L 326.269528 173.09386 
L 326.920138 112.570293 
L 327.570749 172.978217 
L 328.221359 113.019135 
L 328.871969 112.237535 
L 329.52258 112.989835 
L 330.17319 173.345941 
L 330.8238 173.351412 
L 331.474411 113.006197 
L 332.125021 173.344035 
L 332.775631 113.698783 
L 333.426242 172.924856 
L 334.076852 113.077579 
L 334.727462 113.16059 
L 335.378073 113.035613 
L 336.028683 53.568 
L 336.679293 112.814582 
L 337.329903 114.468327 
L 337.980514 173.921575 
L 338.631124 174.365555 
L 339.281734 114.309966 
L 339.932345 113.320273 
L 340.582955 114.34965 
L 341.233565 54.347915 
L 341.884176 173.673397 
L 342.534786 56.970156 
L 343.836007 174.376031 
L 344.486617 174.518951 
L 345.137227 173.947024 
L 345.787837 113.594834 
L 346.438448 115.181553 
L 347.089058 174.273689 
L 347.739668 114.434775 
L 348.390279 175.733966 
L 349.040889 174.495239 
L 349.691499 115.735614 
L 350.34211 174.290984 
L 350.99272 117.719499 
L 351.64333 174.453779 
L 352.293941 59.3678 
L 352.944551 174.789584 
L 354.245772 174.650605 
L 354.896382 114.909209 
L 355.546992 174.264472 
L 356.197602 174.553929 
L 356.848213 174.599642 
L 357.498823 174.90992 
L 358.149433 119.376886 
L 358.800044 114.613373 
L 359.450654 175.303391 
L 360.101264 175.454686 
L 360.751875 62.735548 
L 361.402485 175.32237 
L 362.053095 117.812454 
L 362.703706 121.636408 
L 363.354316 120.861017 
L 364.004926 62.15749 
L 365.306147 176.596581 
L 365.956757 124.682936 
L 366.607367 118.315059 
L 367.257978 122.643784 
L 367.908588 120.630133 
L 368.559198 119.693867 
L 369.209809 122.752568 
L 369.860419 123.690248 
L 370.511029 176.709579 
L 371.16164 123.725459 
L 371.81225 121.636939 
L 372.46286 120.76346 
L 373.113471 65.581348 
L 373.764081 177.204847 
L 374.414691 177.568772 
L 375.065302 63.684468 
L 375.715912 177.652976 
L 376.366522 127.875715 
L 377.017132 179.842139 
L 377.667743 131.531883 
L 378.318353 123.035103 
L 378.968963 128.802829 
L 379.619574 69.30497 
L 380.270184 133.577764 
L 380.920794 134.084311 
L 381.571405 130.730046 
L 382.222015 72.399531 
L 382.872625 131.498643 
L 383.523236 127.426601 
L 384.173846 122.596671 
L 384.824456 134.521096 
L 385.475066 130.304293 
L 386.125677 180.652365 
L 386.776287 78.955288 
L 388.077508 181.282113 
L 388.728118 125.423568 
L 389.378728 127.623298 
L 390.029339 130.384154 
L 390.679949 136.769818 
L 391.330559 85.70336 
L 391.98117 129.976759 
L 392.63178 137.754532 
L 393.28239 126.464224 
L 393.933001 87.639755 
L 394.583611 83.68193 
L 395.884831 184.243478 
L 396.535442 90.908209 
L 397.186052 141.513508 
L 397.836662 141.214872 
L 398.487273 189.751079 
L 398.487273 189.751079 
" clip-path="url(#p839513c427)" style="fill: none; stroke: #ff0000; stroke-width: 1.5; stroke-linecap: square"/>
   </g>
   <g id="line2d_17">
    <path d="M 73.832727 295.488 
L 79.68822 295.488 
L 80.33883 292.754172 
L 80.989441 294.965994 
L 81.640051 295.364522 
L 82.941272 295.455818 
L 95.953478 295.486883 
L 149.954134 295.483666 
L 151.255354 294.916971 
L 151.905965 293.79914 
L 152.556575 294.350831 
L 153.207185 293.791136 
L 153.857796 294.053692 
L 154.508406 294.613632 
L 155.159016 293.213176 
L 155.809627 294.619635 
L 156.460237 294.318927 
L 157.110847 292.928753 
L 158.412068 294.042287 
L 159.062678 294.88844 
L 159.713288 292.923449 
L 160.363899 292.344314 
L 161.014509 290.923211 
L 161.665119 292.621815 
L 162.31573 293.470247 
L 162.96634 293.193353 
L 163.61695 292.62262 
L 164.267561 292.902346 
L 164.918171 294.331277 
L 165.568781 294.048446 
L 166.219392 293.473785 
L 166.870002 293.186189 
L 167.520612 294.045781 
L 168.171222 293.758736 
L 168.821833 294.332809 
L 169.472443 293.466677 
L 170.123053 294.329641 
L 170.773664 294.907742 
L 172.074884 293.748443 
L 172.725495 294.036598 
L 173.376105 294.615588 
L 174.026715 295.486345 
L 270.317041 295.486488 
L 270.967652 295.176067 
L 271.618262 294.244594 
L 272.268872 294.865699 
L 273.570093 294.865584 
L 274.220703 295.175832 
L 274.871314 294.864268 
L 275.521924 295.175682 
L 276.172534 294.865088 
L 276.823144 294.865006 
L 277.473755 294.244188 
L 278.124365 294.55335 
L 278.774975 293.622724 
L 280.076196 292.380614 
L 280.726806 292.381393 
L 282.028027 293.001526 
L 283.329248 291.75943 
L 283.979858 292.379521 
L 284.630468 292.689761 
L 285.281079 293.622598 
L 285.931689 293.312015 
L 286.582299 293.311146 
L 287.232909 291.756351 
L 287.88352 290.827253 
L 288.53413 290.827055 
L 289.18474 291.758173 
L 289.835351 291.448971 
L 290.485961 290.824961 
L 291.136571 291.449237 
L 291.787182 291.447987 
L 292.437792 290.207551 
L 293.088402 291.141451 
L 293.739013 286.795065 
L 294.389623 289.592649 
L 295.040233 288.662938 
L 295.690844 285.879664 
L 296.341454 286.502194 
L 296.992064 285.269057 
L 297.642674 282.485801 
L 298.293285 287.746837 
L 298.943895 281.872331 
L 299.594505 280.011066 
L 300.245116 284.034236 
L 300.895726 280.951345 
L 302.196947 282.192657 
L 302.847557 286.525719 
L 303.498167 288.069221 
L 304.148778 280.35369 
L 304.799388 278.511584 
L 305.449998 280.364242 
L 306.100608 278.833823 
L 307.401829 281.298111 
L 308.052439 281.017553 
L 308.70305 285.33085 
L 309.35366 284.712617 
L 310.00427 281.637365 
L 310.654881 277.350217 
L 311.305491 283.80253 
L 311.956101 282.569991 
L 312.606712 280.74018 
L 313.257322 279.823218 
L 313.907932 281.979397 
L 314.558543 278.914115 
L 315.209153 282.305811 
L 315.859763 288.433337 
L 316.510373 285.065296 
L 317.160984 284.142208 
L 317.811594 282.619185 
L 318.462204 278.943284 
L 319.112815 279.249014 
L 319.763425 281.417605 
L 320.414035 282.039155 
L 321.064646 285.080909 
L 321.715256 282.034518 
L 322.365866 282.961968 
L 323.016477 282.968532 
L 323.667087 279.901662 
L 324.317697 278.077651 
L 324.968308 279.940309 
L 325.618918 281.46058 
L 326.269528 283.91001 
L 326.920138 279.644718 
L 327.570749 281.767648 
L 328.221359 282.084279 
L 328.871969 275.103111 
L 329.52258 276.634864 
L 330.17319 276.046945 
L 330.8238 279.710004 
L 331.474411 277.85726 
L 332.125021 283.942665 
L 332.775631 277.553965 
L 333.426242 268.797973 
L 334.076852 277.620972 
L 334.727462 279.111559 
L 335.378073 268.213701 
L 336.028683 269.800705 
L 336.679293 284.874513 
L 337.329903 278.252118 
L 337.980514 274.030968 
L 338.631124 281.311671 
L 339.281734 267.735378 
L 339.932345 261.127996 
L 340.582955 268.994465 
L 341.233565 281.057762 
L 341.884176 268.393502 
L 342.534786 266.072448 
L 343.836007 282.87591 
L 345.137227 274.502353 
L 345.787837 272.118686 
L 346.438448 285.602185 
L 347.089058 282.606361 
L 347.739668 271.287704 
L 348.390279 274.359837 
L 349.040889 279.116621 
L 349.691499 267.437335 
L 350.34211 275.830242 
L 350.99272 280.902646 
L 351.64333 283.305973 
L 352.293941 281.488402 
L 352.944551 281.544899 
L 353.595161 281.790099 
L 354.245772 282.392996 
L 354.896382 280.597292 
L 355.546992 282.083952 
L 356.197602 272.257291 
L 356.848213 274.982151 
L 357.498823 283.333943 
L 358.149433 283.385911 
L 358.800044 269.400499 
L 359.450654 283.055154 
L 360.101264 268.064017 
L 360.751875 275.101948 
L 361.402485 269.85026 
L 362.053095 274.876888 
L 362.703706 270.895632 
L 363.354316 270.315824 
L 364.004926 274.064032 
L 364.655537 278.491379 
L 365.306147 275.266256 
L 365.956757 270.419185 
L 367.257978 281.827599 
L 367.908588 277.53026 
L 368.559198 283.844843 
L 369.209809 274.564978 
L 369.860419 269.188529 
L 370.511029 284.721827 
L 371.16164 282.530449 
L 371.81225 263.700791 
L 372.46286 282.687044 
L 373.113471 267.815482 
L 373.764081 281.944463 
L 374.414691 282.495243 
L 375.065302 269.699657 
L 375.715912 277.711128 
L 376.366522 274.942686 
L 377.017132 279.25753 
L 377.667743 276.40525 
L 378.318353 271.839064 
L 378.968963 276.688011 
L 379.619574 276.492316 
L 380.270184 280.908217 
L 380.920794 270.239837 
L 381.571405 280.603611 
L 382.222015 281.552777 
L 382.872625 278.699233 
L 383.523236 282.901497 
L 384.173846 273.920593 
L 384.824456 284.676796 
L 385.475066 276.003952 
L 386.125677 283.029897 
L 386.776287 282.378923 
L 387.426897 282.232695 
L 388.077508 274.419968 
L 388.728118 282.297139 
L 389.378728 271.840323 
L 390.029339 278.155582 
L 390.679949 277.809677 
L 391.330559 281.555234 
L 391.98117 283.15497 
L 392.63178 278.199614 
L 393.28239 271.574108 
L 393.933001 282.407341 
L 394.583611 272.514513 
L 395.234221 284.9836 
L 395.884831 274.394943 
L 396.535442 274.062233 
L 397.186052 272.498238 
L 397.836662 277.022873 
L 398.487273 283.766157 
L 398.487273 283.766157 
" clip-path="url(#p839513c427)" style="fill: none; stroke: #0000ff; stroke-width: 1.5; stroke-linecap: square"/>
   </g>
   <g id="patch_3">
    <path d="M 57.6 307.584 
L 57.6 41.472 
" style="fill: none; stroke: #000000; stroke-width: 0.8; stroke-linejoin: miter; stroke-linecap: square"/>
   </g>
   <g id="patch_4">
    <path d="M 414.72 307.584 
L 414.72 41.472 
" style="fill: none; stroke: #000000; stroke-width: 0.8; stroke-linejoin: miter; stroke-linecap: square"/>
   </g>
   <g id="patch_5">
    <path d="M 57.6 307.584 
L 414.72 307.584 
" style="fill: none; stroke: #000000; stroke-width: 0.8; stroke-linejoin: miter; stroke-linecap: square"/>
   </g>
   <g id="patch_6">
    <path d="M 57.6 41.472 
L 414.72 41.472 
" style="fill: none; stroke: #000000; stroke-width: 0.8; stroke-linejoin: miter; stroke-linecap: square"/>
   </g>
   <g id="text_17">
    <!-- Loss -->
    <g transform="translate(222.999375 35.472) scale(0.12 -0.12)">
     <use xlink:href="#DejaVuSans-4c"/>
     <use xlink:href="#DejaVuSans-6f" x="53.962891"/>
     <use xlink:href="#DejaVuSans-73" x="115.144531"/>
     <use xlink:href="#DejaVuSans-73" x="167.244141"/>
    </g>
   </g>
   <g id="legend_1">
    <g id="patch_7">
     <path d="M 64.6 93.506375 
L 124.959375 93.506375 
Q 126.959375 93.506375 126.959375 91.506375 
L 126.959375 48.472 
Q 126.959375 46.472 124.959375 46.472 
L 64.6 46.472 
Q 62.6 46.472 62.6 48.472 
L 62.6 91.506375 
Q 62.6 93.506375 64.6 93.506375 
z
" style="fill: #ffffff; opacity: 0.8; stroke: #cccccc; stroke-linejoin: miter"/>
    </g>
    <g id="line2d_18">
     <path d="M 66.6 54.570438 
L 76.6 54.570438 
L 86.6 54.570438 
" style="fill: none; stroke: #008000; stroke-width: 1.5; stroke-linecap: square"/>
    </g>
    <g id="text_18">
     <!-- min -->
     <g transform="translate(94.6 58.070438) scale(0.1 -0.1)">
      <defs>
       <path id="DejaVuSans-6d" d="M 3328 2828 
Q 3544 3216 3844 3400 
Q 4144 3584 4550 3584 
Q 5097 3584 5394 3201 
Q 5691 2819 5691 2113 
L 5691 0 
L 5113 0 
L 5113 2094 
Q 5113 2597 4934 2840 
Q 4756 3084 4391 3084 
Q 3944 3084 3684 2787 
Q 3425 2491 3425 1978 
L 3425 0 
L 2847 0 
L 2847 2094 
Q 2847 2600 2669 2842 
Q 2491 3084 2119 3084 
Q 1678 3084 1418 2786 
Q 1159 2488 1159 1978 
L 1159 0 
L 581 0 
L 581 3500 
L 1159 3500 
L 1159 2956 
Q 1356 3278 1631 3431 
Q 1906 3584 2284 3584 
Q 2666 3584 2933 3390 
Q 3200 3197 3328 2828 
z
" transform="scale(0.015625)"/>
       <path id="DejaVuSans-6e" d="M 3513 2113 
L 3513 0 
L 2938 0 
L 2938 2094 
Q 2938 2591 2744 2837 
Q 2550 3084 2163 3084 
Q 1697 3084 1428 2787 
Q 1159 2491 1159 1978 
L 1159 0 
L 581 0 
L 581 3500 
L 1159 3500 
L 1159 2956 
Q 1366 3272 1645 3428 
Q 1925 3584 2291 3584 
Q 2894 3584 3203 3211 
Q 3513 2838 3513 2113 
z
" transform="scale(0.015625)"/>
      </defs>
      <use xlink:href="#DejaVuSans-6d"/>
      <use xlink:href="#DejaVuSans-69" x="97.412109"/>
      <use xlink:href="#DejaVuSans-6e" x="125.195312"/>
     </g>
    </g>
    <g id="line2d_19">
     <path d="M 66.6 69.248563 
L 76.6 69.248563 
L 86.6 69.248563 
" style="fill: none; stroke: #ff0000; stroke-width: 1.5; stroke-linecap: square"/>
    </g>
    <g id="text_19">
     <!-- max -->
     <g transform="translate(94.6 72.748563) scale(0.1 -0.1)">
      <defs>
       <path id="DejaVuSans-61" d="M 2194 1759 
Q 1497 1759 1228 1600 
Q 959 1441 959 1056 
Q 959 750 1161 570 
Q 1363 391 1709 391 
Q 2188 391 2477 730 
Q 2766 1069 2766 1631 
L 2766 1759 
L 2194 1759 
z
M 3341 1997 
L 3341 0 
L 2766 0 
L 2766 531 
Q 2569 213 2275 61 
Q 1981 -91 1556 -91 
Q 1019 -91 701 211 
Q 384 513 384 1019 
Q 384 1609 779 1909 
Q 1175 2209 1959 2209 
L 2766 2209 
L 2766 2266 
Q 2766 2663 2505 2880 
Q 2244 3097 1772 3097 
Q 1472 3097 1187 3025 
Q 903 2953 641 2809 
L 641 3341 
Q 956 3463 1253 3523 
Q 1550 3584 1831 3584 
Q 2591 3584 2966 3190 
Q 3341 2797 3341 1997 
z
" transform="scale(0.015625)"/>
       <path id="DejaVuSans-78" d="M 3513 3500 
L 2247 1797 
L 3578 0 
L 2900 0 
L 1881 1375 
L 863 0 
L 184 0 
L 1544 1831 
L 300 3500 
L 978 3500 
L 1906 2253 
L 2834 3500 
L 3513 3500 
z
" transform="scale(0.015625)"/>
      </defs>
      <use xlink:href="#DejaVuSans-6d"/>
      <use xlink:href="#DejaVuSans-61" x="97.412109"/>
      <use xlink:href="#DejaVuSans-78" x="158.691406"/>
     </g>
    </g>
    <g id="line2d_20">
     <path d="M 66.6 83.926688 
L 76.6 83.926688 
L 86.6 83.926688 
" style="fill: none; stroke: #0000ff; stroke-width: 1.5; stroke-linecap: square"/>
    </g>
    <g id="text_20">
     <!-- mean -->
     <g transform="translate(94.6 87.426688) scale(0.1 -0.1)">
      <use xlink:href="#DejaVuSans-6d"/>
      <use xlink:href="#DejaVuSans-65" x="97.412109"/>
      <use xlink:href="#DejaVuSans-61" x="158.935547"/>
      <use xlink:href="#DejaVuSans-6e" x="220.214844"/>
     </g>
    </g>
   </g>
  </g>
 </g>
 <defs>
  <clipPath id="p839513c427">
   <rect x="57.6" y="41.472" width="357.12" height="266.112"/>
  </clipPath>
 </defs>
</svg>
