<?xml version="1.0" encoding="utf-8" standalone="no"?>
<!DOCTYPE svg PUBLIC "-//W3C//DTD SVG 1.1//EN"
  "http://www.w3.org/Graphics/SVG/1.1/DTD/svg11.dtd">
<svg xmlns:xlink="http://www.w3.org/1999/xlink" width="460.8pt" height="345.6pt" viewBox="0 0 460.8 345.6" xmlns="http://www.w3.org/2000/svg" version="1.1">
 <metadata>
  <rdf:RDF xmlns:dc="http://purl.org/dc/elements/1.1/" xmlns:cc="http://creativecommons.org/ns#" xmlns:rdf="http://www.w3.org/1999/02/22-rdf-syntax-ns#">
   <cc:Work>
    <dc:type rdf:resource="http://purl.org/dc/dcmitype/StillImage"/>
    <dc:date>2023-07-21T18:10:16.531388</dc:date>
    <dc:format>image/svg+xml</dc:format>
    <dc:creator>
     <cc:Agent>
      <dc:title>Matplotlib v3.7.2, https://matplotlib.org/</dc:title>
     </cc:Agent>
    </dc:creator>
   </cc:Work>
  </rdf:RDF>
 </metadata>
 <defs>
  <style type="text/css">*{stroke-linejoin: round; stroke-linecap: butt}</style>
 </defs>
 <g id="figure_1">
  <g id="patch_1">
   <path d="M 0 345.6 
L 460.8 345.6 
L 460.8 0 
L 0 0 
z
" style="fill: #ffffff"/>
  </g>
  <g id="axes_1">
   <g id="patch_2">
    <path d="M 57.6 307.584 
L 414.72 307.584 
L 414.72 41.472 
L 57.6 41.472 
z
" style="fill: #ffffff"/>
   </g>
   <g id="matplotlib.axis_1">
    <g id="xtick_1">
     <g id="line2d_1">
      <defs>
       <path id="m43f4ac3a13" d="M 0 0 
L 0 3.5 
" style="stroke: #000000; stroke-width: 0.8"/>
      </defs>
      <g>
       <use xlink:href="#m43f4ac3a13" x="73.832727" y="307.584" style="stroke: #000000; stroke-width: 0.8"/>
      </g>
     </g>
     <g id="text_1">
      <!-- 0 -->
      <g transform="translate(70.651477 322.182437) scale(0.1 -0.1)">
       <defs>
        <path id="DejaVuSans-30" d="M 2034 4250 
Q 1547 4250 1301 3770 
Q 1056 3291 1056 2328 
Q 1056 1369 1301 889 
Q 1547 409 2034 409 
Q 2525 409 2770 889 
Q 3016 1369 3016 2328 
Q 3016 3291 2770 3770 
Q 2525 4250 2034 4250 
z
M 2034 4750 
Q 2819 4750 3233 4129 
Q 3647 3509 3647 2328 
Q 3647 1150 3233 529 
Q 2819 -91 2034 -91 
Q 1250 -91 836 529 
Q 422 1150 422 2328 
Q 422 3509 836 4129 
Q 1250 4750 2034 4750 
z
" transform="scale(0.015625)"/>
       </defs>
       <use xlink:href="#DejaVuSans-30"/>
      </g>
     </g>
    </g>
    <g id="xtick_2">
     <g id="line2d_2">
      <g>
       <use xlink:href="#m43f4ac3a13" x="106.363243" y="307.584" style="stroke: #000000; stroke-width: 0.8"/>
      </g>
     </g>
     <g id="text_2">
      <!-- 50 -->
      <g transform="translate(100.000743 322.182437) scale(0.1 -0.1)">
       <defs>
        <path id="DejaVuSans-35" d="M 691 4666 
L 3169 4666 
L 3169 4134 
L 1269 4134 
L 1269 2991 
Q 1406 3038 1543 3061 
Q 1681 3084 1819 3084 
Q 2600 3084 3056 2656 
Q 3513 2228 3513 1497 
Q 3513 744 3044 326 
Q 2575 -91 1722 -91 
Q 1428 -91 1123 -41 
Q 819 9 494 109 
L 494 744 
Q 775 591 1075 516 
Q 1375 441 1709 441 
Q 2250 441 2565 725 
Q 2881 1009 2881 1497 
Q 2881 1984 2565 2268 
Q 2250 2553 1709 2553 
Q 1456 2553 1204 2497 
Q 953 2441 691 2322 
L 691 4666 
z
" transform="scale(0.015625)"/>
       </defs>
       <use xlink:href="#DejaVuSans-35"/>
       <use xlink:href="#DejaVuSans-30" x="63.623047"/>
      </g>
     </g>
    </g>
    <g id="xtick_3">
     <g id="line2d_3">
      <g>
       <use xlink:href="#m43f4ac3a13" x="138.893758" y="307.584" style="stroke: #000000; stroke-width: 0.8"/>
      </g>
     </g>
     <g id="text_3">
      <!-- 100 -->
      <g transform="translate(129.350008 322.182437) scale(0.1 -0.1)">
       <defs>
        <path id="DejaVuSans-31" d="M 794 531 
L 1825 531 
L 1825 4091 
L 703 3866 
L 703 4441 
L 1819 4666 
L 2450 4666 
L 2450 531 
L 3481 531 
L 3481 0 
L 794 0 
L 794 531 
z
" transform="scale(0.015625)"/>
       </defs>
       <use xlink:href="#DejaVuSans-31"/>
       <use xlink:href="#DejaVuSans-30" x="63.623047"/>
       <use xlink:href="#DejaVuSans-30" x="127.246094"/>
      </g>
     </g>
    </g>
    <g id="xtick_4">
     <g id="line2d_4">
      <g>
       <use xlink:href="#m43f4ac3a13" x="171.424274" y="307.584" style="stroke: #000000; stroke-width: 0.8"/>
      </g>
     </g>
     <g id="text_4">
      <!-- 150 -->
      <g transform="translate(161.880524 322.182437) scale(0.1 -0.1)">
       <use xlink:href="#DejaVuSans-31"/>
       <use xlink:href="#DejaVuSans-35" x="63.623047"/>
       <use xlink:href="#DejaVuSans-30" x="127.246094"/>
      </g>
     </g>
    </g>
    <g id="xtick_5">
     <g id="line2d_5">
      <g>
       <use xlink:href="#m43f4ac3a13" x="203.95479" y="307.584" style="stroke: #000000; stroke-width: 0.8"/>
      </g>
     </g>
     <g id="text_5">
      <!-- 200 -->
      <g transform="translate(194.41104 322.182437) scale(0.1 -0.1)">
       <defs>
        <path id="DejaVuSans-32" d="M 1228 531 
L 3431 531 
L 3431 0 
L 469 0 
L 469 531 
Q 828 903 1448 1529 
Q 2069 2156 2228 2338 
Q 2531 2678 2651 2914 
Q 2772 3150 2772 3378 
Q 2772 3750 2511 3984 
Q 2250 4219 1831 4219 
Q 1534 4219 1204 4116 
Q 875 4013 500 3803 
L 500 4441 
Q 881 4594 1212 4672 
Q 1544 4750 1819 4750 
Q 2544 4750 2975 4387 
Q 3406 4025 3406 3419 
Q 3406 3131 3298 2873 
Q 3191 2616 2906 2266 
Q 2828 2175 2409 1742 
Q 1991 1309 1228 531 
z
" transform="scale(0.015625)"/>
       </defs>
       <use xlink:href="#DejaVuSans-32"/>
       <use xlink:href="#DejaVuSans-30" x="63.623047"/>
       <use xlink:href="#DejaVuSans-30" x="127.246094"/>
      </g>
     </g>
    </g>
    <g id="xtick_6">
     <g id="line2d_6">
      <g>
       <use xlink:href="#m43f4ac3a13" x="236.485305" y="307.584" style="stroke: #000000; stroke-width: 0.8"/>
      </g>
     </g>
     <g id="text_6">
      <!-- 250 -->
      <g transform="translate(226.941555 322.182437) scale(0.1 -0.1)">
       <use xlink:href="#DejaVuSans-32"/>
       <use xlink:href="#DejaVuSans-35" x="63.623047"/>
       <use xlink:href="#DejaVuSans-30" x="127.246094"/>
      </g>
     </g>
    </g>
    <g id="xtick_7">
     <g id="line2d_7">
      <g>
       <use xlink:href="#m43f4ac3a13" x="269.015821" y="307.584" style="stroke: #000000; stroke-width: 0.8"/>
      </g>
     </g>
     <g id="text_7">
      <!-- 300 -->
      <g transform="translate(259.472071 322.182437) scale(0.1 -0.1)">
       <defs>
        <path id="DejaVuSans-33" d="M 2597 2516 
Q 3050 2419 3304 2112 
Q 3559 1806 3559 1356 
Q 3559 666 3084 287 
Q 2609 -91 1734 -91 
Q 1441 -91 1130 -33 
Q 819 25 488 141 
L 488 750 
Q 750 597 1062 519 
Q 1375 441 1716 441 
Q 2309 441 2620 675 
Q 2931 909 2931 1356 
Q 2931 1769 2642 2001 
Q 2353 2234 1838 2234 
L 1294 2234 
L 1294 2753 
L 1863 2753 
Q 2328 2753 2575 2939 
Q 2822 3125 2822 3475 
Q 2822 3834 2567 4026 
Q 2313 4219 1838 4219 
Q 1578 4219 1281 4162 
Q 984 4106 628 3988 
L 628 4550 
Q 988 4650 1302 4700 
Q 1616 4750 1894 4750 
Q 2613 4750 3031 4423 
Q 3450 4097 3450 3541 
Q 3450 3153 3228 2886 
Q 3006 2619 2597 2516 
z
" transform="scale(0.015625)"/>
       </defs>
       <use xlink:href="#DejaVuSans-33"/>
       <use xlink:href="#DejaVuSans-30" x="63.623047"/>
       <use xlink:href="#DejaVuSans-30" x="127.246094"/>
      </g>
     </g>
    </g>
    <g id="xtick_8">
     <g id="line2d_8">
      <g>
       <use xlink:href="#m43f4ac3a13" x="301.546336" y="307.584" style="stroke: #000000; stroke-width: 0.8"/>
      </g>
     </g>
     <g id="text_8">
      <!-- 350 -->
      <g transform="translate(292.002586 322.182437) scale(0.1 -0.1)">
       <use xlink:href="#DejaVuSans-33"/>
       <use xlink:href="#DejaVuSans-35" x="63.623047"/>
       <use xlink:href="#DejaVuSans-30" x="127.246094"/>
      </g>
     </g>
    </g>
    <g id="xtick_9">
     <g id="line2d_9">
      <g>
       <use xlink:href="#m43f4ac3a13" x="334.076852" y="307.584" style="stroke: #000000; stroke-width: 0.8"/>
      </g>
     </g>
     <g id="text_9">
      <!-- 400 -->
      <g transform="translate(324.533102 322.182437) scale(0.1 -0.1)">
       <defs>
        <path id="DejaVuSans-34" d="M 2419 4116 
L 825 1625 
L 2419 1625 
L 2419 4116 
z
M 2253 4666 
L 3047 4666 
L 3047 1625 
L 3713 1625 
L 3713 1100 
L 3047 1100 
L 3047 0 
L 2419 0 
L 2419 1100 
L 313 1100 
L 313 1709 
L 2253 4666 
z
" transform="scale(0.015625)"/>
       </defs>
       <use xlink:href="#DejaVuSans-34"/>
       <use xlink:href="#DejaVuSans-30" x="63.623047"/>
       <use xlink:href="#DejaVuSans-30" x="127.246094"/>
      </g>
     </g>
    </g>
    <g id="xtick_10">
     <g id="line2d_10">
      <g>
       <use xlink:href="#m43f4ac3a13" x="366.607367" y="307.584" style="stroke: #000000; stroke-width: 0.8"/>
      </g>
     </g>
     <g id="text_10">
      <!-- 450 -->
      <g transform="translate(357.063617 322.182437) scale(0.1 -0.1)">
       <use xlink:href="#DejaVuSans-34"/>
       <use xlink:href="#DejaVuSans-35" x="63.623047"/>
       <use xlink:href="#DejaVuSans-30" x="127.246094"/>
      </g>
     </g>
    </g>
    <g id="xtick_11">
     <g id="line2d_11">
      <g>
       <use xlink:href="#m43f4ac3a13" x="399.137883" y="307.584" style="stroke: #000000; stroke-width: 0.8"/>
      </g>
     </g>
     <g id="text_11">
      <!-- 500 -->
      <g transform="translate(389.594133 322.182437) scale(0.1 -0.1)">
       <use xlink:href="#DejaVuSans-35"/>
       <use xlink:href="#DejaVuSans-30" x="63.623047"/>
       <use xlink:href="#DejaVuSans-30" x="127.246094"/>
      </g>
     </g>
    </g>
    <g id="text_12">
     <!-- Episode -->
     <g transform="translate(216.5225 335.860562) scale(0.1 -0.1)">
      <defs>
       <path id="DejaVuSans-45" d="M 628 4666 
L 3578 4666 
L 3578 4134 
L 1259 4134 
L 1259 2753 
L 3481 2753 
L 3481 2222 
L 1259 2222 
L 1259 531 
L 3634 531 
L 3634 0 
L 628 0 
L 628 4666 
z
" transform="scale(0.015625)"/>
       <path id="DejaVuSans-70" d="M 1159 525 
L 1159 -1331 
L 581 -1331 
L 581 3500 
L 1159 3500 
L 1159 2969 
Q 1341 3281 1617 3432 
Q 1894 3584 2278 3584 
Q 2916 3584 3314 3078 
Q 3713 2572 3713 1747 
Q 3713 922 3314 415 
Q 2916 -91 2278 -91 
Q 1894 -91 1617 61 
Q 1341 213 1159 525 
z
M 3116 1747 
Q 3116 2381 2855 2742 
Q 2594 3103 2138 3103 
Q 1681 3103 1420 2742 
Q 1159 2381 1159 1747 
Q 1159 1113 1420 752 
Q 1681 391 2138 391 
Q 2594 391 2855 752 
Q 3116 1113 3116 1747 
z
" transform="scale(0.015625)"/>
       <path id="DejaVuSans-69" d="M 603 3500 
L 1178 3500 
L 1178 0 
L 603 0 
L 603 3500 
z
M 603 4863 
L 1178 4863 
L 1178 4134 
L 603 4134 
L 603 4863 
z
" transform="scale(0.015625)"/>
       <path id="DejaVuSans-73" d="M 2834 3397 
L 2834 2853 
Q 2591 2978 2328 3040 
Q 2066 3103 1784 3103 
Q 1356 3103 1142 2972 
Q 928 2841 928 2578 
Q 928 2378 1081 2264 
Q 1234 2150 1697 2047 
L 1894 2003 
Q 2506 1872 2764 1633 
Q 3022 1394 3022 966 
Q 3022 478 2636 193 
Q 2250 -91 1575 -91 
Q 1294 -91 989 -36 
Q 684 19 347 128 
L 347 722 
Q 666 556 975 473 
Q 1284 391 1588 391 
Q 1994 391 2212 530 
Q 2431 669 2431 922 
Q 2431 1156 2273 1281 
Q 2116 1406 1581 1522 
L 1381 1569 
Q 847 1681 609 1914 
Q 372 2147 372 2553 
Q 372 3047 722 3315 
Q 1072 3584 1716 3584 
Q 2034 3584 2315 3537 
Q 2597 3491 2834 3397 
z
" transform="scale(0.015625)"/>
       <path id="DejaVuSans-6f" d="M 1959 3097 
Q 1497 3097 1228 2736 
Q 959 2375 959 1747 
Q 959 1119 1226 758 
Q 1494 397 1959 397 
Q 2419 397 2687 759 
Q 2956 1122 2956 1747 
Q 2956 2369 2687 2733 
Q 2419 3097 1959 3097 
z
M 1959 3584 
Q 2709 3584 3137 3096 
Q 3566 2609 3566 1747 
Q 3566 888 3137 398 
Q 2709 -91 1959 -91 
Q 1206 -91 779 398 
Q 353 888 353 1747 
Q 353 2609 779 3096 
Q 1206 3584 1959 3584 
z
" transform="scale(0.015625)"/>
       <path id="DejaVuSans-64" d="M 2906 2969 
L 2906 4863 
L 3481 4863 
L 3481 0 
L 2906 0 
L 2906 525 
Q 2725 213 2448 61 
Q 2172 -91 1784 -91 
Q 1150 -91 751 415 
Q 353 922 353 1747 
Q 353 2572 751 3078 
Q 1150 3584 1784 3584 
Q 2172 3584 2448 3432 
Q 2725 3281 2906 2969 
z
M 947 1747 
Q 947 1113 1208 752 
Q 1469 391 1925 391 
Q 2381 391 2643 752 
Q 2906 1113 2906 1747 
Q 2906 2381 2643 2742 
Q 2381 3103 1925 3103 
Q 1469 3103 1208 2742 
Q 947 2381 947 1747 
z
" transform="scale(0.015625)"/>
       <path id="DejaVuSans-65" d="M 3597 1894 
L 3597 1613 
L 953 1613 
Q 991 1019 1311 708 
Q 1631 397 2203 397 
Q 2534 397 2845 478 
Q 3156 559 3463 722 
L 3463 178 
Q 3153 47 2828 -22 
Q 2503 -91 2169 -91 
Q 1331 -91 842 396 
Q 353 884 353 1716 
Q 353 2575 817 3079 
Q 1281 3584 2069 3584 
Q 2775 3584 3186 3129 
Q 3597 2675 3597 1894 
z
M 3022 2063 
Q 3016 2534 2758 2815 
Q 2500 3097 2075 3097 
Q 1594 3097 1305 2825 
Q 1016 2553 972 2059 
L 3022 2063 
z
" transform="scale(0.015625)"/>
      </defs>
      <use xlink:href="#DejaVuSans-45"/>
      <use xlink:href="#DejaVuSans-70" x="63.183594"/>
      <use xlink:href="#DejaVuSans-69" x="126.660156"/>
      <use xlink:href="#DejaVuSans-73" x="154.443359"/>
      <use xlink:href="#DejaVuSans-6f" x="206.542969"/>
      <use xlink:href="#DejaVuSans-64" x="267.724609"/>
      <use xlink:href="#DejaVuSans-65" x="331.201172"/>
     </g>
    </g>
   </g>
   <g id="matplotlib.axis_2">
    <g id="ytick_1">
     <g id="line2d_12">
      <defs>
       <path id="m62fe033245" d="M 0 0 
L -3.5 0 
" style="stroke: #000000; stroke-width: 0.8"/>
      </defs>
      <g>
       <use xlink:href="#m62fe033245" x="57.6" y="295.488" style="stroke: #000000; stroke-width: 0.8"/>
      </g>
     </g>
     <g id="text_13">
      <!-- −200 -->
      <g transform="translate(23.132812 299.287219) scale(0.1 -0.1)">
       <defs>
        <path id="DejaVuSans-2212" d="M 678 2272 
L 4684 2272 
L 4684 1741 
L 678 1741 
L 678 2272 
z
" transform="scale(0.015625)"/>
       </defs>
       <use xlink:href="#DejaVuSans-2212"/>
       <use xlink:href="#DejaVuSans-32" x="83.789062"/>
       <use xlink:href="#DejaVuSans-30" x="147.412109"/>
       <use xlink:href="#DejaVuSans-30" x="211.035156"/>
      </g>
     </g>
    </g>
    <g id="ytick_2">
     <g id="line2d_13">
      <g>
       <use xlink:href="#m62fe033245" x="57.6" y="265.248" style="stroke: #000000; stroke-width: 0.8"/>
      </g>
     </g>
     <g id="text_14">
      <!-- −150 -->
      <g transform="translate(23.132812 269.047219) scale(0.1 -0.1)">
       <use xlink:href="#DejaVuSans-2212"/>
       <use xlink:href="#DejaVuSans-31" x="83.789062"/>
       <use xlink:href="#DejaVuSans-35" x="147.412109"/>
       <use xlink:href="#DejaVuSans-30" x="211.035156"/>
      </g>
     </g>
    </g>
    <g id="ytick_3">
     <g id="line2d_14">
      <g>
       <use xlink:href="#m62fe033245" x="57.6" y="235.008" style="stroke: #000000; stroke-width: 0.8"/>
      </g>
     </g>
     <g id="text_15">
      <!-- −100 -->
      <g transform="translate(23.132812 238.807219) scale(0.1 -0.1)">
       <use xlink:href="#DejaVuSans-2212"/>
       <use xlink:href="#DejaVuSans-31" x="83.789062"/>
       <use xlink:href="#DejaVuSans-30" x="147.412109"/>
       <use xlink:href="#DejaVuSans-30" x="211.035156"/>
      </g>
     </g>
    </g>
    <g id="ytick_4">
     <g id="line2d_15">
      <g>
       <use xlink:href="#m62fe033245" x="57.6" y="204.768" style="stroke: #000000; stroke-width: 0.8"/>
      </g>
     </g>
     <g id="text_16">
      <!-- −50 -->
      <g transform="translate(29.495313 208.567219) scale(0.1 -0.1)">
       <use xlink:href="#DejaVuSans-2212"/>
       <use xlink:href="#DejaVuSans-35" x="83.789062"/>
       <use xlink:href="#DejaVuSans-30" x="147.412109"/>
      </g>
     </g>
    </g>
    <g id="ytick_5">
     <g id="line2d_16">
      <g>
       <use xlink:href="#m62fe033245" x="57.6" y="174.528" style="stroke: #000000; stroke-width: 0.8"/>
      </g>
     </g>
     <g id="text_17">
      <!-- 0 -->
      <g transform="translate(44.2375 178.327219) scale(0.1 -0.1)">
       <use xlink:href="#DejaVuSans-30"/>
      </g>
     </g>
    </g>
    <g id="ytick_6">
     <g id="line2d_17">
      <g>
       <use xlink:href="#m62fe033245" x="57.6" y="144.288" style="stroke: #000000; stroke-width: 0.8"/>
      </g>
     </g>
     <g id="text_18">
      <!-- 50 -->
      <g transform="translate(37.875 148.087219) scale(0.1 -0.1)">
       <use xlink:href="#DejaVuSans-35"/>
       <use xlink:href="#DejaVuSans-30" x="63.623047"/>
      </g>
     </g>
    </g>
    <g id="ytick_7">
     <g id="line2d_18">
      <g>
       <use xlink:href="#m62fe033245" x="57.6" y="114.048" style="stroke: #000000; stroke-width: 0.8"/>
      </g>
     </g>
     <g id="text_19">
      <!-- 100 -->
      <g transform="translate(31.5125 117.847219) scale(0.1 -0.1)">
       <use xlink:href="#DejaVuSans-31"/>
       <use xlink:href="#DejaVuSans-30" x="63.623047"/>
       <use xlink:href="#DejaVuSans-30" x="127.246094"/>
      </g>
     </g>
    </g>
    <g id="ytick_8">
     <g id="line2d_19">
      <g>
       <use xlink:href="#m62fe033245" x="57.6" y="83.808" style="stroke: #000000; stroke-width: 0.8"/>
      </g>
     </g>
     <g id="text_20">
      <!-- 150 -->
      <g transform="translate(31.5125 87.607219) scale(0.1 -0.1)">
       <use xlink:href="#DejaVuSans-31"/>
       <use xlink:href="#DejaVuSans-35" x="63.623047"/>
       <use xlink:href="#DejaVuSans-30" x="127.246094"/>
      </g>
     </g>
    </g>
    <g id="ytick_9">
     <g id="line2d_20">
      <g>
       <use xlink:href="#m62fe033245" x="57.6" y="53.568" style="stroke: #000000; stroke-width: 0.8"/>
      </g>
     </g>
     <g id="text_21">
      <!-- 200 -->
      <g transform="translate(31.5125 57.367219) scale(0.1 -0.1)">
       <use xlink:href="#DejaVuSans-32"/>
       <use xlink:href="#DejaVuSans-30" x="63.623047"/>
       <use xlink:href="#DejaVuSans-30" x="127.246094"/>
      </g>
     </g>
    </g>
    <g id="text_22">
     <!-- Reward -->
     <g transform="translate(17.053125 193.149094) rotate(-90) scale(0.1 -0.1)">
      <defs>
       <path id="DejaVuSans-52" d="M 2841 2188 
Q 3044 2119 3236 1894 
Q 3428 1669 3622 1275 
L 4263 0 
L 3584 0 
L 2988 1197 
Q 2756 1666 2539 1819 
Q 2322 1972 1947 1972 
L 1259 1972 
L 1259 0 
L 628 0 
L 628 4666 
L 2053 4666 
Q 2853 4666 3247 4331 
Q 3641 3997 3641 3322 
Q 3641 2881 3436 2590 
Q 3231 2300 2841 2188 
z
M 1259 4147 
L 1259 2491 
L 2053 2491 
Q 2509 2491 2742 2702 
Q 2975 2913 2975 3322 
Q 2975 3731 2742 3939 
Q 2509 4147 2053 4147 
L 1259 4147 
z
" transform="scale(0.015625)"/>
       <path id="DejaVuSans-77" d="M 269 3500 
L 844 3500 
L 1563 769 
L 2278 3500 
L 2956 3500 
L 3675 769 
L 4391 3500 
L 4966 3500 
L 4050 0 
L 3372 0 
L 2619 2869 
L 1863 0 
L 1184 0 
L 269 3500 
z
" transform="scale(0.015625)"/>
       <path id="DejaVuSans-61" d="M 2194 1759 
Q 1497 1759 1228 1600 
Q 959 1441 959 1056 
Q 959 750 1161 570 
Q 1363 391 1709 391 
Q 2188 391 2477 730 
Q 2766 1069 2766 1631 
L 2766 1759 
L 2194 1759 
z
M 3341 1997 
L 3341 0 
L 2766 0 
L 2766 531 
Q 2569 213 2275 61 
Q 1981 -91 1556 -91 
Q 1019 -91 701 211 
Q 384 513 384 1019 
Q 384 1609 779 1909 
Q 1175 2209 1959 2209 
L 2766 2209 
L 2766 2266 
Q 2766 2663 2505 2880 
Q 2244 3097 1772 3097 
Q 1472 3097 1187 3025 
Q 903 2953 641 2809 
L 641 3341 
Q 956 3463 1253 3523 
Q 1550 3584 1831 3584 
Q 2591 3584 2966 3190 
Q 3341 2797 3341 1997 
z
" transform="scale(0.015625)"/>
       <path id="DejaVuSans-72" d="M 2631 2963 
Q 2534 3019 2420 3045 
Q 2306 3072 2169 3072 
Q 1681 3072 1420 2755 
Q 1159 2438 1159 1844 
L 1159 0 
L 581 0 
L 581 3500 
L 1159 3500 
L 1159 2956 
Q 1341 3275 1631 3429 
Q 1922 3584 2338 3584 
Q 2397 3584 2469 3576 
Q 2541 3569 2628 3553 
L 2631 2963 
z
" transform="scale(0.015625)"/>
      </defs>
      <use xlink:href="#DejaVuSans-52"/>
      <use xlink:href="#DejaVuSans-65" x="64.982422"/>
      <use xlink:href="#DejaVuSans-77" x="126.505859"/>
      <use xlink:href="#DejaVuSans-61" x="208.292969"/>
      <use xlink:href="#DejaVuSans-72" x="269.572266"/>
      <use xlink:href="#DejaVuSans-64" x="308.935547"/>
     </g>
    </g>
   </g>
   <g id="line2d_21">
    <path d="M 73.832727 101.952 
L 76.435169 295.488 
L 149.954134 295.488 
L 150.604744 268.39296 
L 152.556575 268.39296 
L 153.207185 242.38656 
L 153.857796 269.4816 
L 155.809627 269.4816 
L 156.460237 295.488 
L 159.062678 295.488 
L 159.713288 263.67552 
L 162.31573 263.67552 
L 162.96634 295.488 
L 270.317041 295.488 
L 270.967652 270.93312 
L 273.570093 270.93312 
L 274.220703 295.488 
L 276.823144 295.488 
L 277.473755 269.60256 
L 278.774975 269.60256 
L 279.425586 244.56384 
L 280.076196 244.56384 
L 280.726806 270.44928 
L 282.028027 270.44928 
L 282.678637 295.488 
L 285.281079 295.488 
L 286.582299 241.90272 
L 288.53413 241.90272 
L 289.18474 268.63488 
L 289.835351 268.39296 
L 290.485961 268.39296 
L 292.437792 188.19648 
L 293.088402 186.74496 
L 293.739013 162.06912 
L 294.389623 159.64992 
L 295.040233 160.37568 
L 295.690844 160.0128 
L 296.341454 161.10144 
L 297.642674 214.32384 
L 298.293285 209.24352 
L 298.943895 206.34048 
L 299.594505 204.88896 
L 300.895726 204.88896 
L 302.196947 266.57856 
L 302.847557 268.03008 
L 303.498167 236.70144 
L 305.449998 158.92416 
L 306.100608 160.0128 
L 306.751219 163.6416 
L 307.401829 162.91584 
L 308.052439 160.25472 
L 309.35366 147.07008 
L 310.00427 148.88448 
L 310.654881 174.64896 
L 311.305491 171.504 
L 312.606712 180.93888 
L 313.257322 180.33408 
L 313.907932 146.1024 
L 314.558543 177.43104 
L 315.209153 179.3664 
L 316.510373 164.97216 
L 317.160984 164.48832 
L 317.811594 130.49856 
L 318.462204 122.87808 
L 319.112815 130.9824 
L 319.763425 130.3776 
L 320.414035 130.74048 
L 321.064646 127.23264 
L 321.715256 126.50688 
L 322.365866 118.03968 
L 323.016477 116.58816 
L 323.667087 116.34624 
L 324.317697 119.00736 
L 324.968308 119.24928 
L 325.618918 120.096 
L 326.269528 119.4912 
L 327.570749 120.57984 
L 328.221359 119.97504 
L 328.871969 120.45888 
L 329.52258 128.92608 
L 330.17319 134.36928 
L 330.8238 131.70816 
L 331.474411 134.97408 
L 332.125021 132.55488 
L 332.775631 133.15968 
L 333.426242 133.52256 
L 334.727462 138.24 
L 335.378073 146.46528 
L 336.028683 147.79584 
L 336.679293 140.53824 
L 337.329903 140.78016 
L 337.980514 143.6832 
L 338.631124 135.45792 
L 339.281734 133.76448 
L 339.932345 144.77184 
L 340.582955 149.85216 
L 341.233565 140.17536 
L 341.884176 149.00544 
L 342.534786 148.40064 
L 343.185396 146.7072 
L 343.836007 138.48192 
L 344.486617 140.53824 
L 345.137227 140.78016 
L 345.787837 140.90112 
L 346.438448 129.04704 
L 347.089058 129.168 
L 347.739668 137.75616 
L 348.390279 135.94176 
L 349.040889 128.32128 
L 349.691499 139.93344 
L 350.34211 147.79584 
L 350.99272 136.4256 
L 351.64333 128.92608 
L 352.293941 127.9584 
L 352.944551 118.40256 
L 353.595161 113.08032 
L 354.896382 115.49952 
L 355.546992 114.89472 
L 356.197602 121.9104 
L 356.848213 126.99072 
L 357.498823 125.29728 
L 358.149433 122.99904 
L 358.800044 130.49856 
L 359.450654 121.18464 
L 360.101264 120.7008 
L 361.402485 137.75616 
L 362.053095 137.75616 
L 362.703706 146.58624 
L 363.354316 147.79584 
L 364.004926 148.40064 
L 364.655537 142.23168 
L 365.306147 142.11072 
L 365.956757 144.288 
L 366.607367 143.19936 
L 367.257978 135.45792 
L 367.908588 135.45792 
L 368.559198 128.44224 
L 369.209809 125.66016 
L 369.860419 129.28896 
L 370.511029 129.40992 
L 371.16164 126.62784 
L 371.81225 135.94176 
L 372.46286 129.65184 
L 373.113471 126.02304 
L 373.764081 126.02304 
L 374.414691 126.7488 
L 375.065302 126.144 
L 375.715912 132.55488 
L 376.366522 133.88544 
L 377.667743 149.85216 
L 378.318353 148.76352 
L 378.968963 148.5216 
L 379.619574 147.67488 
L 380.270184 138.96576 
L 380.920794 138.60288 
L 382.222015 122.5152 
L 382.872625 122.03136 
L 383.523236 122.87808 
L 384.173846 123.12 
L 384.824456 123.24096 
L 385.475066 131.22432 
L 386.125677 123.84576 
L 386.776287 122.63616 
L 387.426897 114.77376 
L 388.077508 122.39424 
L 388.728118 114.048 
L 389.378728 123.84576 
L 390.679949 139.32864 
L 391.330559 131.34528 
L 391.98117 132.7968 
L 392.63178 124.45056 
L 393.28239 125.17632 
L 393.933001 117.19296 
L 394.583611 125.17632 
L 395.234221 123.60384 
L 395.884831 129.28896 
L 396.535442 129.40992 
L 397.186052 139.4496 
L 397.836662 141.8688 
L 398.487273 142.23168 
L 398.487273 142.23168 
" clip-path="url(#p42d882943d)" style="fill: none; stroke: #0000ff; stroke-width: 1.5; stroke-linecap: square"/>
   </g>
   <g id="line2d_22">
    <path d="M 73.832727 295.488 
L 293.088402 295.488 
L 293.739013 172.1088 
L 296.341454 172.1088 
L 296.992064 295.488 
L 304.799388 295.488 
L 305.449998 170.2944 
L 306.751219 170.2944 
L 307.401829 167.8752 
L 308.052439 166.6656 
L 310.00427 166.6656 
L 310.654881 295.488 
L 313.257322 295.488 
L 313.907932 163.0368 
L 314.558543 295.488 
L 317.160984 295.488 
L 317.811594 159.408 
L 318.462204 125.5392 
L 319.112815 160.6176 
L 321.715256 160.6176 
L 322.365866 123.7248 
L 323.016477 123.7248 
L 323.667087 122.5152 
L 326.269528 122.5152 
L 326.920138 125.5392 
L 328.871969 125.5392 
L 329.52258 154.5696 
L 332.125021 154.5696 
L 332.775631 157.5936 
L 335.378073 157.5936 
L 336.028683 164.2464 
L 338.631124 164.2464 
L 339.281734 158.1984 
L 339.932345 173.3184 
L 342.534786 173.3184 
L 343.185396 164.8512 
L 345.787837 164.8512 
L 346.438448 158.1984 
L 347.089058 158.1984 
L 347.739668 163.0368 
L 349.040889 163.0368 
L 349.691499 163.6416 
L 352.293941 163.6416 
L 352.944551 147.9168 
L 353.595161 121.3056 
L 355.546992 121.3056 
L 356.197602 150.9408 
L 358.800044 150.9408 
L 359.450654 146.7072 
L 360.101264 144.8928 
L 360.751875 144.8928 
L 361.402485 151.5456 
L 364.004926 151.5456 
L 364.655537 150.336 
L 365.306147 150.336 
L 365.956757 159.408 
L 368.559198 159.408 
L 369.209809 145.4976 
L 369.860419 163.0368 
L 372.46286 163.0368 
L 373.113471 155.7792 
L 374.414691 155.7792 
L 375.065302 152.7552 
L 377.667743 152.7552 
L 378.318353 151.5456 
L 378.968963 151.5456 
L 379.619574 149.7312 
L 380.270184 149.1264 
L 380.920794 147.312 
L 383.523236 147.312 
L 384.173846 148.5216 
L 386.776287 148.5216 
L 387.426897 146.1024 
L 388.077508 146.1024 
L 388.728118 144.288 
L 389.378728 156.9888 
L 391.98117 156.9888 
L 392.63178 146.1024 
L 393.28239 148.5216 
L 395.884831 148.5216 
L 396.535442 149.1264 
L 397.186052 156.384 
L 398.487273 156.384 
L 398.487273 156.384 
" clip-path="url(#p42d882943d)" style="fill: none; stroke: #ff0000; stroke-width: 1.5; stroke-linecap: square"/>
   </g>
   <g id="line2d_23">
    <path d="M 73.832727 53.568 
L 75.784558 53.568 
L 76.435169 295.488 
L 149.954134 295.488 
L 150.604744 160.0128 
L 153.207185 160.0128 
L 153.857796 165.456 
L 155.809627 165.456 
L 156.460237 295.488 
L 159.062678 295.488 
L 159.713288 136.4256 
L 162.31573 136.4256 
L 162.96634 295.488 
L 270.317041 295.488 
L 270.967652 172.7136 
L 273.570093 172.7136 
L 274.220703 295.488 
L 276.823144 295.488 
L 277.473755 166.0608 
L 280.076196 166.0608 
L 280.726806 170.2944 
L 282.028027 170.2944 
L 282.678637 295.488 
L 285.281079 295.488 
L 285.931689 161.8272 
L 286.582299 161.2224 
L 289.18474 161.2224 
L 289.835351 160.0128 
L 291.136571 160.0128 
L 291.787182 153.36 
L 292.437792 153.36 
L 293.088402 152.7552 
L 296.992064 152.7552 
L 297.642674 156.9888 
L 298.293285 131.5872 
L 300.895726 131.5872 
L 301.546336 150.9408 
L 302.196947 150.9408 
L 302.847557 158.1984 
L 303.498167 138.8448 
L 306.100608 138.8448 
L 306.751219 156.9888 
L 307.401829 156.9888 
L 308.052439 154.5696 
L 308.70305 127.3536 
L 311.305491 127.3536 
L 311.956101 129.7728 
L 312.606712 138.8448 
L 313.257322 138.8448 
L 313.907932 124.3296 
L 315.209153 124.3296 
L 315.859763 120.096 
L 318.462204 120.096 
L 319.112815 121.3056 
L 320.414035 121.3056 
L 321.064646 108 
L 323.667087 108 
L 324.317697 115.2576 
L 325.618918 115.2576 
L 326.269528 112.2336 
L 328.871969 112.2336 
L 329.52258 115.8624 
L 330.17319 115.8624 
L 330.8238 110.4192 
L 333.426242 110.4192 
L 334.076852 112.8384 
L 334.727462 112.8384 
L 335.378073 122.5152 
L 336.028683 122.5152 
L 336.679293 118.2816 
L 337.980514 118.2816 
L 338.631124 112.8384 
L 340.582955 112.8384 
L 341.233565 109.8144 
L 343.185396 109.8144 
L 343.836007 108 
L 345.787837 108 
L 346.438448 105.5808 
L 349.040889 105.5808 
L 349.691499 108.6048 
L 350.34211 115.2576 
L 350.99272 106.1856 
L 353.595161 106.1856 
L 354.245772 110.4192 
L 354.896382 110.4192 
L 355.546992 107.3952 
L 356.848213 107.3952 
L 357.498823 104.3712 
L 362.053095 104.3712 
L 362.703706 143.6832 
L 363.354316 143.6832 
L 364.004926 144.8928 
L 364.655537 120.7008 
L 366.607367 120.7008 
L 367.257978 108 
L 369.860419 108 
L 370.511029 108.6048 
L 371.16164 106.7904 
L 373.764081 106.7904 
L 374.414691 108.6048 
L 376.366522 108.6048 
L 377.017132 110.4192 
L 377.667743 146.1024 
L 378.318353 146.1024 
L 378.968963 144.8928 
L 379.619574 144.8928 
L 380.270184 106.1856 
L 380.920794 106.1856 
L 381.571405 105.5808 
L 384.173846 105.5808 
L 384.824456 106.1856 
L 386.125677 106.1856 
L 386.776287 104.3712 
L 393.933001 104.3712 
L 394.583611 106.1856 
L 395.234221 103.7664 
L 397.836662 103.7664 
L 398.487273 105.5808 
L 398.487273 105.5808 
" clip-path="url(#p42d882943d)" style="fill: none; stroke: #008000; stroke-width: 1.5; stroke-linecap: square"/>
   </g>
   <g id="patch_3">
    <path d="M 57.6 307.584 
L 57.6 41.472 
" style="fill: none; stroke: #000000; stroke-width: 0.8; stroke-linejoin: miter; stroke-linecap: square"/>
   </g>
   <g id="patch_4">
    <path d="M 414.72 307.584 
L 414.72 41.472 
" style="fill: none; stroke: #000000; stroke-width: 0.8; stroke-linejoin: miter; stroke-linecap: square"/>
   </g>
   <g id="patch_5">
    <path d="M 57.6 307.584 
L 414.72 307.584 
" style="fill: none; stroke: #000000; stroke-width: 0.8; stroke-linejoin: miter; stroke-linecap: square"/>
   </g>
   <g id="patch_6">
    <path d="M 57.6 41.472 
L 414.72 41.472 
" style="fill: none; stroke: #000000; stroke-width: 0.8; stroke-linejoin: miter; stroke-linecap: square"/>
   </g>
   <g id="text_23">
    <!-- Rewards -->
    <g transform="translate(210.689063 35.472) scale(0.12 -0.12)">
     <use xlink:href="#DejaVuSans-52"/>
     <use xlink:href="#DejaVuSans-65" x="64.982422"/>
     <use xlink:href="#DejaVuSans-77" x="126.505859"/>
     <use xlink:href="#DejaVuSans-61" x="208.292969"/>
     <use xlink:href="#DejaVuSans-72" x="269.572266"/>
     <use xlink:href="#DejaVuSans-64" x="308.935547"/>
     <use xlink:href="#DejaVuSans-73" x="372.412109"/>
    </g>
   </g>
   <g id="legend_1">
    <g id="patch_7">
     <path d="M 64.6 93.506375 
L 124.959375 93.506375 
Q 126.959375 93.506375 126.959375 91.506375 
L 126.959375 48.472 
Q 126.959375 46.472 124.959375 46.472 
L 64.6 46.472 
Q 62.6 46.472 62.6 48.472 
L 62.6 91.506375 
Q 62.6 93.506375 64.6 93.506375 
z
" style="fill: #ffffff; opacity: 0.8; stroke: #cccccc; stroke-linejoin: miter"/>
    </g>
    <g id="line2d_24">
     <path d="M 66.6 54.570438 
L 76.6 54.570438 
L 86.6 54.570438 
" style="fill: none; stroke: #0000ff; stroke-width: 1.5; stroke-linecap: square"/>
    </g>
    <g id="text_24">
     <!-- mean -->
     <g transform="translate(94.6 58.070438) scale(0.1 -0.1)">
      <defs>
       <path id="DejaVuSans-6d" d="M 3328 2828 
Q 3544 3216 3844 3400 
Q 4144 3584 4550 3584 
Q 5097 3584 5394 3201 
Q 5691 2819 5691 2113 
L 5691 0 
L 5113 0 
L 5113 2094 
Q 5113 2597 4934 2840 
Q 4756 3084 4391 3084 
Q 3944 3084 3684 2787 
Q 3425 2491 3425 1978 
L 3425 0 
L 2847 0 
L 2847 2094 
Q 2847 2600 2669 2842 
Q 2491 3084 2119 3084 
Q 1678 3084 1418 2786 
Q 1159 2488 1159 1978 
L 1159 0 
L 581 0 
L 581 3500 
L 1159 3500 
L 1159 2956 
Q 1356 3278 1631 3431 
Q 1906 3584 2284 3584 
Q 2666 3584 2933 3390 
Q 3200 3197 3328 2828 
z
" transform="scale(0.015625)"/>
       <path id="DejaVuSans-6e" d="M 3513 2113 
L 3513 0 
L 2938 0 
L 2938 2094 
Q 2938 2591 2744 2837 
Q 2550 3084 2163 3084 
Q 1697 3084 1428 2787 
Q 1159 2491 1159 1978 
L 1159 0 
L 581 0 
L 581 3500 
L 1159 3500 
L 1159 2956 
Q 1366 3272 1645 3428 
Q 1925 3584 2291 3584 
Q 2894 3584 3203 3211 
Q 3513 2838 3513 2113 
z
" transform="scale(0.015625)"/>
      </defs>
      <use xlink:href="#DejaVuSans-6d"/>
      <use xlink:href="#DejaVuSans-65" x="97.412109"/>
      <use xlink:href="#DejaVuSans-61" x="158.935547"/>
      <use xlink:href="#DejaVuSans-6e" x="220.214844"/>
     </g>
    </g>
    <g id="line2d_25">
     <path d="M 66.6 69.248563 
L 76.6 69.248563 
L 86.6 69.248563 
" style="fill: none; stroke: #ff0000; stroke-width: 1.5; stroke-linecap: square"/>
    </g>
    <g id="text_25">
     <!-- min -->
     <g transform="translate(94.6 72.748563) scale(0.1 -0.1)">
      <use xlink:href="#DejaVuSans-6d"/>
      <use xlink:href="#DejaVuSans-69" x="97.412109"/>
      <use xlink:href="#DejaVuSans-6e" x="125.195312"/>
     </g>
    </g>
    <g id="line2d_26">
     <path d="M 66.6 83.926688 
L 76.6 83.926688 
L 86.6 83.926688 
" style="fill: none; stroke: #008000; stroke-width: 1.5; stroke-linecap: square"/>
    </g>
    <g id="text_26">
     <!-- max -->
     <g transform="translate(94.6 87.426688) scale(0.1 -0.1)">
      <defs>
       <path id="DejaVuSans-78" d="M 3513 3500 
L 2247 1797 
L 3578 0 
L 2900 0 
L 1881 1375 
L 863 0 
L 184 0 
L 1544 1831 
L 300 3500 
L 978 3500 
L 1906 2253 
L 2834 3500 
L 3513 3500 
z
" transform="scale(0.015625)"/>
      </defs>
      <use xlink:href="#DejaVuSans-6d"/>
      <use xlink:href="#DejaVuSans-61" x="97.412109"/>
      <use xlink:href="#DejaVuSans-78" x="158.691406"/>
     </g>
    </g>
   </g>
  </g>
 </g>
 <defs>
  <clipPath id="p42d882943d">
   <rect x="57.6" y="41.472" width="357.12" height="266.112"/>
  </clipPath>
 </defs>
</svg>
